SplineFontDB: 3.0
FontName: Carter
FullName: Carter
FamilyName: Carter
Weight: Book
Copyright: Copyright (c) 2011 by vernon adams. All rights reserved.
Version: 1.000
ItalicAngle: 0
UnderlinePosition: -103
UnderlineWidth: 102
Ascent: 1638
Descent: 410
sfntRevision: 0x00010000
LayerCount: 2
Layer: 0 1 "Back"  1
Layer: 1 1 "Fore"  0
NeedsXUIDChange: 1
XUID: [1021 759 1887733602 13535827]
FSType: 4
OS2Version: 3
OS2_WeightWidthSlopeOnly: 0
OS2_UseTypoMetrics: 1
CreationTime: 1296431932
ModificationTime: 1302381659
PfmFamily: 81
TTFWeight: 400
TTFWidth: 5
LineGap: 0
VLineGap: 0
Panose: 0 0 0 0 0 0 0 0 0 0
OS2TypoAscent: 23
OS2TypoAOffset: 1
OS2TypoDescent: -76
OS2TypoDOffset: 1
OS2TypoLinegap: 0
OS2WinAscent: -603
OS2WinAOffset: 1
OS2WinDescent: -407
OS2WinDOffset: 1
HheadAscent: -603
HheadAOffset: 1
HheadDescent: 407
HheadDOffset: 1
OS2SubXSize: 1434
OS2SubYSize: 1331
OS2SubXOff: 0
OS2SubYOff: 287
OS2SupXSize: 1434
OS2SupYSize: 1331
OS2SupXOff: 0
OS2SupYOff: 977
OS2StrikeYSize: 102
OS2StrikeYPos: 512
OS2Vendor: 'newt'
OS2CodePages: 20000111.41000000
OS2UnicodeRanges: 800000ef.4800004b.14200000.00000000
Lookup: 258 0 0 "'kern' Horizontal Kerning in Latin lookup 0"  {"'kern' Horizontal Kerning in Latin lookup 0 per glyph data 0"  "'kern' Horizontal Kerning in Latin lookup 0 kerning class 1"  } ['kern' ('latn' <'dflt' > ) ]
MarkAttachClasses: 1
DEI: 91125
KernClass2: 77+ 74 "'kern' Horizontal Kerning in Latin lookup 0 kerning class 1" 
 9 backslash
 3 two
 4 four
 3 six
 5 seven
 5 eight
 10 exclamdown
 20 hyphen endash emdash
 6 period
 5 comma
 22 quoteleft quotedblleft
 24 quoteright quotedblright
 20 quotedbl quotesingle
 5 slash
 27 guillemotleft guilsinglleft
 29 guillemotright guilsinglright
 12 questiondown
 10 registered
 27 quotesinglbase quotedblbase
 9 trademark
 8 asterisk
 43 E AE Egrave Eacute Ecircumflex Edieresis OE
 1 F
 8 G Gbreve
 1 H
 48 I Igrave Iacute Icircumflex Idieresis Idotaccent
 1 J
 1 K
 8 L Lslash
 1 M
 8 N Ntilde

StartChar: E
Encoding: 260 69 4
Width: 1178
Flags: W
HStem: -52 299<641.528 708.5 936.5 1018.47> 1090 333<721.193 1147.2>
LayerCount: 2
Fore
SplineSet
1022 809 m 0,0,1
 1025 819 1025 819 1025 827 c 0,2,3
 1025 838 1025 838 1020.5 843.5 c 128,-1,4
 1016 849 1016 849 1011 852 c 0,5,6
 1005 856 1005 856 997 856 c 0,7,8
 985 856 985 856 955.5 855 c 128,-1,9
 926 854 926 854 886 852.5 c 128,-1,10
 846 851 846 851 797.5 849 c 128,-1,11
 749 847 749 847 698 845 c 1,12,13
 704 899 704 899 708 936 c 128,-1,14
 712 973 712 973 714.5 997 c 128,-1,15
 717 1021 717 1021 719 1035.5 c 128,-1,16
 721 1050 721 1050 722 1059 c 128,-1,17
 723 1068 723 1068 723.5 1074.5 c 128,-1,18
 724 1081 724 1081 725 1090 c 1,19,20
 799 1092 799 1092 868 1095 c 128,-1,21
 937 1098 937 1098 991 1100 c 0,22,23
 1053 1103 1053 1103 1109 1105 c 0,24,25
 1138 1106 1138 1106 1147.5 1115 c 128,-1,26
 1157 1124 1157 1124 1163 1141 c 0,27,28
 1187 1204 1187 1204 1207 1257 c 0,29,30
 1215 1279 1215 1279 1223.5 1302 c 128,-1,31
 1232 1325 1232 1325 1239 1344.5 c 128,-1,32
 1246 1364 1246 1364 1251 1379.5 c 128,-1,33
 1256 1395 1256 1395 1258 1403 c 0,34,35
 1261 1413 1261 1413 1261 1421 c 0,36,37
 1261 1432 1261 1432 1256.5 1438 c 128,-1,38
 1252 1444 1252 1444 1247 1446.5 c 128,-1,39
 1242 1449 1242 1449 1237.5 1449.5 c 128,-1,40
 1233 1450 1233 1450 1232 1450 c 0,41,42
 1213 1449 1213 1449 1163.5 1446.5 c 128,-1,43
 1114 1444 1114 1444 1046.5 1440 c 128,-1,44
 979 1436 979 1436 899.5 1431.5 c 128,-1,45
 820 1427 820 1427 739 1423 c 0,46,47
 550 1412 550 1412 321 1399 c 1,48,49
 290 1346 290 1346 261 1297 c 0,50,51
 236 1255 236 1255 208 1209.5 c 128,-1,52
 180 1164 180 1164 159 1132 c 0,53,54
 145 1110 145 1110 145 1099 c 0,55,56
 145 1084 145 1084 166 1078.5 c 128,-1,57
 187 1073 187 1073 234 1073 c 0,58,59
 249 1073 249 1073 267 1073.5 c 128,-1,60
 285 1074 285 1074 307 1075 c 1,61,-1
 310 1075 l 1,62,-1
 285 751 l 1,63,64
 267 725 267 725 243.5 694 c 128,-1,65
 220 663 220 663 199 634.5 c 128,-1,66
 178 606 178 606 163.5 584 c 128,-1,67
 149 562 149 562 149 554 c 0,68,69
 149 537 149 537 178.5 532 c 128,-1,70
 208 527 208 527 268 526 c 1,71,72
 268 524 268 524 265.5 495.5 c 128,-1,73
 263 467 263 467 259.5 422 c 128,-1,74
 256 377 256 377 252 320.5 c 128,-1,75
 248 264 248 264 244 207 c 1,76,77
 231 183 231 183 214 153.5 c 128,-1,78
 197 124 197 124 180.5 97 c 128,-1,79
 164 70 164 70 152 49.5 c 128,-1,80
 140 29 140 29 137 24 c 1,81,82
 135 18 135 18 135 15 c 0,83,84
 135 6 135 6 140.5 -1 c 128,-1,85
 146 -8 146 -8 153 -9 c 0,86,87
 232 -17 232 -17 324.5 -24.5 c 128,-1,88
 417 -32 417 -32 514 -38 c 128,-1,89
 611 -44 611 -44 708.5 -48 c 128,-1,90
 806 -52 806 -52 896 -52 c 0,91,92
 918 -52 918 -52 936.5 -51 c 128,-1,93
 955 -50 955 -50 970.5 -45 c 128,-1,94
 986 -40 986 -40 999 -29.5 c 128,-1,95
 1012 -19 1012 -19 1022 -1 c 1,96,97
 1037 20 1037 20 1058.5 54.5 c 128,-1,98
 1080 89 1080 89 1101 122.5 c 128,-1,99
 1122 156 1122 156 1137 181 c 128,-1,100
 1152 206 1152 206 1153 208 c 1,101,-1
 1153 249 l 1,102,-1
 640 247 l 1,103,-1
 667 532 l 1,104,105
 708 533 708 533 744 533.5 c 128,-1,106
 780 534 780 534 806 535 c 0,107,108
 837 536 837 536 863 536 c 0,109,110
 892 536 892 536 901.5 544.5 c 128,-1,111
 911 553 911 553 918 570 c 0,112,113
 943 628 943 628 965 676 c 0,114,115
 974 697 974 697 983 717.5 c 128,-1,116
 992 738 992 738 1000 756 c 128,-1,117
 1008 774 1008 774 1014 788 c 128,-1,118
 1020 802 1020 802 1022 809 c 0,0,1
EndSplineSet
EndChar

StartChar: F
Encoding: 261 70 5
Width: 1204
Flags: W
HStem: 1104 352<741.531 1222.2>
VStem: 328.5 399.5<858.25 1071.56>
LayerCount: 2
Fore
SplineSet
1135 822 m 0,0,1
 1138 832 1138 832 1138 840 c 0,2,3
 1138 851 1138 851 1133.5 856.5 c 128,-1,4
 1129 862 1129 862 1124 865 c 0,5,6
 1118 869 1118 869 1110 869 c 0,7,8
 1094 869 1094 869 1055 868 c 128,-1,9
 1016 867 1016 867 962.5 865 c 128,-1,10
 909 863 909 863 845.5 860.5 c 128,-1,11
 782 858 782 858 716 856 c 1,12,13
 721 895 721 895 723.5 918 c 128,-1,14
 726 941 726 941 727 955 c 128,-1,15
 728 969 728 969 728 978.5 c 128,-1,16
 728 988 728 988 729 1001 c 128,-1,17
 730 1014 730 1014 732 1034 c 128,-1,18
 734 1054 734 1054 739 1089 c 1,19,20
 820 1093 820 1093 900 1097 c 128,-1,21
 980 1101 980 1101 1043 1104 c 0,22,23
 1117 1108 1117 1108 1184 1111 c 0,24,25
 1213 1112 1213 1112 1222.5 1121 c 128,-1,26
 1232 1130 1232 1130 1238 1147 c 0,27,28
 1262 1210 1262 1210 1282 1263 c 0,29,30
 1290 1285 1290 1285 1298.5 1308 c 128,-1,31
 1307 1331 1307 1331 1314 1350.5 c 128,-1,32
 1321 1370 1321 1370 1326 1385.5 c 128,-1,33
 1331 1401 1331 1401 1333 1409 c 0,34,35
 1336 1419 1336 1419 1336 1427 c 0,36,37
 1336 1438 1336 1438 1331.5 1444 c 128,-1,38
 1327 1450 1327 1450 1322 1452.5 c 128,-1,39
 1317 1455 1317 1455 1312.5 1455.5 c 128,-1,40
 1308 1456 1308 1456 1307 1456 c 0,41,42
 1286 1455 1286 1455 1233 1452 c 128,-1,43
 1180 1449 1180 1449 1106.5 1444.5 c 128,-1,44
 1033 1440 1033 1440 946 1435 c 128,-1,45
 859 1430 859 1430 771 1424 c 0,46,47
 565 1411 565 1411 316 1395 c 1,48,49
 285 1342 285 1342 256 1293 c 0,50,51
 231 1251 231 1251 203 1205.5 c 128,-1,52
 175 1160 175 1160 154 1128 c 0,53,54
 140 1106 140 1106 140 1095 c 0,55,56
 140 1080 140 1080 161 1074.5 c 128,-1,57
 182 1069 182 1069 229 1069 c 0,58,59
 240 1069 240 1069 250 1069.5 c 128,-1,60
 260 1070 260 1070 271.5 1070.5 c 128,-1,61
 283 1071 283 1071 297 1071.5 c 128,-1,62
 311 1072 311 1072 330 1072 c 1,63,64
 329 1058 329 1058 328.5 1046.5 c 128,-1,65
 328 1035 328 1035 327 1026 c 0,66,67
 326 1015 326 1015 325 1007 c 2,68,-1
 312 837 l 1,69,70
 307 830 307 830 289 800 c 128,-1,71
 271 770 271 770 246 731 c 128,-1,72
 221 692 221 692 194.5 651 c 128,-1,73
 168 610 168 610 147 581 c 0,74,75
 132 560 132 560 132 547 c 0,76,77
 132 528 132 528 168 523.5 c 128,-1,78
 204 519 204 519 288 519 c 1,79,-1
 281 435 l 1,80,81
 272 349 272 349 265 266 c 0,82,83
 262 231 262 231 259 193 c 128,-1,84
 256 155 256 155 254 118.5 c 128,-1,85
 252 82 252 82 250.5 48 c 128,-1,86
 249 14 249 14 249 -14 c 0,87,88
 249 -37 249 -37 265.5 -44.5 c 128,-1,89
 282 -52 282 -52 302 -52 c 0,90,91
 319 -52 319 -52 349 -43.5 c 128,-1,92
 379 -35 379 -35 415 -22.5 c 128,-1,93
 451 -10 451 -10 488 5 c 128,-1,94
 525 20 525 20 556 33 c 128,-1,95
 587 46 587 46 607.5 55.5 c 128,-1,96
 628 65 628 65 631 67 c 0,97,98
 639 72 639 72 643 80.5 c 128,-1,99
 647 89 647 89 648 98 c 2,100,-1
 684 524 l 1,101,102
 741 525 741 525 793.5 525.5 c 128,-1,103
 846 526 846 526 887 527 c 0,104,105
 935 528 935 528 976 529 c 0,106,107
 1005 529 1005 529 1014.5 537.5 c 128,-1,108
 1024 546 1024 546 1031 563 c 0,109,110
 1056 624 1056 624 1078 677 c 0,111,112
 1087 699 1087 699 1096 722 c 128,-1,113
 1105 745 1105 745 1113 764.5 c 128,-1,114
 1121 784 1121 784 1127 799 c 128,-1,115
 1133 814 1133 814 1135 822 c 0,0,1
EndSplineSet
EndChar

StartChar: G
Encoding: 262 71 6
Width: 1463
Flags: W
HStem: -52 305<706.476 979.705> 437 331<1333.44 1444.36> 1127 342<773.859 1119.25>
VStem: 125 454<411.539 901.709>
LayerCount: 2
Fore
SplineSet
125 646 m 0,0,1
 125 491 125 491 177 363 c 128,-1,2
 229 235 229 235 319.5 142.5 c 128,-1,3
 410 50 410 50 533 -1 c 128,-1,4
 656 -52 656 -52 797 -52 c 0,5,6
 876 -52 876 -52 937 -41 c 128,-1,7
 998 -30 998 -30 1053 -8.5 c 128,-1,8
 1108 13 1108 13 1163.5 45.5 c 128,-1,9
 1219 78 1219 78 1287 121 c 1,10,11
 1290 128 1290 128 1293.5 143 c 128,-1,12
 1297 158 1297 158 1300.5 178.5 c 128,-1,13
 1304 199 1304 199 1308 223.5 c 128,-1,14
 1312 248 1312 248 1316 272 c 0,15,16
 1325 328 1325 328 1334 397 c 0,17,18
 1336 411 1336 411 1339 424 c 128,-1,19
 1342 437 1342 437 1358 437 c 0,20,21
 1386 437 1386 437 1402 438.5 c 128,-1,22
 1418 440 1418 440 1427 448.5 c 128,-1,23
 1436 457 1436 457 1442 474.5 c 128,-1,24
 1448 492 1448 492 1457 524 c 2,25,-1
 1507 692 l 1,26,27
 1510 710 1510 710 1512 722.5 c 128,-1,28
 1514 735 1514 735 1514 744 c 0,29,30
 1514 762 1514 762 1503.5 765 c 128,-1,31
 1493 768 1493 768 1470 768 c 2,32,-1
 944 768 l 2,33,34
 924 768 924 768 909 759 c 128,-1,35
 894 750 894 750 880 715 c 128,-1,36
 866 680 866 680 850 611 c 128,-1,37
 834 542 834 542 812 421 c 1,38,-1
 1003 421 l 1,39,-1
 980 280 l 1,40,41
 900 253 900 253 837 253 c 0,42,43
 772 253 772 253 724 285 c 128,-1,44
 676 317 676 317 643.5 372.5 c 128,-1,45
 611 428 611 428 595 504 c 128,-1,46
 579 580 579 580 579 667 c 0,47,48
 579 766 579 766 605 850.5 c 128,-1,49
 631 935 631 935 678 996.5 c 128,-1,50
 725 1058 725 1058 792 1092.5 c 128,-1,51
 859 1127 859 1127 941 1127 c 0,52,53
 1003 1127 1003 1127 1055.5 1108.5 c 128,-1,54
 1108 1090 1108 1090 1150.5 1066.5 c 128,-1,55
 1193 1043 1193 1043 1225 1021.5 c 128,-1,56
 1257 1000 1257 1000 1278 994 c 0,57,58
 1291 991 1291 991 1300 991 c 0,59,60
 1316 991 1316 991 1320 998.5 c 128,-1,61
 1324 1006 1324 1006 1324 1012 c 0,62,63
 1324 1049 1324 1049 1321.5 1099.5 c 128,-1,64
 1319 1150 1319 1150 1315.5 1199 c 128,-1,65
 1312 1248 1312 1248 1309.5 1288 c 128,-1,66
 1307 1328 1307 1328 1307 1343 c 0,67,68
 1307 1350 1307 1350 1308 1350 c 1,69,70
 1271 1383 1271 1383 1213 1409 c 0,71,72
 1163 1432 1163 1432 1086 1450.5 c 128,-1,73
 1009 1469 1009 1469 899 1469 c 0,74,75
 788 1469 788 1469 687.5 1440 c 128,-1,76
 587 1411 587 1411 501 1357.5 c 128,-1,77
 415 1304 415 1304 345.5 1229.5 c 128,-1,78
 276 1155 276 1155 227 1063.5 c 128,-1,79
 178 972 178 972 151.5 866.5 c 128,-1,80
 125 761 125 761 125 646 c 0,0,1
EndSplineSet
EndChar

StartChar: H
Encoding: 263 72 7
Width: 1490
Flags: W
LayerCount: 2
Fore
SplineSet
1055 1292 m 0,0,1
 1055 1289 1055 1289 1054 1267 c 128,-1,2
 1053 1245 1053 1245 1050 1194 c 128,-1,3
 1047 1143 1047 1143 1041 1058.5 c 128,-1,4
 1035 974 1035 974 1026 846 c 1,5,-1
 663 842 l 1,6,7
 672 915 672 915 678 977 c 128,-1,8
 684 1039 684 1039 690 1102.5 c 128,-1,9
 696 1166 696 1166 702 1238.5 c 128,-1,10
 708 1311 708 1311 716 1404 c 1,11,12
 716 1430 716 1430 711 1438.5 c 128,-1,13
 706 1447 706 1447 692 1447 c 0,14,15
 686 1447 686 1447 679.5 1446 c 128,-1,16
 673 1445 673 1445 665 1443 c 2,17,-1
 325 1360 l 2,18,19
 314 1357 314 1357 308.5 1353 c 128,-1,20
 303 1349 303 1349 301 1341 c 128,-1,21
 299 1333 299 1333 298 1321.5 c 128,-1,22
 297 1310 297 1310 296 1292 c 0,23,24
 293 1263 293 1263 289.5 1222 c 128,-1,25
 286 1181 286 1181 283.5 1142.5 c 128,-1,26
 281 1104 281 1104 279.5 1076 c 128,-1,27
 278 1048 278 1048 278 1046 c 2,28,-1
 263 830 l 1,29,30
 257 821 257 821 237.5 790.5 c 128,-1,31
 218 760 218 760 193.5 721.5 c 128,-1,32
 169 683 169 683 142.5 643.5 c 128,-1,33
 116 604 116 604 96 576 c 0,34,35
 81 555 81 555 81 542 c 0,36,37
 81 523 81 523 117.5 518.5 c 128,-1,38
 154 514 154 514 235 514 c 1,39,-1
 233 485 l 1,40,41
 223 383 223 383 215 290 c 0,42,43
 212 250 212 250 208.5 207.5 c 128,-1,44
 205 165 205 165 203 125 c 128,-1,45
 201 85 201 85 199.5 49 c 128,-1,46
 198 13 198 13 198 -15 c 0,47,48
 198 -36 198 -36 208.5 -44 c 128,-1,49
 219 -52 219 -52 233 -52 c 0,50,51
 250 -52 250 -52 268 -46 c 128,-1,52
 286 -40 286 -40 297 -36 c 0,53,54
 313 -30 313 -30 339.5 -20.5 c 128,-1,55
 366 -11 366 -11 396.5 0 c 128,-1,56
 427 11 427 11 458.5 22 c 128,-1,57
 490 33 490 33 516.5 42.5 c 128,-1,58
 543 52 543 52 560.5 58.5 c 128,-1,59
 578 65 578 65 580 66 c 0,60,61
 591 71 591 71 593.5 79.5 c 128,-1,62
 596 88 596 88 597 97 c 2,63,-1
 635 518 l 1,64,-1
 1001 518 l 1,65,66
 999 504 999 504 999.5 492 c 128,-1,67
 1000 480 1000 480 998 466 c 0,68,69
 987 343 987 343 974.5 224 c 128,-1,70
 962 105 962 105 962 -16 c 0,71,72
 962 -37 962 -37 972.5 -44.5 c 128,-1,73
 983 -52 983 -52 997 -52 c 0,74,75
 1007 -52 1007 -52 1035 -44 c 128,-1,76
 1063 -36 1063 -36 1099 -24 c 128,-1,77
 1135 -12 1135 -12 1175 2.5 c 128,-1,78
 1215 17 1215 17 1250 30.5 c 128,-1,79
 1285 44 1285 44 1310.5 53.5 c 128,-1,80
 1336 63 1336 63 1343 66 c 0,81,82
 1353 70 1353 70 1356 79 c 128,-1,83
 1359 88 1359 88 1360 97 c 2,84,-1
 1404 573 l 2,85,86
 1412 664 1412 664 1419.5 737.5 c 128,-1,87
 1427 811 1427 811 1434 874.5 c 128,-1,88
 1441 938 1441 938 1447 996 c 128,-1,89
 1453 1054 1453 1054 1459 1116 c 128,-1,90
 1465 1178 1465 1178 1471 1247.5 c 128,-1,91
 1477 1317 1477 1317 1483 1404 c 1,92,93
 1483 1430 1483 1430 1478 1438.5 c 128,-1,94
 1473 1447 1473 1447 1459 1447 c 0,95,96
 1453 1447 1453 1447 1446.5 1446 c 128,-1,97
 1440 1445 1440 1445 1432 1443 c 2,98,-1
 1088 1360 l 2,99,100
 1068 1355 1068 1355 1061.5 1341.5 c 128,-1,101
 1055 1328 1055 1328 1055 1292 c 0,0,1
EndSplineSet
EndChar

StartChar: I
Encoding: 264 73 8
Width: 668
Flags: W
LayerCount: 2
Fore
SplineSet
139 -15 m 1,0,1
 139 -36 139 -36 149 -44 c 128,-1,2
 159 -52 159 -52 174 -52 c 0,3,4
 191 -52 191 -52 209 -46 c 128,-1,5
 227 -40 227 -40 238 -36 c 0,6,7
 254 -30 254 -30 280.5 -20.5 c 128,-1,8
 307 -11 307 -11 337.5 0 c 128,-1,9
 368 11 368 11 399.5 22 c 128,-1,10
 431 33 431 33 457.5 42.5 c 128,-1,11
 484 52 484 52 501 58.5 c 128,-1,12
 518 65 518 65 521 66 c 0,13,14
 532 71 532 71 534.5 79.5 c 128,-1,15
 537 88 537 88 538 97 c 2,16,-1
 585 592 l 2,17,18
 593 681 593 681 600 752.5 c 128,-1,19
 607 824 607 824 613.5 886 c 128,-1,20
 620 948 620 948 625.5 1005.5 c 128,-1,21
 631 1063 631 1063 636.5 1123.5 c 128,-1,22
 642 1184 642 1184 648 1252 c 128,-1,23
 654 1320 654 1320 661 1404 c 1,24,25
 661 1430 661 1430 656 1438.5 c 128,-1,26
 651 1447 651 1447 637 1447 c 0,27,28
 631 1447 631 1447 624.5 1446 c 128,-1,29
 618 1445 618 1445 610 1443 c 2,30,-1
 264 1360 l 2,31,32
 254 1358 254 1358 249 1353.5 c 128,-1,33
 244 1349 244 1349 241 1341.5 c 128,-1,34
 238 1334 238 1334 237 1322 c 128,-1,35
 236 1310 236 1310 235 1292 c 0,36,37
 235 1288 235 1288 232.5 1242 c 128,-1,38
 230 1196 230 1196 223.5 1099.5 c 128,-1,39
 217 1003 217 1003 205.5 851.5 c 128,-1,40
 194 700 194 700 176 485 c 1,41,42
 169 383 169 383 162 290 c 0,43,44
 159 250 159 250 155.5 207.5 c 128,-1,45
 152 165 152 165 149 125 c 128,-1,46
 146 85 146 85 143.5 49 c 128,-1,47
 141 13 141 13 139 -15 c 1,0,1
EndSplineSet
EndChar

StartChar: J
Encoding: 265 74 9
Width: 762
Flags: W
LayerCount: 2
Fore
SplineSet
269 414 m 1,0,1
 267 369 267 369 249.5 335.5 c 128,-1,2
 232 302 232 302 204.5 277 c 128,-1,3
 177 252 177 252 142 234.5 c 128,-1,4
 107 217 107 217 71 203 c 0,5,6
 67 201 67 201 60.5 194.5 c 128,-1,7
 54 188 54 188 54 186 c 2,8,-1
 87 -57 l 1,9,10
 93 -68 93 -68 95.5 -75.5 c 128,-1,11
 98 -83 98 -83 108.5 -87.5 c 128,-1,12
 119 -92 119 -92 143.5 -94 c 128,-1,13
 168 -96 168 -96 218 -96 c 0,14,15
 316 -96 316 -96 396.5 -49 c 128,-1,16
 477 -2 477 -2 536 77.5 c 128,-1,17
 595 157 595 157 630.5 261 c 128,-1,18
 666 365 666 365 673 479 c 1,19,20
 673 479 673 479 675.5 508 c 128,-1,21
 678 537 678 537 683 586 c 128,-1,22
 688 635 688 635 694 701 c 128,-1,23
 700 767 700 767 707 841 c 128,-1,24
 714 915 714 915 721.5 993 c 128,-1,25
 729 1071 729 1071 736 1145.5 c 128,-1,26
 743 1220 743 1220 749.5 1286.5 c 128,-1,27
 756 1353 756 1353 761 1404 c 1,28,29
 761 1429 761 1429 755.5 1438 c 128,-1,30
 750 1447 750 1447 736 1447 c 0,31,32
 731 1447 731 1447 724.5 1446 c 128,-1,33
 718 1445 718 1445 710 1443 c 2,34,-1
 364 1360 l 2,35,36
 354 1358 354 1358 349 1353.5 c 128,-1,37
 344 1349 344 1349 341 1341.5 c 128,-1,38
 338 1334 338 1334 337 1322 c 128,-1,39
 336 1310 336 1310 335 1292 c 2,40,-1
 269 414 l 1,0,1
EndSplineSet
EndChar

StartChar: K
Encoding: 266 75 10
Width: 1411
Flags: W
LayerCount: 2
Fore
SplineSet
660 1404 m 1,0,1
 660 1430 660 1430 655 1438.5 c 128,-1,2
 650 1447 650 1447 636 1447 c 0,3,4
 630 1447 630 1447 623.5 1446 c 128,-1,5
 617 1445 617 1445 609 1443 c 2,6,-1
 263 1360 l 2,7,8
 253 1358 253 1358 248 1353.5 c 128,-1,9
 243 1349 243 1349 241 1341.5 c 128,-1,10
 239 1334 239 1334 238 1322 c 128,-1,11
 237 1310 237 1310 236 1292 c 0,12,13
 213 975 213 975 194 708 c 0,14,15
 186 594 186 594 177.5 480 c 128,-1,16
 169 366 169 366 162 267.5 c 128,-1,17
 155 169 155 169 149.5 94.5 c 128,-1,18
 144 20 144 20 141 -15 c 1,19,20
 141 -36 141 -36 151 -44 c 128,-1,21
 161 -52 161 -52 176 -52 c 0,22,23
 193 -52 193 -52 211 -46 c 128,-1,24
 229 -40 229 -40 240 -36 c 2,25,-1
 523 66 l 2,26,27
 534 70 534 70 536.5 79 c 128,-1,28
 539 88 539 88 540 97 c 2,29,-1
 575 509 l 1,30,31
 583 517 583 517 592 524.5 c 128,-1,32
 601 532 601 532 609 540 c 1,33,34
 630 514 630 514 666 468.5 c 128,-1,35
 702 423 702 423 746 367.5 c 128,-1,36
 790 312 790 312 838.5 251 c 128,-1,37
 887 190 887 190 933 133.5 c 128,-1,38
 979 77 979 77 1018.5 29 c 128,-1,39
 1058 -19 1058 -19 1085 -49 c 0,40,41
 1104 -71 1104 -71 1120.5 -79 c 128,-1,42
 1137 -87 1137 -87 1151 -87 c 0,43,44
 1166 -87 1166 -87 1192 -77 c 128,-1,45
 1218 -67 1218 -67 1250 -51.5 c 128,-1,46
 1282 -36 1282 -36 1315.5 -17 c 128,-1,47
 1349 2 1349 2 1378.5 20.5 c 128,-1,48
 1408 39 1408 39 1430 54 c 128,-1,49
 1452 69 1452 69 1460 77 c 0,50,51
 1473 90 1473 90 1473 96 c 256,52,53
 1473 102 1473 102 1467 105 c 128,-1,54
 1461 108 1461 108 1453.5 111 c 128,-1,55
 1446 114 1446 114 1438 118 c 128,-1,56
 1430 122 1430 122 1425 128 c 2,57,-1
 1084 518 l 2,58,59
 1071 532 1071 532 1044.5 560 c 128,-1,60
 1018 588 1018 588 985.5 622.5 c 128,-1,61
 953 657 953 657 917.5 694.5 c 128,-1,62
 882 732 882 732 851 764 c 1,63,64
 902 811 902 811 943.5 849 c 128,-1,65
 985 887 985 887 1015 916 c 0,66,67
 1050 949 1050 949 1078 976 c 1,68,69
 1084 984 1084 984 1107.5 1012 c 128,-1,70
 1131 1040 1131 1040 1164 1078.5 c 128,-1,71
 1197 1117 1197 1117 1235.5 1162.5 c 128,-1,72
 1274 1208 1274 1208 1310 1250.5 c 128,-1,73
 1346 1293 1346 1293 1376.5 1328.5 c 128,-1,74
 1407 1364 1407 1364 1423 1383 c 0,75,76
 1436 1398 1436 1398 1442.5 1407.5 c 128,-1,77
 1449 1417 1449 1417 1449 1424 c 0,78,79
 1449 1436 1449 1436 1426 1436 c 0,80,81
 1422 1436 1422 1436 1418 1436 c 128,-1,82
 1414 1436 1414 1436 1409 1435 c 2,83,-1
 965 1398 l 1,84,85
 964 1396 964 1396 951 1379.5 c 128,-1,86
 938 1363 938 1363 917 1337.5 c 128,-1,87
 896 1312 896 1312 870.5 1280 c 128,-1,88
 845 1248 845 1248 818 1215 c 0,89,90
 755 1137 755 1137 676 1039 c 1,91,-1
 625 987 l 1,92,93
 628 1025 628 1025 633 1085 c 128,-1,94
 638 1145 638 1145 643 1207 c 128,-1,95
 648 1269 648 1269 652.5 1323 c 128,-1,96
 657 1377 657 1377 660 1404 c 1,0,1
EndSplineSet
EndChar

StartChar: L
Encoding: 267 76 11
Width: 1022
Flags: W
VStem: 242 394<621.641 1291.87>
LayerCount: 2
Fore
SplineSet
670 1404 m 0,0,1
 670 1407 670 1407 670.5 1410.5 c 128,-1,2
 671 1414 671 1414 671 1416 c 0,3,4
 671 1434 671 1434 666.5 1440.5 c 128,-1,5
 662 1447 662 1447 651 1447 c 0,6,7
 645 1447 645 1447 638.5 1446 c 128,-1,8
 632 1445 632 1445 624 1443 c 2,9,-1
 273 1360 l 2,10,11
 263 1358 263 1358 258 1353.5 c 128,-1,12
 253 1349 253 1349 250.5 1341.5 c 128,-1,13
 248 1334 248 1334 247 1322 c 128,-1,14
 246 1310 246 1310 244 1292 c 0,15,16
 244 1288 244 1288 242 1245 c 128,-1,17
 240 1202 240 1202 234 1109 c 128,-1,18
 228 1016 228 1016 217 868 c 128,-1,19
 206 720 206 720 187 506 c 1,20,-1
 160 149 l 1,21,22
 139 107 139 107 122 70 c 0,23,24
 108 38 108 38 96 8 c 128,-1,25
 84 -22 84 -22 84 -35 c 0,26,27
 84 -44 84 -44 95.5 -48 c 128,-1,28
 107 -52 107 -52 133 -52 c 0,29,30
 171 -51 171 -51 233.5 -49 c 128,-1,31
 296 -47 296 -47 369 -44 c 128,-1,32
 442 -41 442 -41 519.5 -38 c 128,-1,33
 597 -35 597 -35 666 -31.5 c 128,-1,34
 735 -28 735 -28 790 -24.5 c 128,-1,35
 845 -21 845 -21 872 -18 c 256,36,37
 899 -15 899 -15 917.5 -7.5 c 128,-1,38
 936 0 936 0 948.5 12 c 128,-1,39
 961 24 961 24 969.5 40 c 128,-1,40
 978 56 978 56 987 77 c 0,41,42
 994 94 994 94 1005 127 c 128,-1,43
 1016 160 1016 160 1027 193 c 128,-1,44
 1038 226 1038 226 1046.5 252 c 128,-1,45
 1055 278 1055 278 1055 280 c 0,46,47
 1060 297 1060 297 1060 304 c 0,48,49
 1060 323 1060 323 1027 323 c 0,50,51
 1009 323 1009 323 981 320 c 2,52,-1
 567 278 l 1,53,54
 582 451 582 451 595 588 c 128,-1,55
 608 725 608 725 617 823 c 0,56,57
 628 937 628 937 636 1025 c 0,58,59
 636 1032 636 1032 638.5 1056.5 c 128,-1,60
 641 1081 641 1081 644.5 1115 c 128,-1,61
 648 1149 648 1149 652 1189.5 c 128,-1,62
 656 1230 656 1230 659.5 1269.5 c 128,-1,63
 663 1309 663 1309 666 1344.5 c 128,-1,64
 669 1380 669 1380 670 1404 c 0,0,1
EndSplineSet
EndChar

StartChar: M
Encoding: 268 77 12
Width: 1729
Flags: W
LayerCount: 2
Fore
SplineSet
1125 1368 m 1,0,-1
 900 809 l 1,1,-1
 653 1433 l 1,2,3
 650 1447 650 1447 639.5 1449.5 c 128,-1,4
 629 1452 629 1452 615 1452 c 1,5,-1
 365 1375 l 1,6,7
 365 1373 365 1373 362 1358 c 128,-1,8
 359 1343 359 1343 354 1319 c 128,-1,9
 349 1295 349 1295 342.5 1265.5 c 128,-1,10
 336 1236 336 1236 329 1205 c 0,11,12
 313 1133 313 1133 292 1043 c 2,13,-1
 169 489 l 2,14,15
 150 405 150 405 132 329 c 0,16,17
 124 297 124 297 116 263 c 128,-1,18
 108 229 108 229 100 197.5 c 128,-1,19
 92 166 92 166 85 138 c 128,-1,20
 78 110 78 110 72 91 c 0,21,22
 69 80 69 80 69 72 c 0,23,24
 69 56 69 56 76.5 48.5 c 128,-1,25
 84 41 84 41 89 39 c 0,26,27
 112 29 112 29 149 13.5 c 128,-1,28
 186 -2 186 -2 225 -16 c 128,-1,29
 264 -30 264 -30 300.5 -40.5 c 128,-1,30
 337 -51 337 -51 359 -51 c 256,31,32
 381 -51 381 -51 384 -39 c 2,33,-1
 523 555 l 2,34,35
 526 569 526 569 534.5 608.5 c 128,-1,36
 543 648 543 648 554 699 c 1,37,38
 576 611 576 611 591.5 550.5 c 128,-1,39
 607 490 607 490 619.5 445.5 c 128,-1,40
 632 401 632 401 642 367 c 128,-1,41
 652 333 652 333 663.5 297 c 128,-1,42
 675 261 675 261 688.5 217.5 c 128,-1,43
 702 174 702 174 721 111 c 0,44,45
 726 92 726 92 739.5 79 c 128,-1,46
 753 66 753 66 773 66 c 0,47,48
 788 66 788 66 805 76.5 c 128,-1,49
 822 87 822 87 839 111 c 1,50,-1
 1210 790 l 1,51,-1
 1249 498 l 1,52,53
 1260 394 1260 394 1271 297 c 0,54,55
 1276 256 1276 256 1281.5 212 c 128,-1,56
 1287 168 1287 168 1293 126.5 c 128,-1,57
 1299 85 1299 85 1305.5 47.5 c 128,-1,58
 1312 10 1312 10 1318 -18 c 0,59,60
 1323 -39 1323 -39 1334 -46.5 c 128,-1,61
 1345 -54 1345 -54 1359 -54 c 0,62,63
 1376 -54 1376 -54 1393 -48 c 128,-1,64
 1410 -42 1410 -42 1421 -39 c 0,65,66
 1451 -31 1451 -31 1493.5 -15.5 c 128,-1,67
 1536 0 1536 0 1575.5 16.5 c 128,-1,68
 1615 33 1615 33 1643.5 46 c 128,-1,69
 1672 59 1672 59 1673 63 c 2,70,-1
 1683 94 l 1,71,-1
 1616 605 l 2,72,73
 1615 615 1615 615 1611.5 638.5 c 128,-1,74
 1608 662 1608 662 1603.5 693.5 c 128,-1,75
 1599 725 1599 725 1594 762 c 128,-1,76
 1589 799 1589 799 1583 836 c 0,77,78
 1570 923 1570 923 1553 1027 c 0,79,80
 1552 1034 1552 1034 1548 1059.5 c 128,-1,81
 1544 1085 1544 1085 1539 1120.5 c 128,-1,82
 1534 1156 1534 1156 1527.5 1198 c 128,-1,83
 1521 1240 1521 1240 1515.5 1279.5 c 128,-1,84
 1510 1319 1510 1319 1505.5 1351.5 c 128,-1,85
 1501 1384 1501 1384 1499 1402 c 0,86,87
 1495 1431 1495 1431 1484 1442.5 c 128,-1,88
 1473 1454 1473 1454 1455 1454 c 0,89,90
 1451 1454 1451 1454 1446.5 1453.5 c 128,-1,91
 1442 1453 1442 1453 1437 1452 c 2,92,-1
 1125 1368 l 1,0,-1
EndSplineSet
EndChar

StartChar: N
Encoding: 269 78 13
Width: 1379
Flags: W
LayerCount: 2
Fore
SplineSet
991 591 m 1,0,-1
 506 1472 l 2,1,2
 498 1486 498 1486 491 1488 c 128,-1,3
 484 1490 484 1490 471 1490 c 0,4,5
 469 1490 469 1490 466.5 1489.5 c 128,-1,6
 464 1489 464 1489 462 1489 c 0,7,8
 459 1488 459 1488 457 1488 c 2,9,-1
 190 1337 l 2,10,11
 173 1327 173 1327 165.5 1321 c 128,-1,12
 158 1315 158 1315 158 1308 c 0,13,14
 158 1304 158 1304 164.5 1291 c 128,-1,15
 171 1278 171 1278 180.5 1260.5 c 128,-1,16
 190 1243 190 1243 201 1224.5 c 128,-1,17
 212 1206 212 1206 221 1190 c 128,-1,18
 230 1174 230 1174 235.5 1163.5 c 128,-1,19
 241 1153 241 1153 239 1153 c 1,20,21
 233 1030 233 1030 223 884 c 128,-1,22
 213 738 213 738 201 584.5 c 128,-1,23
 189 431 189 431 176 277.5 c 128,-1,24
 163 124 163 124 151 -14 c 1,25,26
 151 -35 151 -35 161 -43 c 128,-1,27
 171 -51 171 -51 186 -51 c 0,28,29
 194 -51 194 -51 216.5 -45 c 128,-1,30
 239 -39 239 -39 268 -29 c 128,-1,31
 297 -19 297 -19 329.5 -7.5 c 128,-1,32
 362 4 362 4 391.5 14.5 c 128,-1,33
 421 25 421 25 443.5 34 c 128,-1,34
 466 43 466 43 474 46 c 0,35,36
 485 51 485 51 487.5 59.5 c 128,-1,37
 490 68 490 68 491 77 c 2,38,-1
 533 677 l 1,39,-1
 997 -52 l 2,40,41
 997 -53 997 -53 1013 -44 c 128,-1,42
 1029 -35 1029 -35 1054 -20 c 128,-1,43
 1079 -5 1079 -5 1108.5 13 c 128,-1,44
 1138 31 1138 31 1166 48 c 128,-1,45
 1194 65 1194 65 1217 79 c 128,-1,46
 1240 93 1240 93 1250 99 c 0,47,48
 1268 111 1268 111 1278.5 119.5 c 128,-1,49
 1289 128 1289 128 1295 135 c 128,-1,50
 1301 142 1301 142 1302.5 149.5 c 128,-1,51
 1304 157 1304 157 1304 168 c 0,52,53
 1304 177 1304 177 1303.5 188.5 c 128,-1,54
 1303 200 1303 200 1303 217 c 0,55,56
 1303 224 1303 224 1303 232 c 128,-1,57
 1303 240 1303 240 1304 249 c 0,58,59
 1307 323 1307 323 1310 411.5 c 128,-1,60
 1313 500 1313 500 1315.5 592 c 128,-1,61
 1318 684 1318 684 1319.5 775 c 128,-1,62
 1321 866 1321 866 1321 945 c 0,63,64
 1321 964 1321 964 1321 1000 c 128,-1,65
 1321 1036 1321 1036 1321.5 1081 c 128,-1,66
 1322 1126 1322 1126 1323.5 1174.5 c 128,-1,67
 1325 1223 1325 1223 1327 1268 c 128,-1,68
 1329 1313 1329 1313 1332.5 1349 c 128,-1,69
 1336 1385 1336 1385 1341 1404 c 1,70,71
 1341 1429 1341 1429 1335 1438 c 128,-1,72
 1329 1447 1329 1447 1316 1447 c 0,73,74
 1311 1447 1311 1447 1304.5 1446 c 128,-1,75
 1298 1445 1298 1445 1290 1443 c 2,76,-1
 1031 1382 l 2,77,78
 1010 1377 1010 1377 1006.5 1363 c 128,-1,79
 1003 1349 1003 1349 1002 1314 c 2,80,-1
 991 591 l 1,0,-1
EndSplineSet
EndChar

StartChar: O
Encoding: 270 79 14
Width: 1616
Flags: W
HStem: -52 308<710.128 1007.49> 1155 379<756.463 1047.92> 1155 257<722 895>
VStem: 120 441<431.32 911.268> 1197 422<511.306 987.863>
LayerCount: 2
Fore
SplineSet
561 682 m 1,0,1
 562 725 562 725 570.5 777 c 128,-1,2
 579 829 579 829 595.5 882 c 128,-1,3
 612 935 612 935 638 984 c 128,-1,4
 664 1033 664 1033 701 1071 c 128,-1,5
 738 1109 738 1109 786 1132 c 128,-1,6
 834 1155 834 1155 895 1155 c 0,7,8
 972 1155 972 1155 1029 1123 c 128,-1,9
 1086 1091 1086 1091 1123.5 1037.5 c 128,-1,10
 1161 984 1161 984 1179 915 c 128,-1,11
 1197 846 1197 846 1197 771 c 0,12,13
 1197 717 1197 717 1190.5 659 c 128,-1,14
 1184 601 1184 601 1169.5 546 c 128,-1,15
 1155 491 1155 491 1130.5 440.5 c 128,-1,16
 1106 390 1106 390 1069.5 351 c 128,-1,17
 1033 312 1033 312 983.5 286.5 c 128,-1,18
 934 261 934 261 869 256 c 1,19,20
 779 256 779 256 719.5 294 c 128,-1,21
 660 332 660 332 624.5 393 c 128,-1,22
 589 454 589 454 575 530 c 128,-1,23
 561 606 561 606 561 682 c 1,0,1
756 -52 m 0,24,25
 875 -52 875 -52 985.5 -24.5 c 128,-1,26
 1096 3 1096 3 1192 55 c 128,-1,27
 1288 107 1288 107 1366.5 181.5 c 128,-1,28
 1445 256 1445 256 1501.5 350.5 c 128,-1,29
 1558 445 1558 445 1588.5 557 c 128,-1,30
 1619 669 1619 669 1619 796 c 0,31,32
 1619 982 1619 982 1559.5 1113.5 c 128,-1,33
 1500 1245 1500 1245 1390.5 1332 c 128,-1,34
 1281 1419 1281 1419 1127 1467 c 128,-1,35
 973 1515 973 1515 784 1534 c 1,36,37
 771 1534 771 1534 764 1515 c 128,-1,38
 757 1496 757 1496 752 1473 c 128,-1,39
 747 1450 747 1450 740.5 1431 c 128,-1,40
 734 1412 734 1412 722 1412 c 1,41,42
 595 1380 595 1380 485 1312 c 128,-1,43
 375 1244 375 1244 294 1145 c 128,-1,44
 213 1046 213 1046 166.5 919 c 128,-1,45
 120 792 120 792 120 642 c 0,46,47
 120 502 120 502 163.5 376.5 c 128,-1,48
 207 251 207 251 288.5 155.5 c 128,-1,49
 370 60 370 60 488 4 c 128,-1,50
 606 -52 606 -52 756 -52 c 0,24,25
EndSplineSet
EndChar

StartChar: P
Encoding: 271 80 15
Width: 1342
Flags: W
HStem: 438 273<674.128 832.88> 1134 312<703.719 770.5 801 925.977>
VStem: 976 424<849.931 1097.48>
LayerCount: 2
Fore
SplineSet
1400 1003 m 0,0,1
 1400 1132 1400 1132 1354.5 1217.5 c 128,-1,2
 1309 1303 1309 1303 1232 1353.5 c 128,-1,3
 1155 1404 1155 1404 1053 1425 c 128,-1,4
 951 1446 951 1446 837 1446 c 0,5,6
 791 1446 791 1446 739 1442.5 c 128,-1,7
 687 1439 687 1439 633.5 1433.5 c 128,-1,8
 580 1428 580 1428 528.5 1420.5 c 128,-1,9
 477 1413 477 1413 432.5 1405.5 c 128,-1,10
 388 1398 388 1398 353 1391 c 128,-1,11
 318 1384 318 1384 299 1378 c 0,12,13
 275 1371 275 1371 258.5 1366.5 c 128,-1,14
 242 1362 242 1362 231.5 1356 c 128,-1,15
 221 1350 221 1350 214.5 1340.5 c 128,-1,16
 208 1331 208 1331 203 1313 c 0,17,18
 195 1284 195 1284 183 1241 c 128,-1,19
 171 1198 171 1198 160.5 1158.5 c 128,-1,20
 150 1119 150 1119 142.5 1090.5 c 128,-1,21
 135 1062 135 1062 135 1063 c 1,22,23
 135 1045 135 1045 156 1045 c 0,24,25
 173 1045 173 1045 206 1050.5 c 128,-1,26
 239 1056 239 1056 292 1068 c 1,27,28
 286 979 286 979 277 862 c 128,-1,29
 268 745 268 745 256 595 c 0,30,31
 246 471 246 471 237 356 c 0,32,33
 233 307 233 307 229 255 c 128,-1,34
 225 203 225 203 221.5 153.5 c 128,-1,35
 218 104 218 104 215 60 c 128,-1,36
 212 16 212 16 210 -18 c 1,37,38
 210 -38 210 -38 218 -45 c 128,-1,39
 226 -52 226 -52 240 -52 c 0,40,41
 257 -52 257 -52 276.5 -48 c 128,-1,42
 296 -44 296 -44 309 -39 c 0,43,44
 328 -32 328 -32 356 -22.5 c 128,-1,45
 384 -13 384 -13 415.5 -2.5 c 128,-1,46
 447 8 447 8 478.5 18.5 c 128,-1,47
 510 29 510 29 535 38 c 128,-1,48
 560 47 560 47 575.5 54 c 128,-1,49
 591 61 591 61 592 63 c 2,50,-1
 609 94 l 1,51,-1
 642 442 l 1,52,53
 662 440 662 440 681.5 439 c 128,-1,54
 701 438 701 438 721 438 c 0,55,56
 800 438 800 438 881 454.5 c 128,-1,57
 962 471 962 471 1037.5 503 c 128,-1,58
 1113 535 1113 535 1179 583 c 128,-1,59
 1245 631 1245 631 1294 693.5 c 128,-1,60
 1343 756 1343 756 1371.5 833.5 c 128,-1,61
 1400 911 1400 911 1400 1003 c 0,0,1
670 739 m 0,62,63
 672 761 672 761 675.5 796 c 128,-1,64
 679 831 679 831 683 871.5 c 128,-1,65
 687 912 687 912 691 953 c 128,-1,66
 695 994 695 994 698 1027 c 128,-1,67
 701 1060 701 1060 703 1081.5 c 128,-1,68
 705 1103 705 1103 705 1103 c 2,69,70
 706 1112 706 1112 716 1117.5 c 128,-1,71
 726 1123 726 1123 740 1127 c 128,-1,72
 754 1131 754 1131 770.5 1132.5 c 128,-1,73
 787 1134 787 1134 801 1134 c 0,74,75
 879 1134 879 1134 927.5 1101 c 128,-1,76
 976 1068 976 1068 976 998 c 0,77,78
 976 950 976 950 961.5 910 c 128,-1,79
 947 870 947 870 923.5 838 c 128,-1,80
 900 806 900 806 870 782 c 128,-1,81
 840 758 840 758 808.5 742.5 c 128,-1,82
 777 727 777 727 747.5 719 c 128,-1,83
 718 711 718 711 696 711 c 0,84,85
 678 711 678 711 674 719.5 c 128,-1,86
 670 728 670 728 670 739 c 0,62,63
EndSplineSet
EndChar

StartChar: Q
Encoding: 272 81 16
Width: 1629
Flags: W
HStem: -52 308<726.982 908.67> 1175 293<745.566 1038.57>
VStem: 125 441<444.147 937.935> 1200 422<483.737 987.227>
LayerCount: 2
Fore
SplineSet
780 -52 m 0,0,1
 878 -52 878 -52 969 -32.5 c 128,-1,2
 1060 -13 1060 -13 1143 22 c 1,3,-1
 1266 -101 l 2,4,5
 1271 -106 1271 -106 1277.5 -110.5 c 128,-1,6
 1284 -115 1284 -115 1292 -115 c 0,7,8
 1294 -115 1294 -115 1313 -106 c 128,-1,9
 1332 -97 1332 -97 1359 -83 c 128,-1,10
 1386 -69 1386 -69 1417 -51 c 128,-1,11
 1448 -33 1448 -33 1474.5 -15 c 128,-1,12
 1501 3 1501 3 1518.5 19 c 128,-1,13
 1536 35 1536 35 1536 45 c 0,14,15
 1536 52 1536 52 1526 67.5 c 128,-1,16
 1516 83 1516 83 1499 104 c 128,-1,17
 1482 125 1482 125 1459 151 c 128,-1,18
 1436 177 1436 177 1409 206 c 1,19,20
 1509 312 1509 312 1565.5 452.5 c 128,-1,21
 1622 593 1622 593 1622 764 c 0,22,23
 1622 911 1622 911 1573 1039.5 c 128,-1,24
 1524 1168 1524 1168 1436 1263.5 c 128,-1,25
 1348 1359 1348 1359 1226 1413.5 c 128,-1,26
 1104 1468 1104 1468 957 1468 c 0,27,28
 845 1468 845 1468 740 1442 c 128,-1,29
 635 1416 635 1416 542.5 1367 c 128,-1,30
 450 1318 450 1318 373 1247.5 c 128,-1,31
 296 1177 296 1177 241 1088 c 128,-1,32
 186 999 186 999 155.5 892.5 c 128,-1,33
 125 786 125 786 125 665 c 0,34,35
 125 522 125 522 170 392 c 128,-1,36
 215 262 215 262 300 163.5 c 128,-1,37
 385 65 385 65 506 6.5 c 128,-1,38
 627 -52 627 -52 780 -52 c 0,0,1
566 682 m 0,39,40
 566 727 566 727 573 781.5 c 128,-1,41
 580 836 580 836 595 890.5 c 128,-1,42
 610 945 610 945 635 996.5 c 128,-1,43
 660 1048 660 1048 695.5 1087.5 c 128,-1,44
 731 1127 731 1127 778.5 1151 c 128,-1,45
 826 1175 826 1175 887 1175 c 0,46,47
 966 1175 966 1175 1025 1140 c 128,-1,48
 1084 1105 1084 1105 1123 1046.5 c 128,-1,49
 1162 988 1162 988 1181 912.5 c 128,-1,50
 1200 837 1200 837 1200 756 c 0,51,52
 1200 684 1200 684 1189.5 609 c 128,-1,53
 1179 534 1179 534 1153 467 c 1,54,55
 1129 491 1129 491 1116.5 507 c 128,-1,56
 1104 523 1104 523 1095 523 c 0,57,58
 1091 523 1091 523 1085 520 c 2,59,-1
 852 403 l 2,60,61
 824 389 824 389 824 369 c 0,62,63
 824 363 824 363 831 351.5 c 128,-1,64
 838 340 838 340 850 325 c 128,-1,65
 862 310 862 310 877 293 c 128,-1,66
 892 276 892 276 909 259 c 1,67,68
 903 258 903 258 897 257 c 128,-1,69
 891 256 891 256 885 256 c 0,70,71
 796 256 796 256 735 294 c 128,-1,72
 674 332 674 332 636.5 393 c 128,-1,73
 599 454 599 454 582.5 530 c 128,-1,74
 566 606 566 606 566 682 c 0,39,40
EndSplineSet
EndChar

StartChar: R
Encoding: 273 82 17
Width: 1473
Flags: W
HStem: 1110 20G<335 342> 1189 279<759.407 817 854 984.5>
VStem: 1028 389<913.619 1145.88>
LayerCount: 2
Fore
SplineSet
707 634 m 1,0,-1
 1005 -15 l 2,1,2
 1009 -23 1009 -23 1014.5 -35.5 c 128,-1,3
 1020 -48 1020 -48 1029 -60 c 128,-1,4
 1038 -72 1038 -72 1051 -80.5 c 128,-1,5
 1064 -89 1064 -89 1082 -89 c 0,6,7
 1091 -89 1091 -89 1101.5 -86.5 c 128,-1,8
 1112 -84 1112 -84 1124 -77 c 0,9,10
 1170 -52 1170 -52 1206.5 -34 c 128,-1,11
 1243 -16 1243 -16 1273 -2.5 c 128,-1,12
 1303 11 1303 11 1329 22 c 128,-1,13
 1355 33 1355 33 1379 45 c 0,14,15
 1391 51 1391 51 1413.5 61 c 128,-1,16
 1436 71 1436 71 1458 82 c 128,-1,17
 1480 93 1480 93 1496.5 103.5 c 128,-1,18
 1513 114 1513 114 1513 122 c 0,19,20
 1513 133 1513 133 1500 134.5 c 128,-1,21
 1487 136 1487 136 1468 136.5 c 128,-1,22
 1449 137 1449 137 1427 140.5 c 128,-1,23
 1405 144 1405 144 1388 159 c 1,24,25
 1319 281 1319 281 1270.5 367.5 c 128,-1,26
 1222 454 1222 454 1188.5 512 c 128,-1,27
 1155 570 1155 570 1135 604 c 128,-1,28
 1115 638 1115 638 1104.5 656 c 128,-1,29
 1094 674 1094 674 1091 679.5 c 128,-1,30
 1088 685 1088 685 1088 687 c 1,31,32
 1097 691 1097 691 1125 704.5 c 128,-1,33
 1153 718 1153 718 1189.5 740.5 c 128,-1,34
 1226 763 1226 763 1266 794.5 c 128,-1,35
 1306 826 1306 826 1339.5 866.5 c 128,-1,36
 1373 907 1373 907 1395 957 c 128,-1,37
 1417 1007 1417 1007 1417 1067 c 0,38,39
 1417 1179 1417 1179 1370.5 1255.5 c 128,-1,40
 1324 1332 1324 1332 1247.5 1379.5 c 128,-1,41
 1171 1427 1171 1427 1072.5 1447.5 c 128,-1,42
 974 1468 974 1468 870 1468 c 0,43,44
 758 1468 758 1468 653.5 1457 c 128,-1,45
 549 1446 549 1446 467 1433 c 0,46,47
 371 1417 371 1417 286 1398 c 1,48,-1
 124 1115 l 2,49,50
 122 1113 122 1113 122 1109 c 0,51,52
 122 1104 122 1104 129.5 1100.5 c 128,-1,53
 137 1097 137 1097 145 1097 c 1,54,55
 178 1102 178 1102 209.5 1108 c 128,-1,56
 241 1114 241 1114 267 1119 c 128,-1,57
 293 1124 293 1124 312 1127 c 128,-1,58
 331 1130 331 1130 339 1130 c 0,59,60
 345 1130 345 1130 345 1128 c 0,61,62
 340 1070 340 1070 334.5 994.5 c 128,-1,63
 329 919 329 919 322 835 c 128,-1,64
 315 751 315 751 308.5 664 c 128,-1,65
 302 577 302 577 296 495 c 128,-1,66
 290 413 290 413 285 341.5 c 128,-1,67
 280 270 280 270 277 218 c 0,68,69
 273 154 273 154 266 96 c 128,-1,70
 259 38 259 38 259 -19 c 0,71,72
 259 -38 259 -38 269.5 -45 c 128,-1,73
 280 -52 280 -52 294 -52 c 0,74,75
 311 -52 311 -52 329 -46 c 128,-1,76
 347 -40 347 -40 358 -36 c 0,77,78
 374 -30 374 -30 400.5 -20.5 c 128,-1,79
 427 -11 427 -11 457.5 0 c 128,-1,80
 488 11 488 11 519.5 22 c 128,-1,81
 551 33 551 33 577.5 42.5 c 128,-1,82
 604 52 604 52 621.5 58.5 c 128,-1,83
 639 65 639 65 641 66 c 0,84,85
 652 71 652 71 654.5 79.5 c 128,-1,86
 657 88 657 88 658 97 c 2,87,-1
 707 634 l 1,0,-1
759 1178 m 1,88,89
 772 1180 772 1180 787 1183 c 0,90,91
 800 1185 800 1185 817 1187 c 128,-1,92
 834 1189 834 1189 854 1189 c 0,93,94
 1028 1189 1028 1189 1028 1016 c 0,95,96
 1028 978 1028 978 999.5 933 c 128,-1,97
 971 888 971 888 926 849 c 128,-1,98
 881 810 881 810 826 783.5 c 128,-1,99
 771 757 771 757 719 757 c 1,100,-1
 759 1178 l 1,88,89
EndSplineSet
EndChar

StartChar: S
Encoding: 274 83 18
Width: 1099
Flags: W
HStem: -52 325<286.052 594.625> 1160 308<601.219 881.275>
VStem: 159 419<951.154 1135.71> 615 465<299.116 448.898>
LayerCount: 2
Fore
SplineSet
175 15 m 1,0,1
 213 -9 213 -9 255 -22.5 c 128,-1,2
 297 -36 297 -36 342 -42.5 c 128,-1,3
 387 -49 387 -49 434.5 -50.5 c 128,-1,4
 482 -52 482 -52 531 -52 c 0,5,6
 594 -52 594 -52 659.5 -36.5 c 128,-1,7
 725 -21 725 -21 786 8.5 c 128,-1,8
 847 38 847 38 900.5 79.5 c 128,-1,9
 954 121 954 121 994 173.5 c 128,-1,10
 1034 226 1034 226 1057 288 c 128,-1,11
 1080 350 1080 350 1080 420 c 0,12,13
 1080 463 1080 463 1071.5 508 c 128,-1,14
 1063 553 1063 553 1040 598.5 c 128,-1,15
 1017 644 1017 644 976 690.5 c 128,-1,16
 935 737 935 737 869 784 c 1,17,-1
 629 947 l 2,18,19
 595 969 595 969 586.5 994 c 128,-1,20
 578 1019 578 1019 578 1053 c 0,21,22
 578 1085 578 1085 591.5 1106 c 128,-1,23
 605 1127 605 1127 627 1139 c 128,-1,24
 649 1151 649 1151 676 1155.5 c 128,-1,25
 703 1160 703 1160 730 1160 c 0,26,27
 775 1160 775 1160 813.5 1147 c 128,-1,28
 852 1134 852 1134 886 1112.5 c 128,-1,29
 920 1091 920 1091 951 1063 c 128,-1,30
 982 1035 982 1035 1011 1006 c 0,31,32
 1017 1000 1017 1000 1028 1000 c 256,33,34
 1039 1000 1039 1000 1046 1005.5 c 128,-1,35
 1053 1011 1053 1011 1053 1028 c 0,36,37
 1048 1115 1048 1115 1045 1194 c 128,-1,38
 1042 1273 1042 1273 1037 1354 c 0,39,40
 1036 1371 1036 1371 1029 1379 c 128,-1,41
 1022 1387 1022 1387 1011 1395 c 0,42,43
 978 1417 978 1417 938 1431.5 c 128,-1,44
 898 1446 898 1446 859.5 1454 c 128,-1,45
 821 1462 821 1462 789 1465 c 128,-1,46
 757 1468 757 1468 741 1468 c 0,47,48
 610 1468 610 1468 503 1433.5 c 128,-1,49
 396 1399 396 1399 319.5 1340.5 c 128,-1,50
 243 1282 243 1282 201 1203 c 128,-1,51
 159 1124 159 1124 159 1036 c 0,52,53
 159 977 159 977 164 924.5 c 128,-1,54
 169 872 169 872 187 823 c 128,-1,55
 205 774 205 774 239.5 729 c 128,-1,56
 274 684 274 684 333 640 c 1,57,58
 342 632 342 632 360 617 c 128,-1,59
 378 602 378 602 401 583.5 c 128,-1,60
 424 565 424 565 448.5 545 c 128,-1,61
 473 525 473 525 496 506.5 c 128,-1,62
 519 488 519 488 537 474 c 128,-1,63
 555 460 555 460 564 454 c 0,64,65
 587 438 587 438 601 415 c 128,-1,66
 615 392 615 392 615 363 c 0,67,68
 615 337 615 337 598.5 320 c 128,-1,69
 582 303 582 303 558 292.5 c 128,-1,70
 534 282 534 282 507 277.5 c 128,-1,71
 480 273 480 273 459 273 c 0,72,73
 381 273 381 273 314.5 303.5 c 128,-1,74
 248 334 248 334 195 384 c 1,75,76
 184 393 184 393 175 393 c 0,77,78
 167 393 167 393 162 388.5 c 128,-1,79
 157 384 157 384 157 376 c 0,80,81
 157 375 157 375 157.5 374 c 128,-1,82
 158 373 158 373 158 372 c 2,83,-1
 175 15 l 1,0,1
EndSplineSet
EndChar

StartChar: T
Encoding: 275 84 19
Width: 1159
Flags: W
HStem: 1057 392<848.375 1186.99>
LayerCount: 2
Fore
SplineSet
358 -15 m 1,0,-1
 358 -19 l 2,1,2
 358 -38 358 -38 368.5 -45 c 128,-1,3
 379 -52 379 -52 393 -52 c 0,4,5
 410 -52 410 -52 428 -46 c 128,-1,6
 446 -40 446 -40 457 -36 c 2,7,-1
 740 66 l 2,8,9
 751 70 751 70 753.5 79 c 128,-1,10
 756 88 756 88 757 97 c 2,11,-1
 804 592 l 2,12,13
 812 678 812 678 818.5 743 c 128,-1,14
 825 808 825 808 830.5 861 c 128,-1,15
 836 914 836 914 840.5 960.5 c 128,-1,16
 845 1007 845 1007 850 1057 c 1,17,-1
 1090 1057 l 2,18,19
 1105 1057 1105 1057 1117 1057 c 128,-1,20
 1129 1057 1129 1057 1138 1056 c 1,21,22
 1153 1057 1153 1057 1163 1066 c 128,-1,23
 1173 1075 1173 1075 1179 1085.5 c 128,-1,24
 1185 1096 1185 1096 1188 1104.5 c 128,-1,25
 1191 1113 1191 1113 1192 1114 c 0,26,27
 1208 1155 1208 1155 1221.5 1192 c 128,-1,28
 1235 1229 1235 1229 1248 1265 c 128,-1,29
 1261 1301 1261 1301 1274.5 1338 c 128,-1,30
 1288 1375 1288 1375 1304 1416 c 0,31,32
 1304 1418 1304 1418 1305 1420 c 128,-1,33
 1306 1422 1306 1422 1306 1424 c 0,34,35
 1306 1443 1306 1443 1292.5 1446 c 128,-1,36
 1279 1449 1279 1449 1267 1449 c 0,37,38
 1133 1446 1133 1446 1006.5 1438.5 c 128,-1,39
 880 1431 880 1431 753.5 1421.5 c 128,-1,40
 627 1412 627 1412 497.5 1401.5 c 128,-1,41
 368 1391 368 1391 230 1381 c 0,42,43
 207 1379 207 1379 200.5 1375.5 c 128,-1,44
 194 1372 194 1372 194 1367 c 2,45,-1
 194 1364 l 2,46,47
 194 1363 194 1363 195 1363 c 2,48,-1
 85 1090 l 1,49,-1
 85 1083 l 2,50,51
 85 1076 85 1076 87.5 1067.5 c 128,-1,52
 90 1059 90 1059 101 1059 c 0,53,54
 214 1059 214 1059 294 1059 c 128,-1,55
 374 1059 374 1059 440 1058 c 1,56,57
 437 1009 437 1009 434 968.5 c 128,-1,58
 431 928 431 928 428 888.5 c 128,-1,59
 425 849 425 849 421.5 807 c 128,-1,60
 418 765 418 765 413.5 713 c 128,-1,61
 409 661 409 661 404 595 c 128,-1,62
 399 529 399 529 392.5 441.5 c 128,-1,63
 386 354 386 354 377.5 242 c 128,-1,64
 369 130 369 130 358 -15 c 1,0,-1
EndSplineSet
EndChar

StartChar: U
Encoding: 276 85 20
Width: 1378
Flags: W
HStem: -52 354<595.1 817.979>
VStem: 152 398<348.755 482 622.5 972.805> 952.5 426.5<919.019 1362.59>
LayerCount: 2
Fore
SplineSet
1379 1404 m 1,0,1
 1379 1430 1379 1430 1372.5 1438.5 c 128,-1,2
 1366 1447 1366 1447 1352 1447 c 0,3,4
 1346 1447 1346 1447 1339.5 1446 c 128,-1,5
 1333 1445 1333 1445 1325 1443 c 2,6,-1
 984 1360 l 1,7,8
 970 1358 970 1358 963.5 1353.5 c 128,-1,9
 957 1349 957 1349 955 1341.5 c 128,-1,10
 953 1334 953 1334 952.5 1322 c 128,-1,11
 952 1310 952 1310 950 1292 c 0,12,13
 944 1208 944 1208 937 1111 c 128,-1,14
 930 1014 930 1014 923 919 c 128,-1,15
 916 824 916 824 909 738 c 128,-1,16
 902 652 902 652 897 589 c 1,17,18
 891 535 891 535 881.5 483.5 c 128,-1,19
 872 432 872 432 851 391.5 c 128,-1,20
 830 351 830 351 795 326.5 c 128,-1,21
 760 302 760 302 703 302 c 0,22,23
 656 302 656 302 626.5 320.5 c 128,-1,24
 597 339 597 339 580 366.5 c 128,-1,25
 563 394 563 394 556.5 425 c 128,-1,26
 550 456 550 456 550 482 c 0,27,28
 550 525 550 525 555 566 c 128,-1,29
 560 607 560 607 562 642 c 1,30,31
 582 826 582 826 599 1021.5 c 128,-1,32
 616 1217 616 1217 636 1404 c 1,33,34
 636 1429 636 1429 630.5 1438 c 128,-1,35
 625 1447 625 1447 609 1447 c 0,36,37
 603 1447 603 1447 596.5 1446 c 128,-1,38
 590 1445 590 1445 582 1443 c 2,39,-1
 241 1360 l 2,40,41
 231 1357 231 1357 225.5 1352 c 128,-1,42
 220 1347 220 1347 217 1338 c 128,-1,43
 214 1329 214 1329 212.5 1315.5 c 128,-1,44
 211 1302 211 1302 210 1282 c 0,45,46
 207 1245 207 1245 203 1184.5 c 128,-1,47
 199 1124 199 1124 194 1052 c 128,-1,48
 189 980 189 980 183.5 902.5 c 128,-1,49
 178 825 178 825 172.5 753.5 c 128,-1,50
 167 682 167 682 162.5 622.5 c 128,-1,51
 158 563 158 563 155 528 c 0,52,53
 152 496 152 496 152 467 c 0,54,55
 152 350 152 350 191.5 254.5 c 128,-1,56
 231 159 231 159 299 91 c 128,-1,57
 367 23 367 23 458 -14.5 c 128,-1,58
 549 -52 549 -52 652 -52 c 0,59,60
 802 -52 802 -52 916.5 -6.5 c 128,-1,61
 1031 39 1031 39 1113 136 c 128,-1,62
 1195 233 1195 233 1245.5 385.5 c 128,-1,63
 1296 538 1296 538 1317 751 c 0,64,65
 1320 783 1320 783 1325.5 835 c 128,-1,66
 1331 887 1331 887 1337 949 c 128,-1,67
 1343 1011 1343 1011 1350 1078 c 128,-1,68
 1357 1145 1357 1145 1362.5 1207 c 128,-1,69
 1368 1269 1368 1269 1372.5 1320.5 c 128,-1,70
 1377 1372 1377 1372 1379 1404 c 1,0,1
EndSplineSet
EndChar

StartChar: V
Encoding: 277 86 21
Width: 1305
Flags: W
LayerCount: 2
Fore
SplineSet
1409 1378 m 2,0,1
 1419 1401 1419 1401 1419 1414 c 0,2,3
 1419 1429 1419 1429 1406 1437.5 c 128,-1,4
 1393 1446 1393 1446 1358 1446 c 0,5,6
 1328 1446 1328 1446 1279 1439 c 128,-1,7
 1230 1432 1230 1432 1155 1416 c 0,8,9
 1107 1406 1107 1406 1081.5 1399 c 128,-1,10
 1056 1392 1056 1392 1043.5 1384 c 128,-1,11
 1031 1376 1031 1376 1026.5 1366 c 128,-1,12
 1022 1356 1022 1356 1016 1340 c 2,13,-1
 747 608 l 1,14,-1
 556 1408 l 1,15,16
 548 1428 548 1428 538.5 1437.5 c 128,-1,17
 529 1447 529 1447 500 1447 c 0,18,19
 483 1447 483 1447 459 1444.5 c 128,-1,20
 435 1442 435 1442 400 1437 c 0,21,22
 328 1427 328 1427 278.5 1419 c 128,-1,23
 229 1411 229 1411 197.5 1401 c 128,-1,24
 166 1391 166 1391 152 1376.5 c 128,-1,25
 138 1362 138 1362 138 1340 c 0,26,27
 138 1320 138 1320 146 1297 c 1,28,-1
 488 -20 l 2,29,30
 492 -34 492 -34 500 -43 c 128,-1,31
 508 -52 508 -52 526 -52 c 0,32,33
 534 -52 534 -52 543 -50 c 128,-1,34
 552 -48 552 -48 564 -44 c 0,35,36
 626 -23 626 -23 688.5 -8 c 128,-1,37
 751 7 751 7 814 26 c 0,38,39
 830 31 830 31 840.5 39 c 128,-1,40
 851 47 851 47 857.5 57 c 128,-1,41
 864 67 864 67 869 79 c 128,-1,42
 874 91 874 91 879 104 c 2,43,-1
 1409 1378 l 2,0,1
EndSplineSet
EndChar

StartChar: W
Encoding: 278 87 22
Width: 1832
Flags: W
LayerCount: 2
Fore
SplineSet
1354 717 m 1,0,-1
 1218 1333 l 2,1,2
 1213 1353 1213 1353 1202 1362 c 128,-1,3
 1191 1371 1191 1371 1161 1371 c 0,4,5
 1146 1371 1146 1371 1125 1369 c 128,-1,6
 1104 1367 1104 1367 1075 1363 c 0,7,8
 1009 1354 1009 1354 963.5 1347 c 128,-1,9
 918 1340 918 1340 890 1331 c 128,-1,10
 862 1322 862 1322 850 1308 c 128,-1,11
 838 1294 838 1294 838 1271 c 0,12,13
 838 1258 838 1258 843 1235 c 2,14,-1
 912 934 l 1,15,-1
 741 640 l 1,16,-1
 538 1408 l 1,17,18
 531 1429 531 1429 522 1438 c 128,-1,19
 513 1447 513 1447 484 1447 c 0,20,21
 467 1447 467 1447 442.5 1444.5 c 128,-1,22
 418 1442 418 1442 382 1437 c 0,23,24
 305 1427 305 1427 255 1418.5 c 128,-1,25
 205 1410 205 1410 175 1399 c 128,-1,26
 145 1388 145 1388 133 1371.5 c 128,-1,27
 121 1355 121 1355 121 1328 c 0,28,29
 121 1321 121 1321 123.5 1313 c 128,-1,30
 126 1305 126 1305 128 1297 c 2,31,-1
 513 -23 l 2,32,33
 521 -52 521 -52 547 -52 c 0,34,35
 559 -52 559 -52 572.5 -46.5 c 128,-1,36
 586 -41 586 -41 601 -32 c 128,-1,37
 616 -23 616 -23 630.5 -12 c 128,-1,38
 645 -1 645 -1 658 10 c 0,39,40
 672 22 672 22 694.5 41.5 c 128,-1,41
 717 61 717 61 739.5 82.5 c 128,-1,42
 762 104 762 104 780 123.5 c 128,-1,43
 798 143 798 143 803 155 c 2,44,-1
 1017 580 l 1,45,-1
 1188 -13 l 2,46,47
 1193 -28 1193 -28 1201 -40 c 128,-1,48
 1209 -52 1209 -52 1225 -52 c 0,49,50
 1235 -52 1235 -52 1253 -43 c 0,51,52
 1305 -18 1305 -18 1339 -3 c 128,-1,53
 1373 12 1373 12 1395.5 23 c 128,-1,54
 1418 34 1418 34 1431.5 44.5 c 128,-1,55
 1445 55 1445 55 1455.5 71.5 c 128,-1,56
 1466 88 1466 88 1476.5 113.5 c 128,-1,57
 1487 139 1487 139 1503 180 c 1,58,-1
 1917 1397 l 2,59,60
 1918 1399 1918 1399 1918.5 1405 c 128,-1,61
 1919 1411 1919 1411 1919 1413 c 0,62,63
 1919 1424 1919 1424 1913.5 1436 c 128,-1,64
 1908 1448 1908 1448 1894 1448 c 0,65,66
 1892 1448 1892 1448 1889 1447 c 128,-1,67
 1886 1446 1886 1446 1884 1446 c 2,68,-1
 1589 1371 l 2,69,70
 1568 1366 1568 1366 1562.5 1354.5 c 128,-1,71
 1557 1343 1557 1343 1551 1325 c 2,72,-1
 1354 717 l 1,0,-1
EndSplineSet
EndChar

StartChar: X
Encoding: 279 88 23
Width: 1244
Flags: W
LayerCount: 2
Fore
SplineSet
122 1355 m 2,0,1
 114 1352 114 1352 114 1341 c 256,2,3
 114 1330 114 1330 119 1318 c 0,4,5
 121 1312 121 1312 124 1306 c 2,6,-1
 472 685 l 1,7,-1
 359 481 l 2,8,9
 304 380 304 380 254 286 c 0,10,11
 233 246 233 246 210.5 203.5 c 128,-1,12
 188 161 188 161 167.5 120.5 c 128,-1,13
 147 80 147 80 129.5 44 c 128,-1,14
 112 8 112 8 100 -19 c 0,15,16
 95 -29 95 -29 95 -38 c 0,17,18
 95 -46 95 -46 101 -49.5 c 128,-1,19
 107 -53 107 -53 116 -53 c 0,20,21
 133 -53 133 -53 155.5 -47 c 128,-1,22
 178 -41 178 -41 190 -41 c 1,23,24
 211 -36 211 -36 241.5 -27.5 c 128,-1,25
 272 -19 272 -19 305.5 -9 c 128,-1,26
 339 1 339 1 372.5 12 c 128,-1,27
 406 23 406 23 433 32.5 c 128,-1,28
 460 42 460 42 478 49 c 128,-1,29
 496 56 496 56 497 58 c 2,30,-1
 528 88 l 1,31,-1
 673 339 l 1,32,33
 695 300 695 300 722.5 251.5 c 128,-1,34
 750 203 750 203 779 153.5 c 128,-1,35
 808 104 808 104 836 58.5 c 128,-1,36
 864 13 864 13 886 -20 c 0,37,38
 899 -40 899 -40 911.5 -46.5 c 128,-1,39
 924 -53 924 -53 938 -53 c 0,40,41
 955 -53 955 -53 970.5 -46.5 c 128,-1,42
 986 -40 986 -40 999 -40 c 1,43,44
 1026 -31 1026 -31 1062 -16 c 128,-1,45
 1098 -1 1098 -1 1130.5 14.5 c 128,-1,46
 1163 30 1163 30 1185.5 43 c 128,-1,47
 1208 56 1208 56 1208 60 c 2,48,-1
 1211 97 l 1,49,-1
 992 542 l 2,50,51
 984 559 984 559 957.5 607.5 c 128,-1,52
 931 656 931 656 896 717 c 1,53,54
 928 772 928 772 965 834.5 c 128,-1,55
 1002 897 1002 897 1033 950 c 0,56,57
 1069 1012 1069 1012 1105 1073 c 1,58,-1
 1286 1396 l 2,59,60
 1292 1407 1292 1407 1294.5 1416.5 c 128,-1,61
 1297 1426 1297 1426 1297 1432 c 0,62,63
 1297 1449 1297 1449 1275 1449 c 0,64,65
 1270 1449 1270 1449 1265.5 1448.5 c 128,-1,66
 1261 1448 1261 1448 1256 1447 c 2,67,-1
 860 1367 l 1,68,69
 859 1365 859 1365 852 1352.5 c 128,-1,70
 845 1340 845 1340 834.5 1321.5 c 128,-1,71
 824 1303 824 1303 810 1279.5 c 128,-1,72
 796 1256 796 1256 782 1232 c 0,73,74
 749 1176 749 1176 707 1105 c 1,75,-1
 694 1081 l 1,76,77
 676 1114 676 1114 652 1159.5 c 128,-1,78
 628 1205 628 1205 604 1250 c 128,-1,79
 580 1295 580 1295 559.5 1334 c 128,-1,80
 539 1373 539 1373 528 1393 c 0,81,82
 512 1421 512 1421 496 1432.5 c 128,-1,83
 480 1444 480 1444 463 1444 c 0,84,85
 458 1444 458 1444 454.5 1444 c 128,-1,86
 451 1444 451 1444 446 1442 c 2,87,-1
 122 1355 l 2,0,1
EndSplineSet
EndChar

StartChar: Y
Encoding: 280 89 24
Width: 1115
Flags: W
LayerCount: 2
Fore
SplineSet
119 1332 m 0,0,1
 112 1328 112 1328 109.5 1319.5 c 128,-1,2
 107 1311 107 1311 107 1302 c 0,3,4
 107 1283 107 1283 112 1271 c 0,5,6
 123 1249 123 1249 145.5 1202 c 128,-1,7
 168 1155 168 1155 196.5 1093.5 c 128,-1,8
 225 1032 225 1032 257.5 963 c 128,-1,9
 290 894 290 894 320.5 829 c 128,-1,10
 351 764 351 764 376.5 708 c 128,-1,11
 402 652 402 652 418 618 c 1,12,-1
 391 434 l 1,13,14
 375 348 375 348 362 265 c 0,15,16
 356 230 356 230 350.5 192 c 128,-1,17
 345 154 345 154 340 117.5 c 128,-1,18
 335 81 335 81 331 47 c 128,-1,19
 327 13 327 13 325 -15 c 1,20,-1
 325 -19 l 2,21,22
 325 -36 325 -36 337 -43.5 c 128,-1,23
 349 -51 349 -51 366 -51 c 0,24,25
 382 -51 382 -51 399.5 -46 c 128,-1,26
 417 -41 417 -41 433 -33 c 2,27,-1
 717 116 l 2,28,29
 726 121 726 121 732 126 c 128,-1,30
 738 131 738 131 741.5 138.5 c 128,-1,31
 745 146 745 146 747 157 c 128,-1,32
 749 168 749 168 752 184 c 2,33,-1
 808 541 l 1,34,-1
 815 574 l 1,35,36
 825 593 825 593 842 623.5 c 128,-1,37
 859 654 859 654 879.5 690.5 c 128,-1,38
 900 727 900 727 922.5 768 c 128,-1,39
 945 809 945 809 967 849 c 0,40,41
 1018 942 1018 942 1076 1049 c 2,42,-1
 1261 1394 l 2,43,44
 1266 1404 1266 1404 1267 1412.5 c 128,-1,45
 1268 1421 1268 1421 1269 1426 c 1,46,47
 1269 1447 1269 1447 1246 1447 c 0,48,49
 1238 1447 1238 1447 1226 1444 c 2,50,-1
 883 1358 l 2,51,52
 881 1358 881 1358 871 1342 c 128,-1,53
 861 1326 861 1326 846 1300 c 128,-1,54
 831 1274 831 1274 813 1241 c 128,-1,55
 795 1208 795 1208 776 1174 c 0,56,57
 732 1093 732 1093 677 991 c 1,58,-1
 671 976 l 1,59,-1
 440 1424 l 1,60,61
 428 1436 428 1436 418.5 1440.5 c 128,-1,62
 409 1445 409 1445 401 1445 c 0,63,64
 390 1445 390 1445 377 1439 c 0,65,66
 314 1414 314 1414 261 1393 c 0,67,68
 238 1384 238 1384 215.5 1374.5 c 128,-1,69
 193 1365 193 1365 173.5 1357 c 128,-1,70
 154 1349 154 1349 139.5 1342.5 c 128,-1,71
 125 1336 125 1336 119 1332 c 0,0,1
EndSplineSet
EndChar

StartChar: Z
Encoding: 281 90 25
Width: 1249
Flags: W
HStem: 995 411<249.156 407 582.5 658.995>
LayerCount: 2
Fore
SplineSet
205 0 m 0,0,1
 392 0 392 0 553.5 -1 c 128,-1,2
 715 -2 715 -2 872 -2 c 0,3,4
 911 -2 911 -2 948 0 c 128,-1,5
 985 2 985 2 1015.5 9 c 128,-1,6
 1046 16 1046 16 1067.5 30 c 128,-1,7
 1089 44 1089 44 1097 68 c 1,8,-1
 1258 388 l 2,9,10
 1260 394 1260 394 1260 397 c 0,11,12
 1260 408 1260 408 1250 415.5 c 128,-1,13
 1240 423 1240 423 1228 423 c 0,14,15
 1169 423 1169 423 1112.5 415.5 c 128,-1,16
 1056 408 1056 408 996 408 c 2,17,-1
 798 408 l 2,18,19
 790 408 790 408 780 409.5 c 128,-1,20
 770 411 770 411 770 422 c 0,21,22
 770 424 770 424 770.5 424.5 c 128,-1,23
 771 425 771 425 771 427 c 2,24,-1
 1258 1337 l 1,25,-1
 1258 1378 l 1,26,27
 1150 1378 1150 1378 1044.5 1382.5 c 128,-1,28
 939 1387 939 1387 833.5 1392 c 128,-1,29
 728 1397 728 1397 622 1401.5 c 128,-1,30
 516 1406 516 1406 407 1406 c 0,31,32
 381 1406 381 1406 354.5 1403.5 c 128,-1,33
 328 1401 328 1401 304.5 1393.5 c 128,-1,34
 281 1386 281 1386 262 1372.5 c 128,-1,35
 243 1359 243 1359 234 1337 c 2,36,-1
 105 1028 l 2,37,38
 103 1022 103 1022 103 1020 c 0,39,40
 103 1010 103 1010 111 1002.5 c 128,-1,41
 119 995 119 995 130 995 c 0,42,43
 181 995 181 995 228.5 996.5 c 128,-1,44
 276 998 276 998 329 998 c 0,45,46
 339 998 339 998 367 997.5 c 128,-1,47
 395 997 395 997 432 996.5 c 128,-1,48
 469 996 469 996 509 994.5 c 128,-1,49
 549 993 549 993 582.5 991.5 c 128,-1,50
 616 990 616 990 637.5 987.5 c 128,-1,51
 659 985 659 985 659 982 c 0,52,53
 659 981 659 981 658.5 980.5 c 128,-1,54
 658 980 658 980 658 979 c 2,55,-1
 138 68 l 2,56,57
 138 66 138 66 137 64 c 128,-1,58
 136 62 136 62 136 60 c 0,59,60
 136 41 136 41 142.5 29.5 c 128,-1,61
 149 18 149 18 159 11.5 c 128,-1,62
 169 5 169 5 181 2.5 c 128,-1,63
 193 0 193 0 205 0 c 0,0,1
EndSplineSet
EndChar

StartChar: backslash
Encoding: 282 92 26
Width: 1094
Flags: W
LayerCount: 2
Fore
SplineSet
673 943 m 1,0,1
 612 1074 612 1074 555.5 1207 c 128,-1,2
 499 1340 499 1340 440 1476 c 0,3,4
 427 1505 427 1505 419.5 1516.5 c 128,-1,5
 412 1528 412 1528 398 1528 c 2,6,-1
 392 1528 l 1,7,8
 365 1517 365 1517 338 1505 c 128,-1,9
 311 1493 311 1493 285 1481 c 128,-1,10
 259 1469 259 1469 232.5 1459.5 c 128,-1,11
 206 1450 206 1450 180 1445 c 0,12,13
 174 1443 174 1443 169 1440 c 128,-1,14
 164 1437 164 1437 164 1432 c 0,15,16
 164 1430 164 1430 165 1429 c 2,17,-1
 806 15 l 2,18,19
 813 -2 813 -2 816.5 -15.5 c 128,-1,20
 820 -29 820 -29 835 -29 c 0,21,22
 844 -29 844 -29 861 -22 c 2,23,-1
 962 20 l 2,24,25
 969 23 969 23 985.5 28.5 c 128,-1,26
 1002 34 1002 34 1018.5 41.5 c 128,-1,27
 1035 49 1035 49 1047.5 59 c 128,-1,28
 1060 69 1060 69 1060 82 c 0,29,30
 1060 89 1060 89 1055 101 c 0,31,32
 1009 198 1009 198 967 292 c 128,-1,33
 925 386 925 386 880 486 c 128,-1,34
 835 586 835 586 784.5 697.5 c 128,-1,35
 734 809 734 809 673 943 c 1,0,1
EndSplineSet
EndChar

StartChar: D
Encoding: 283 68 27
Width: 1544
Flags: W
HStem: 1146 304<680.035 951.984>
VStem: 1112 443<558.452 966.673>
LayerCount: 2
Fore
SplineSet
353 -52 m 2,0,1
 490 -52 490 -52 632.5 -33 c 128,-1,2
 775 -14 775 -14 908.5 29 c 128,-1,3
 1042 72 1042 72 1159.5 141 c 128,-1,4
 1277 210 1277 210 1365 309.5 c 128,-1,5
 1453 409 1453 409 1504 542 c 128,-1,6
 1555 675 1555 675 1555 846 c 0,7,8
 1555 966 1555 966 1521 1058 c 128,-1,9
 1487 1150 1487 1150 1428 1217 c 128,-1,10
 1369 1284 1369 1284 1290.5 1329 c 128,-1,11
 1212 1374 1212 1374 1123 1400.5 c 128,-1,12
 1034 1427 1034 1427 939 1438.5 c 128,-1,13
 844 1450 844 1450 753 1450 c 0,14,15
 664 1450 664 1450 606 1446 c 128,-1,16
 548 1442 548 1442 507 1432 c 128,-1,17
 466 1422 466 1422 436.5 1404.5 c 128,-1,18
 407 1387 407 1387 377 1360 c 2,19,-1
 123 1130 l 2,20,21
 117 1124 117 1124 117 1111 c 0,22,23
 117 1100 117 1100 122.5 1090 c 128,-1,24
 128 1080 128 1080 139 1080 c 0,25,26
 160 1080 160 1080 194.5 1084.5 c 128,-1,27
 229 1089 229 1089 263 1094 c 0,28,29
 303 1100 303 1100 346 1109 c 1,30,31
 338 1008 338 1008 332 922 c 0,32,33
 329 885 329 885 326.5 848 c 128,-1,34
 324 811 324 811 321.5 779 c 128,-1,35
 319 747 319 747 317 722.5 c 128,-1,36
 315 698 315 698 314 686 c 0,37,38
 311 656 311 656 307.5 611.5 c 128,-1,39
 304 567 304 567 300.5 518 c 128,-1,40
 297 469 297 469 293.5 419 c 128,-1,41
 290 369 290 369 286.5 328.5 c 128,-1,42
 283 288 283 288 280.5 261 c 128,-1,43
 278 234 278 234 277 230 c 2,44,-1
 154 -5 l 2,45,46
 150 -12 150 -12 150 -21 c 0,47,48
 150 -32 150 -32 155 -41 c 128,-1,49
 160 -50 160 -50 171 -52 c 1,50,-1
 353 -52 l 2,0,1
752 1130 m 1,51,52
 760 1134 760 1134 769 1138 c 0,53,54
 777 1141 777 1141 785 1143.5 c 128,-1,55
 793 1146 793 1146 801 1146 c 0,56,57
 874 1146 874 1146 932 1114 c 128,-1,58
 990 1082 990 1082 1030 1029 c 128,-1,59
 1070 976 1070 976 1091 905.5 c 128,-1,60
 1112 835 1112 835 1112 759 c 0,61,62
 1112 653 1112 653 1088.5 561 c 128,-1,63
 1065 469 1065 469 1013 401 c 128,-1,64
 961 333 961 333 877.5 293.5 c 128,-1,65
 794 254 794 254 673 254 c 1,66,67
 673 254 673 254 676 284 c 128,-1,68
 679 314 679 314 683 364.5 c 128,-1,69
 687 415 687 415 692.5 482 c 128,-1,70
 698 549 698 549 704.5 622.5 c 128,-1,71
 711 696 711 696 717.5 771.5 c 128,-1,72
 724 847 724 847 730 915 c 128,-1,73
 736 983 736 983 742 1039 c 128,-1,74
 748 1095 748 1095 752 1130 c 1,51,52
EndSplineSet
EndChar

StartChar: dollar
Encoding: 284 36 28
Width: 993
Flags: W
VStem: 151 489<876.791 1036.57> 486.5 316.5<1367.97 1551.09> 532 440<448.947 611.975>
LayerCount: 2
Fore
SplineSet
762 1367 m 1,0,1
 768 1398 768 1398 775 1433 c 128,-1,2
 782 1468 782 1468 788 1498 c 128,-1,3
 794 1528 794 1528 798.5 1548.5 c 128,-1,4
 803 1569 803 1569 803 1571 c 0,5,6
 803 1574 803 1574 801.5 1576 c 128,-1,7
 800 1578 800 1578 794 1578 c 0,8,9
 723 1567 723 1567 647 1560.5 c 128,-1,10
 571 1554 571 1554 501 1549 c 0,11,12
 487 1547 487 1547 486.5 1536.5 c 128,-1,13
 486 1526 486 1526 482 1500 c 2,14,-1
 451 1309 l 1,15,16
 397 1299 397 1299 343.5 1268 c 128,-1,17
 290 1237 290 1237 247.5 1193.5 c 128,-1,18
 205 1150 205 1150 178 1098.5 c 128,-1,19
 151 1047 151 1047 151 997 c 0,20,21
 151 923 151 923 189 859.5 c 128,-1,22
 227 796 227 796 315 742 c 0,23,24
 386 698 386 698 428.5 664.5 c 128,-1,25
 471 631 471 631 494 605 c 128,-1,26
 517 579 517 579 524.5 558.5 c 128,-1,27
 532 538 532 538 532 520 c 0,28,29
 532 489 532 489 504 462.5 c 128,-1,30
 476 436 476 436 428.5 415 c 128,-1,31
 381 394 381 394 319.5 379 c 128,-1,32
 258 364 258 364 191 358 c 1,33,34
 174 281 174 281 156 207 c 128,-1,35
 138 133 138 133 123 55 c 1,36,37
 161 55 161 55 202 56 c 128,-1,38
 243 57 243 57 278 59 c 0,39,40
 318 61 318 61 357 62 c 1,41,-1
 346 -129 l 1,42,43
 374 -129 374 -129 409.5 -127.5 c 128,-1,44
 445 -126 445 -126 479.5 -123.5 c 128,-1,45
 514 -121 514 -121 542.5 -119.5 c 128,-1,46
 571 -118 571 -118 584 -118 c 2,47,-1
 663 -120 l 1,48,49
 665 -83 665 -83 668 -40 c 128,-1,50
 671 3 671 3 674 43.5 c 128,-1,51
 677 84 677 84 679.5 117 c 128,-1,52
 682 150 682 150 683 167 c 1,53,54
 741 192 741 192 793.5 226 c 128,-1,55
 846 260 846 260 886 301 c 128,-1,56
 926 342 926 342 949 390.5 c 128,-1,57
 972 439 972 439 972 495 c 0,58,59
 972 561 972 561 947.5 611.5 c 128,-1,60
 923 662 923 662 886 702 c 128,-1,61
 849 742 849 742 806 774.5 c 128,-1,62
 763 807 763 807 726 837.5 c 128,-1,63
 689 868 689 868 664.5 899.5 c 128,-1,64
 640 931 640 931 640 970 c 0,65,66
 640 1002 640 1002 663 1021.5 c 128,-1,67
 686 1041 686 1041 718.5 1051.5 c 128,-1,68
 751 1062 751 1062 784.5 1065.5 c 128,-1,69
 818 1069 818 1069 839 1069 c 0,70,71
 856 1069 856 1069 882 1066.5 c 128,-1,72
 908 1064 908 1064 933 1061.5 c 128,-1,73
 958 1059 958 1059 976.5 1056.5 c 128,-1,74
 995 1054 995 1054 997 1054 c 1,75,-1
 970 1348 l 1,76,77
 941 1352 941 1352 887.5 1357 c 128,-1,78
 834 1362 834 1362 762 1367 c 1,0,1
EndSplineSet
EndChar

StartChar: zero
Encoding: 285 48 29
Width: 1629
Flags: W
HStem: -52 307<716.541 1018.44> 1200 294<739.366 1039.45>
VStem: 138 432<436.465 984.465> 1192 424<476.07 1004.52>
LayerCount: 2
Fore
SplineSet
138 678 m 0,0,1
 138 511 138 511 191 376.5 c 128,-1,2
 244 242 244 242 339 146.5 c 128,-1,3
 434 51 434 51 566 -0.5 c 128,-1,4
 698 -52 698 -52 856 -52 c 0,5,6
 1026 -52 1026 -52 1166 2.5 c 128,-1,7
 1306 57 1306 57 1406 160.5 c 128,-1,8
 1506 264 1506 264 1561 413.5 c 128,-1,9
 1616 563 1616 563 1616 752 c 0,10,11
 1616 847 1616 847 1597.5 939 c 128,-1,12
 1579 1031 1579 1031 1541 1113.5 c 128,-1,13
 1503 1196 1503 1196 1445 1266 c 128,-1,14
 1387 1336 1387 1336 1309 1386.5 c 128,-1,15
 1231 1437 1231 1437 1131 1465.5 c 128,-1,16
 1031 1494 1031 1494 910 1494 c 0,17,18
 717 1494 717 1494 572.5 1431 c 128,-1,19
 428 1368 428 1368 331.5 1257.5 c 128,-1,20
 235 1147 235 1147 186.5 998 c 128,-1,21
 138 849 138 849 138 678 c 0,0,1
570 717 m 0,22,23
 570 801 570 801 585 886.5 c 128,-1,24
 600 972 600 972 637.5 1042 c 128,-1,25
 675 1112 675 1112 739 1156 c 128,-1,26
 803 1200 803 1200 900 1200 c 0,27,28
 955 1200 955 1200 998 1180 c 128,-1,29
 1041 1160 1041 1160 1073 1125.5 c 128,-1,30
 1105 1091 1105 1091 1128 1046.5 c 128,-1,31
 1151 1002 1151 1002 1165 952.5 c 128,-1,32
 1179 903 1179 903 1185.5 853 c 128,-1,33
 1192 803 1192 803 1192 758 c 0,34,35
 1192 703 1192 703 1185.5 644 c 128,-1,36
 1179 585 1179 585 1164 529 c 128,-1,37
 1149 473 1149 473 1124 423.5 c 128,-1,38
 1099 374 1099 374 1063 336.5 c 128,-1,39
 1027 299 1027 299 978 277 c 128,-1,40
 929 255 929 255 865 255 c 0,41,42
 776 255 776 255 718.5 297 c 128,-1,43
 661 339 661 339 628 406 c 128,-1,44
 595 473 595 473 582.5 555 c 128,-1,45
 570 637 570 637 570 717 c 0,22,23
EndSplineSet
EndChar

StartChar: one
Encoding: 286 49 30
Width: 690
Flags: W
VStem: 165 427<81.7014 467.57> 225 426<1103.43 1362.59>
LayerCount: 2
Fore
SplineSet
225 1292 m 0,0,1
 214 1057 214 1057 205.5 878 c 128,-1,2
 197 699 197 699 190.5 566 c 128,-1,3
 184 433 184 433 179.5 342 c 128,-1,4
 175 251 175 251 172.5 191.5 c 128,-1,5
 170 132 170 132 168.5 99.5 c 128,-1,6
 167 67 167 67 166 51.5 c 128,-1,7
 165 36 165 36 165 33 c 128,-1,8
 165 30 165 30 165 30 c 2,9,10
 165 4 165 4 178 -5.5 c 128,-1,11
 191 -15 191 -15 208 -15 c 0,12,13
 219 -15 219 -15 231 -12 c 2,14,-1
 544 80 l 2,15,16
 556 84 556 84 565 89 c 128,-1,17
 574 94 574 94 579.5 104 c 128,-1,18
 585 114 585 114 588 129 c 128,-1,19
 591 144 591 144 592 167 c 2,20,-1
 651 1404 l 1,21,22
 651 1429 651 1429 645.5 1438 c 128,-1,23
 640 1447 640 1447 626 1447 c 0,24,25
 621 1447 621 1447 614.5 1446 c 128,-1,26
 608 1445 608 1445 600 1443 c 2,27,-1
 254 1360 l 2,28,29
 244 1358 244 1358 238.5 1353.5 c 128,-1,30
 233 1349 233 1349 230.5 1341.5 c 128,-1,31
 228 1334 228 1334 227 1322 c 128,-1,32
 226 1310 226 1310 225 1292 c 0,0,1
EndSplineSet
EndChar

StartChar: two
Encoding: 287 50 31
Width: 1132
Flags: W
HStem: 1 339<660.002 952.376> 1118 375<361.062 699>
VStem: 646 421<935.006 1148.5>
LayerCount: 2
Fore
SplineSet
1005 904 m 1,0,1
 1037 957 1037 957 1052 1008 c 128,-1,2
 1067 1059 1067 1059 1067 1108 c 0,3,4
 1067 1189 1067 1189 1031 1259.5 c 128,-1,5
 995 1330 995 1330 937.5 1382 c 128,-1,6
 880 1434 880 1434 807.5 1463.5 c 128,-1,7
 735 1493 735 1493 663 1493 c 0,8,9
 580 1493 580 1493 514 1483.5 c 128,-1,10
 448 1474 448 1474 398.5 1460 c 128,-1,11
 349 1446 349 1446 314 1430 c 128,-1,12
 279 1414 279 1414 256.5 1401 c 128,-1,13
 234 1388 234 1388 224 1379.5 c 128,-1,14
 214 1371 214 1371 214 1373 c 1,15,16
 214 1368 214 1368 204 1333 c 128,-1,17
 194 1298 194 1298 181.5 1250 c 128,-1,18
 169 1202 169 1202 159 1150 c 128,-1,19
 149 1098 149 1098 149 1059 c 0,20,21
 149 1051 149 1051 152.5 1042 c 128,-1,22
 156 1033 156 1033 167 1033 c 0,23,24
 179 1033 179 1033 199 1046 c 0,25,26
 256 1083 256 1083 315.5 1100.5 c 128,-1,27
 375 1118 375 1118 431 1118 c 0,28,29
 476 1118 476 1118 515 1107 c 128,-1,30
 554 1096 554 1096 583.5 1074.5 c 128,-1,31
 613 1053 613 1053 629.5 1022 c 128,-1,32
 646 991 646 991 646 951 c 0,33,34
 646 919 646 919 634 882.5 c 128,-1,35
 622 846 622 846 596 804 c 0,36,37
 578 776 578 776 549.5 733.5 c 128,-1,38
 521 691 521 691 486 640 c 128,-1,39
 451 589 451 589 412 533.5 c 128,-1,40
 373 478 373 478 336 424 c 0,41,42
 247 297 247 297 147 156 c 1,43,44
 126 124 126 124 112.5 99 c 128,-1,45
 99 74 99 74 99 54 c 0,46,47
 99 25 99 25 136.5 10 c 128,-1,48
 174 -5 174 -5 270 -5 c 0,49,50
 319 -5 319 -5 360 -5 c 128,-1,51
 401 -5 401 -5 441.5 -4.5 c 128,-1,52
 482 -4 482 -4 524.5 -3.5 c 128,-1,53
 567 -3 567 -3 619.5 -2.5 c 128,-1,54
 672 -2 672 -2 737 -1 c 128,-1,55
 802 0 802 0 887 1 c 1,56,57
 899 3 899 3 916 5 c 128,-1,58
 933 7 933 7 953 27 c 1,59,60
 955 27 955 27 955.5 31.5 c 128,-1,61
 956 36 956 36 958 36 c 1,62,63
 996 107 996 107 1030 170.5 c 128,-1,64
 1064 234 1064 234 1102 305 c 0,65,66
 1102 307 1102 307 1109.5 321 c 128,-1,67
 1117 335 1117 335 1117 349 c 0,68,69
 1117 371 1117 371 1066 371 c 0,70,71
 1042 371 1042 371 1006.5 368.5 c 128,-1,72
 971 366 971 366 930.5 363 c 128,-1,73
 890 360 890 360 848.5 355.5 c 128,-1,74
 807 351 807 351 771 348 c 128,-1,75
 735 345 735 345 707.5 342.5 c 128,-1,76
 680 340 680 340 668 340 c 0,77,78
 660 340 660 340 660 341 c 2,79,80
 660 341 660 341 673 361.5 c 128,-1,81
 686 382 686 382 707.5 416.5 c 128,-1,82
 729 451 729 451 757.5 496 c 128,-1,83
 786 541 786 541 816.5 589.5 c 128,-1,84
 847 638 847 638 877 687 c 128,-1,85
 907 736 907 736 933 778.5 c 128,-1,86
 959 821 959 821 978 854 c 128,-1,87
 997 887 997 887 1005 904 c 1,0,1
EndSplineSet
EndChar

StartChar: three
Encoding: 288 51 32
Width: 1109
Flags: W
HStem: -52 313<314.836 464.5 485 596.288> 1184 309<277.852 431.5 470 569.691>
VStem: 595 461<949.05 1157.94>
LayerCount: 2
Fore
SplineSet
650 -48 m 0,0,1
 741 -40 741 -40 819 3.5 c 128,-1,2
 897 47 897 47 954 113 c 128,-1,3
 1011 179 1011 179 1043.5 261 c 128,-1,4
 1076 343 1076 343 1076 428 c 0,5,6
 1076 479 1076 479 1067.5 521 c 128,-1,7
 1059 563 1059 563 1045 598 c 128,-1,8
 1031 633 1031 633 1013 660.5 c 128,-1,9
 995 688 995 688 977 709 c 0,10,11
 933 758 933 758 878 788 c 1,12,13
 927 825 927 825 967 875 c 0,14,15
 983 896 983 896 999 922.5 c 128,-1,16
 1015 949 1015 949 1028 979.5 c 128,-1,17
 1041 1010 1041 1010 1048.5 1045 c 128,-1,18
 1056 1080 1056 1080 1056 1119 c 0,19,20
 1056 1216 1056 1216 1012.5 1286.5 c 128,-1,21
 969 1357 969 1357 900.5 1403 c 128,-1,22
 832 1449 832 1449 747.5 1471 c 128,-1,23
 663 1493 663 1493 581 1493 c 0,24,25
 536 1493 536 1493 501.5 1492 c 128,-1,26
 467 1491 467 1491 431.5 1485.5 c 128,-1,27
 396 1480 396 1480 355.5 1470 c 128,-1,28
 315 1460 315 1460 259 1442 c 0,29,30
 236 1435 236 1435 223 1415 c 128,-1,31
 210 1395 210 1395 203 1368 c 128,-1,32
 196 1341 196 1341 194 1309 c 128,-1,33
 192 1277 192 1277 192 1246 c 0,34,35
 192 1229 192 1229 192.5 1213 c 128,-1,36
 193 1197 193 1197 193 1183 c 0,37,38
 193 1151 193 1151 190 1133 c 1,39,40
 218 1142 218 1142 252 1151 c 128,-1,41
 286 1160 286 1160 322.5 1167.5 c 128,-1,42
 359 1175 359 1175 396.5 1179.5 c 128,-1,43
 434 1184 434 1184 470 1184 c 0,44,45
 503 1184 503 1184 526.5 1173 c 128,-1,46
 550 1162 550 1162 565.5 1144.5 c 128,-1,47
 581 1127 581 1127 588 1104 c 128,-1,48
 595 1081 595 1081 595 1057 c 0,49,50
 595 994 595 994 559.5 953 c 128,-1,51
 524 912 524 912 462 912 c 0,52,53
 440 912 440 912 417.5 913 c 128,-1,54
 395 914 395 914 373 922 c 1,55,56
 367 922 367 922 360.5 910.5 c 128,-1,57
 354 899 354 899 348 867 c 0,58,59
 347 864 347 864 344 842.5 c 128,-1,60
 341 821 341 821 336.5 789.5 c 128,-1,61
 332 758 332 758 326.5 721.5 c 128,-1,62
 321 685 321 685 316.5 652.5 c 128,-1,63
 312 620 312 620 309 597 c 128,-1,64
 306 574 306 574 306 569 c 1,65,-1
 486 569 l 2,66,67
 535 569 535 569 565 551.5 c 128,-1,68
 595 534 595 534 610.5 508.5 c 128,-1,69
 626 483 626 483 631 453.5 c 128,-1,70
 636 424 636 424 636 400 c 0,71,72
 636 324 636 324 597.5 292.5 c 128,-1,73
 559 261 559 261 485 261 c 0,74,75
 426 261 426 261 378 274 c 128,-1,76
 330 287 330 287 288 306.5 c 128,-1,77
 246 326 246 326 209 350 c 128,-1,78
 172 374 172 374 137 396 c 0,79,80
 134 398 134 398 128 398 c 0,81,82
 117 398 117 398 106.5 389.5 c 128,-1,83
 96 381 96 381 96 367 c 0,84,85
 96 362 96 362 97 359 c 0,86,87
 100 347 100 347 105 314.5 c 128,-1,88
 110 282 110 282 115 246 c 128,-1,89
 120 210 120 210 124 177.5 c 128,-1,90
 128 145 128 145 130 132 c 0,91,92
 131 123 131 123 131.5 110.5 c 128,-1,93
 132 98 132 98 134.5 86 c 128,-1,94
 137 74 137 74 143.5 64.5 c 128,-1,95
 150 55 150 55 163 52 c 1,96,97
 220 28 220 28 269.5 9 c 128,-1,98
 319 -10 319 -10 367 -23.5 c 128,-1,99
 415 -37 415 -37 464.5 -44.5 c 128,-1,100
 514 -52 514 -52 570 -52 c 0,101,102
 589 -52 589 -52 609 -51 c 128,-1,103
 629 -50 629 -50 650 -48 c 0,0,1
EndSplineSet
EndChar

StartChar: four
Encoding: 289 52 33
Width: 1352
Flags: W
LayerCount: 2
Fore
SplineSet
1347 571 m 0,0,1
 1348 575 1348 575 1348 582 c 0,2,3
 1348 596 1348 596 1342.5 602.5 c 128,-1,4
 1337 609 1337 609 1330 613 c 0,5,6
 1322 617 1322 617 1312 618 c 0,7,8
 1304 618 1304 618 1260.5 617 c 128,-1,9
 1217 616 1217 616 1150 614 c 1,10,11
 1154 707 1154 707 1158 782.5 c 128,-1,12
 1162 858 1162 858 1166.5 925 c 128,-1,13
 1171 992 1171 992 1174.5 1054.5 c 128,-1,14
 1178 1117 1178 1117 1182.5 1184 c 128,-1,15
 1187 1251 1187 1251 1191 1326.5 c 128,-1,16
 1195 1402 1195 1402 1199 1494 c 1,17,-1
 1199 1505 l 2,18,19
 1199 1524 1199 1524 1192.5 1530.5 c 128,-1,20
 1186 1537 1186 1537 1175 1537 c 0,21,22
 1169 1537 1169 1537 1162.5 1536 c 128,-1,23
 1156 1535 1156 1535 1148 1533 c 2,24,-1
 832 1450 l 1,25,26
 753 1434 753 1434 703 1397.5 c 128,-1,27
 653 1361 653 1361 617 1310.5 c 128,-1,28
 581 1260 581 1260 552 1199.5 c 128,-1,29
 523 1139 523 1139 485 1076 c 0,30,31
 371 888 371 888 277 733 c 0,32,33
 237 667 237 667 197 601.5 c 128,-1,34
 157 536 157 536 124 480.5 c 128,-1,35
 91 425 91 425 67 385 c 128,-1,36
 43 345 43 345 34 330 c 0,37,38
 24 314 24 314 24 302 c 0,39,40
 24 280 24 280 63 274 c 128,-1,41
 102 268 102 268 190 268 c 0,42,43
 217 268 217 268 271 268.5 c 128,-1,44
 325 269 325 269 396.5 269.5 c 128,-1,45
 468 270 468 270 551 270.5 c 128,-1,46
 634 271 634 271 719 272 c 1,47,48
 711 176 711 176 706.5 101.5 c 128,-1,49
 702 27 702 27 702 -20 c 0,50,51
 702 -41 702 -41 712.5 -48.5 c 128,-1,52
 723 -56 723 -56 737 -56 c 0,53,54
 747 -56 747 -56 775 -48 c 128,-1,55
 803 -40 803 -40 839 -28 c 128,-1,56
 875 -16 875 -16 915 -1.5 c 128,-1,57
 955 13 955 13 990 26.5 c 128,-1,58
 1025 40 1025 40 1050.5 49.5 c 128,-1,59
 1076 59 1076 59 1083 62 c 0,60,61
 1093 66 1093 66 1096 75 c 128,-1,62
 1099 84 1099 84 1100 93 c 2,63,-1
 1118 276 l 1,64,65
 1147 276 1147 276 1171 276.5 c 128,-1,66
 1195 277 1195 277 1212 277 c 0,67,68
 1231 277 1231 277 1247 278 c 1,69,70
 1276 278 1276 278 1283.5 286.5 c 128,-1,71
 1291 295 1291 295 1295 312 c 0,72,73
 1307 373 1307 373 1318 426 c 0,74,75
 1322 448 1322 448 1327 471 c 128,-1,76
 1332 494 1332 494 1335.5 513.5 c 128,-1,77
 1339 533 1339 533 1342 548 c 128,-1,78
 1345 563 1345 563 1347 571 c 0,0,1
437 601 m 1,79,-1
 801 1210 l 1,80,81
 796 1098 796 1098 788 988 c 0,82,83
 785 941 785 941 780.5 890 c 128,-1,84
 776 839 776 839 771 788.5 c 128,-1,85
 766 738 766 738 760 690 c 128,-1,86
 754 642 754 642 747 601 c 1,87,-1
 437 601 l 1,79,-1
EndSplineSet
EndChar

StartChar: five
Encoding: 290 53 34
Width: 1079
Flags: W
HStem: 1113 429<671.752 935.995>
VStem: 599 455<348.652 601.524>
LayerCount: 2
Fore
SplineSet
61 1 m 0,0,1
 61 -1 61 -1 66.5 -7 c 128,-1,2
 72 -13 72 -13 77 -15 c 0,3,4
 122 -39 122 -39 182 -45.5 c 128,-1,5
 242 -52 242 -52 304 -52 c 0,6,7
 389 -52 389 -52 478 -40.5 c 128,-1,8
 567 -29 567 -29 650.5 -2.5 c 128,-1,9
 734 24 734 24 807.5 68 c 128,-1,10
 881 112 881 112 935.5 176.5 c 128,-1,11
 990 241 990 241 1022 329 c 128,-1,12
 1054 417 1054 417 1054 531 c 0,13,14
 1054 654 1054 654 1012.5 741.5 c 128,-1,15
 971 829 971 829 898 886.5 c 128,-1,16
 825 944 825 944 727 973.5 c 128,-1,17
 629 1003 629 1003 515 1009 c 1,18,19
 515 1044 515 1044 520 1065 c 128,-1,20
 525 1086 525 1086 536 1097 c 128,-1,21
 547 1108 547 1108 563.5 1111 c 128,-1,22
 580 1114 580 1114 603 1114 c 0,23,24
 633 1114 633 1114 666.5 1113.5 c 128,-1,25
 700 1113 700 1113 732 1113 c 0,26,27
 771 1113 771 1113 809 1116 c 128,-1,28
 847 1119 847 1119 879.5 1129 c 128,-1,29
 912 1139 912 1139 936 1158 c 128,-1,30
 960 1177 960 1177 970 1210 c 0,31,32
 976 1229 976 1229 984 1257.5 c 128,-1,33
 992 1286 992 1286 1001 1317.5 c 128,-1,34
 1010 1349 1010 1349 1018.5 1381 c 128,-1,35
 1027 1413 1027 1413 1034 1439 c 128,-1,36
 1041 1465 1041 1465 1046 1482.5 c 128,-1,37
 1051 1500 1051 1500 1052 1503 c 0,38,39
 1055 1510 1055 1510 1055 1521 c 0,40,41
 1055 1542 1055 1542 1042 1542 c 1,42,43
 850 1517 850 1517 666 1496.5 c 128,-1,44
 482 1476 482 1476 292 1454 c 1,45,46
 279 1364 279 1364 262.5 1274 c 128,-1,47
 246 1184 246 1184 231 1093.5 c 128,-1,48
 216 1003 216 1003 204.5 912.5 c 128,-1,49
 193 822 193 822 190 732 c 1,50,51
 188 720 188 720 187 711 c 128,-1,52
 186 702 186 702 186 695 c 0,53,54
 186 682 186 682 191.5 676 c 128,-1,55
 197 670 197 670 210.5 668 c 128,-1,56
 224 666 224 666 246.5 666.5 c 128,-1,57
 269 667 269 667 304 667 c 0,58,59
 355 667 355 667 407 662.5 c 128,-1,60
 459 658 459 658 502 639 c 128,-1,61
 545 620 545 620 572 580.5 c 128,-1,62
 599 541 599 541 599 472 c 0,63,64
 599 413 599 413 576 376 c 128,-1,65
 553 339 553 339 515 319 c 128,-1,66
 477 299 477 299 428.5 292 c 128,-1,67
 380 285 380 285 329 285 c 0,68,69
 283 285 283 285 249.5 286.5 c 128,-1,70
 216 288 216 288 177 294 c 1,71,-1
 171 294 l 2,72,73
 159 294 159 294 151.5 288 c 128,-1,74
 144 282 144 282 142 277 c 0,75,76
 123 214 123 214 102 142 c 128,-1,77
 81 70 81 70 61 1 c 0,0,1
EndSplineSet
EndChar

StartChar: six
Encoding: 291 54 35
Width: 1288
Flags: W
HStem: -51 311<616.428 799.331> 783 245<719.144 912>
VStem: 116 455<305.859 707.239> 866 424<335.063 753.533>
LayerCount: 2
Fore
SplineSet
663 -51 m 0,0,1
 817 -51 817 -51 934.5 -7.5 c 128,-1,2
 1052 36 1052 36 1131 114.5 c 128,-1,3
 1210 193 1210 193 1250 303.5 c 128,-1,4
 1290 414 1290 414 1290 549 c 0,5,6
 1290 634 1290 634 1263.5 719.5 c 128,-1,7
 1237 805 1237 805 1183.5 873.5 c 128,-1,8
 1130 942 1130 942 1048.5 985 c 128,-1,9
 967 1028 967 1028 857 1028 c 0,10,11
 820 1028 820 1028 787 1024 c 128,-1,12
 754 1020 754 1020 718 1010 c 1,13,14
 781 1135 781 1135 854 1250 c 128,-1,15
 927 1365 927 1365 1014 1468 c 0,16,17
 1030 1487 1030 1487 1030 1501 c 0,18,19
 1030 1516 1030 1516 1012 1523 c 128,-1,20
 994 1530 994 1530 969 1530 c 2,21,-1
 718 1530 l 2,22,23
 705 1530 705 1530 693.5 1524 c 128,-1,24
 682 1518 682 1518 672 1508 c 128,-1,25
 662 1498 662 1498 653.5 1486.5 c 128,-1,26
 645 1475 645 1475 637 1465 c 0,27,28
 585 1395 585 1395 526 1325 c 128,-1,29
 467 1255 467 1255 409 1183 c 128,-1,30
 351 1111 351 1111 298 1035 c 128,-1,31
 245 959 245 959 204.5 879 c 128,-1,32
 164 799 164 799 140 712.5 c 128,-1,33
 116 626 116 626 116 533 c 0,34,35
 116 413 116 413 149.5 306.5 c 128,-1,36
 183 200 183 200 251.5 120.5 c 128,-1,37
 320 41 320 41 422.5 -5 c 128,-1,38
 525 -51 525 -51 663 -51 c 0,0,1
571 479 m 0,39,40
 571 523 571 523 576.5 576 c 128,-1,41
 582 629 582 629 600 675 c 128,-1,42
 618 721 618 721 652 752 c 128,-1,43
 686 783 686 783 743 783 c 0,44,45
 786 783 786 783 810.5 764 c 128,-1,46
 835 745 835 745 847.5 716 c 128,-1,47
 860 687 860 687 863 650.5 c 128,-1,48
 866 614 866 614 866 580 c 0,49,50
 866 552 866 552 864.5 517 c 128,-1,51
 863 482 863 482 857 446.5 c 128,-1,52
 851 411 851 411 840 377.5 c 128,-1,53
 829 344 829 344 810 318 c 128,-1,54
 791 292 791 292 763.5 276 c 128,-1,55
 736 260 736 260 698 260 c 0,56,57
 659 260 659 260 634.5 283.5 c 128,-1,58
 610 307 610 307 595.5 341 c 128,-1,59
 581 375 581 375 576 413 c 128,-1,60
 571 451 571 451 571 479 c 0,39,40
EndSplineSet
EndChar

StartChar: seven
Encoding: 292 55 36
Width: 1066
Flags: W
LayerCount: 2
Fore
SplineSet
1136 1323 m 1,0,1
 1151 1358 1151 1358 1159 1382 c 128,-1,2
 1167 1406 1167 1406 1167 1422 c 0,3,4
 1167 1454 1167 1454 1129 1454 c 0,5,6
 1067 1454 1067 1454 1014.5 1454 c 128,-1,7
 962 1454 962 1454 910 1453.5 c 128,-1,8
 858 1453 858 1453 802.5 1452.5 c 128,-1,9
 747 1452 747 1452 679 1451.5 c 128,-1,10
 611 1451 611 1451 526.5 1450 c 128,-1,11
 442 1449 442 1449 332 1448 c 0,12,13
 319 1448 319 1448 302.5 1444.5 c 128,-1,14
 286 1441 286 1441 269 1422 c 0,15,16
 267 1420 267 1420 266.5 1417.5 c 128,-1,17
 266 1415 266 1415 264 1413 c 1,18,19
 245 1370 245 1370 226.5 1331 c 128,-1,20
 208 1292 208 1292 189.5 1253.5 c 128,-1,21
 171 1215 171 1215 152 1176 c 128,-1,22
 133 1137 133 1137 114 1094 c 0,23,24
 114 1092 114 1092 108 1079 c 128,-1,25
 102 1066 102 1066 102 1053 c 0,26,27
 102 1039 102 1039 117.5 1035 c 128,-1,28
 133 1031 133 1031 163 1031 c 0,29,30
 190 1031 190 1031 226.5 1031 c 128,-1,31
 263 1031 263 1031 304 1031 c 128,-1,32
 345 1031 345 1031 388.5 1031.5 c 128,-1,33
 432 1032 432 1032 473 1032 c 0,34,35
 570 1033 570 1033 676 1034 c 1,36,37
 563 761 563 761 470 534 c 0,38,39
 430 437 430 437 390 341 c 128,-1,40
 350 245 350 245 316.5 163.5 c 128,-1,41
 283 82 283 82 257.5 23 c 128,-1,42
 232 -36 232 -36 222 -59 c 1,43,44
 213 -77 213 -77 213 -94 c 0,45,46
 213 -109 213 -109 221 -119 c 128,-1,47
 229 -129 229 -129 246 -129 c 0,48,49
 252 -129 252 -129 256 -128 c 0,50,51
 286 -124 286 -124 323 -118 c 128,-1,52
 360 -112 360 -112 400 -104.5 c 128,-1,53
 440 -97 440 -97 481 -89 c 128,-1,54
 522 -81 522 -81 560 -72 c 0,55,56
 573 -69 573 -69 579.5 -66 c 128,-1,57
 586 -63 586 -63 591.5 -53.5 c 128,-1,58
 597 -44 597 -44 604 -24.5 c 128,-1,59
 611 -5 611 -5 626 31 c 0,60,61
 643 73 643 73 674 151 c 128,-1,62
 705 229 705 229 744 328 c 128,-1,63
 783 427 783 427 827 539 c 128,-1,64
 871 651 871 651 915 762 c 0,65,66
 1017 1022 1017 1022 1136 1323 c 1,0,1
EndSplineSet
EndChar

StartChar: eight
Encoding: 293 56 37
Width: 1280
Flags: W
HStem: -52 189<614.639 776.292> 666 233<624.66 771.945> 1289 205<615.414 780.349>
VStem: 112 450<193.554 563.478> 202 375<948.216 1252.17> 816 375<955.18 1256.81> 831 420<241.885 600.991>
LayerCount: 2
Fore
SplineSet
626 -52 m 0,0,1
 696 -52 696 -52 769.5 -38.5 c 128,-1,2
 843 -25 843 -25 912 1.5 c 128,-1,3
 981 28 981 28 1043 68 c 128,-1,4
 1105 108 1105 108 1151 161 c 128,-1,5
 1197 214 1197 214 1224 280.5 c 128,-1,6
 1251 347 1251 347 1251 427 c 0,7,8
 1251 503 1251 503 1235 563 c 128,-1,9
 1219 623 1219 623 1191.5 670.5 c 128,-1,10
 1164 718 1164 718 1126.5 755 c 128,-1,11
 1089 792 1089 792 1047 822 c 1,12,13
 1074 850 1074 850 1099.5 883 c 128,-1,14
 1125 916 1125 916 1145.5 954 c 128,-1,15
 1166 992 1166 992 1178.5 1035 c 128,-1,16
 1191 1078 1191 1078 1191 1128 c 0,17,18
 1191 1215 1191 1215 1153.5 1283 c 128,-1,19
 1116 1351 1116 1351 1056.5 1398 c 128,-1,20
 997 1445 997 1445 922.5 1469.5 c 128,-1,21
 848 1494 848 1494 775 1494 c 0,22,23
 703 1494 703 1494 633 1483 c 128,-1,24
 563 1472 563 1472 499.5 1449.5 c 128,-1,25
 436 1427 436 1427 381.5 1393 c 128,-1,26
 327 1359 327 1359 287 1312 c 128,-1,27
 247 1265 247 1265 224.5 1205 c 128,-1,28
 202 1145 202 1145 202 1071 c 0,29,30
 202 983 202 983 236 912.5 c 128,-1,31
 270 842 270 842 345 790 c 1,32,33
 298 745 298 745 255.5 701 c 128,-1,34
 213 657 213 657 181 607 c 128,-1,35
 149 557 149 557 130.5 499.5 c 128,-1,36
 112 442 112 442 112 370 c 0,37,38
 112 295 112 295 133 235 c 128,-1,39
 154 175 154 175 191 128 c 128,-1,40
 228 81 228 81 278 47 c 128,-1,41
 328 13 328 13 385 -9 c 128,-1,42
 442 -31 442 -31 503.5 -41.5 c 128,-1,43
 565 -52 565 -52 626 -52 c 0,0,1
562 396 m 0,44,45
 562 418 562 418 563.5 446.5 c 128,-1,46
 565 475 565 475 570 505 c 128,-1,47
 575 535 575 535 583.5 564 c 128,-1,48
 592 593 592 593 606 615.5 c 128,-1,49
 620 638 620 638 640.5 652 c 128,-1,50
 661 666 661 666 690 666 c 0,51,52
 727 666 727 666 754 641 c 128,-1,53
 781 616 781 616 798 579 c 128,-1,54
 815 542 815 542 823 500 c 128,-1,55
 831 458 831 458 831 424 c 0,56,57
 831 407 831 407 829 379 c 128,-1,58
 827 351 827 351 822 319 c 128,-1,59
 817 287 817 287 808 254.5 c 128,-1,60
 799 222 799 222 785 196 c 128,-1,61
 771 170 771 170 751.5 153.5 c 128,-1,62
 732 137 732 137 705 137 c 0,63,64
 659 137 659 137 631 163.5 c 128,-1,65
 603 190 603 190 587.5 229.5 c 128,-1,66
 572 269 572 269 567 314 c 128,-1,67
 562 359 562 359 562 396 c 0,44,45
577 1094 m 256,68,69
 577 1123 577 1123 582.5 1157 c 128,-1,70
 588 1191 588 1191 601.5 1220.5 c 128,-1,71
 615 1250 615 1250 638.5 1269.5 c 128,-1,72
 662 1289 662 1289 697 1289 c 0,73,74
 731 1289 731 1289 754 1272 c 128,-1,75
 777 1255 777 1255 790.5 1229.5 c 128,-1,76
 804 1204 804 1204 810 1173.5 c 128,-1,77
 816 1143 816 1143 816 1115 c 0,78,79
 816 1091 816 1091 813.5 1054 c 128,-1,80
 811 1017 811 1017 801 982.5 c 128,-1,81
 791 948 791 948 770 923.5 c 128,-1,82
 749 899 749 899 713 899 c 0,83,84
 676 899 676 899 650.5 918.5 c 128,-1,85
 625 938 625 938 608.5 967.5 c 128,-1,86
 592 997 592 997 584.5 1031 c 128,-1,87
 577 1065 577 1065 577 1094 c 256,68,69
EndSplineSet
EndChar

StartChar: nine
Encoding: 294 57 38
Width: 1326
Flags: W
HStem: 385 293<566 775.436> 1231 262<625.992 825.068>
VStem: 109 438<767.61 1093.75> 875.5 458.5<695.403 1137.72>
LayerCount: 2
Fore
SplineSet
615 -20 m 0,0,1
 640 -27 640 -27 661 -34.5 c 128,-1,2
 682 -42 682 -42 702.5 -51 c 128,-1,3
 723 -60 723 -60 743.5 -71.5 c 128,-1,4
 764 -83 764 -83 790 -97 c 0,5,6
 797 -101 797 -101 804 -101 c 256,7,8
 811 -101 811 -101 815.5 -98 c 128,-1,9
 820 -95 820 -95 823 -92 c 0,10,11
 877 -24 877 -24 935.5 49 c 128,-1,12
 994 122 994 122 1051 199.5 c 128,-1,13
 1108 277 1108 277 1159 360 c 128,-1,14
 1210 443 1210 443 1249 531.5 c 128,-1,15
 1288 620 1288 620 1311 713 c 128,-1,16
 1334 806 1334 806 1334 905 c 0,17,18
 1334 1010 1334 1010 1297.5 1115 c 128,-1,19
 1261 1220 1261 1220 1194 1304 c 128,-1,20
 1127 1388 1127 1388 1032.5 1440.5 c 128,-1,21
 938 1493 938 1493 821 1493 c 0,22,23
 734 1493 734 1493 648 1473.5 c 128,-1,24
 562 1454 562 1454 483 1417.5 c 128,-1,25
 404 1381 404 1381 335.5 1327 c 128,-1,26
 267 1273 267 1273 216.5 1204.5 c 128,-1,27
 166 1136 166 1136 137.5 1052.5 c 128,-1,28
 109 969 109 969 109 873 c 0,29,30
 109 778 109 778 144 689.5 c 128,-1,31
 179 601 179 601 240.5 533.5 c 128,-1,32
 302 466 302 466 385.5 425.5 c 128,-1,33
 469 385 469 385 566 385 c 0,34,35
 618 385 618 385 672.5 394 c 128,-1,36
 727 403 727 403 777 418 c 1,37,38
 764 373 764 373 745.5 322 c 128,-1,39
 727 271 727 271 704 219.5 c 128,-1,40
 681 168 681 168 654.5 118.5 c 128,-1,41
 628 69 628 69 598 27 c 0,42,43
 588 14 588 14 588 3 c 0,44,45
 588 -13 588 -13 615 -20 c 0,0,1
547 946 m 0,46,47
 547 991 547 991 555.5 1041.5 c 128,-1,48
 564 1092 564 1092 586 1134 c 128,-1,49
 608 1176 608 1176 645 1203.5 c 128,-1,50
 682 1231 682 1231 738 1231 c 0,51,52
 770 1231 770 1231 792.5 1216.5 c 128,-1,53
 815 1202 815 1202 830.5 1179 c 128,-1,54
 846 1156 846 1156 855 1126 c 128,-1,55
 864 1096 864 1096 869 1065 c 128,-1,56
 874 1034 874 1034 875.5 1004.5 c 128,-1,57
 877 975 877 975 877 953 c 0,58,59
 877 916 877 916 875.5 887.5 c 128,-1,60
 874 859 874 859 870.5 831 c 128,-1,61
 867 803 867 803 860 771 c 128,-1,62
 853 739 853 739 842 694 c 1,63,64
 816 685 816 685 800 681.5 c 128,-1,65
 784 678 784 678 762 678 c 0,66,67
 704 678 704 678 663 700.5 c 128,-1,68
 622 723 622 723 596.5 760 c 128,-1,69
 571 797 571 797 559 845.5 c 128,-1,70
 547 894 547 894 547 946 c 0,46,47
EndSplineSet
EndChar

StartChar: ampersand
Encoding: 295 38 39
Width: 1560
Flags: W
HStem: -51 284<526 649 665.5 808.057> 1214 234<691.712 870.274>
VStem: 80 434<258.918 469.338> 328 339<973.092 1190.5> 877 313<1038.69 1199.63>
LayerCount: 2
Fore
SplineSet
80 297 m 0,0,1
 80 208 80 208 118.5 143 c 128,-1,2
 157 78 157 78 219.5 34.5 c 128,-1,3
 282 -9 282 -9 362 -30 c 128,-1,4
 442 -51 442 -51 526 -51 c 0,5,6
 602 -51 602 -51 665.5 -43 c 128,-1,7
 729 -35 729 -35 795.5 -14 c 128,-1,8
 862 7 862 7 938.5 42 c 128,-1,9
 1015 77 1015 77 1116 131 c 1,10,-1
 1317 8 l 1,11,12
 1323 2 1323 2 1331 2 c 0,13,14
 1342 2 1342 2 1352 12 c 0,15,16
 1362 21 1362 21 1381 39.5 c 128,-1,17
 1400 58 1400 58 1422 80.5 c 128,-1,18
 1444 103 1444 103 1467 128.5 c 128,-1,19
 1490 154 1490 154 1508 178.5 c 128,-1,20
 1526 203 1526 203 1538 223.5 c 128,-1,21
 1550 244 1550 244 1550 258 c 0,22,23
 1550 260 1550 260 1548 268 c 128,-1,24
 1546 276 1546 276 1536 283 c 0,25,26
 1512 299 1512 299 1489 316 c 128,-1,27
 1466 333 1466 333 1448 346.5 c 128,-1,28
 1430 360 1430 360 1418.5 368.5 c 0,29,-1
 1407 377 l 1,30,-1
 1588 568 l 1,31,32
 1592 575 1592 575 1592 587 c 0,33,34
 1592 606 1592 606 1574 633.5 c 128,-1,35
 1556 661 1556 661 1530.5 687 c 128,-1,36
 1505 713 1505 713 1477.5 734 c 128,-1,37
 1450 755 1450 755 1432 762 c 1,38,-1
 1205 551 l 1,39,40
 1199 551 1199 551 1193.5 550 c 128,-1,41
 1188 549 1188 549 1183 541 c 1,42,43
 1172 541 1172 541 1161 549.5 c 128,-1,44
 1150 558 1150 558 1139 568 c 2,45,-1
 901 759 l 1,46,47
 975 825 975 825 1029.5 874.5 c 128,-1,48
 1084 924 1084 924 1119.5 967.5 c 128,-1,49
 1155 1011 1155 1011 1172.5 1053.5 c 128,-1,50
 1190 1096 1190 1096 1190 1149 c 0,51,52
 1190 1206 1190 1206 1173.5 1250 c 128,-1,53
 1157 1294 1157 1294 1130.5 1327.5 c 128,-1,54
 1104 1361 1104 1361 1070 1384 c 128,-1,55
 1036 1407 1036 1407 1000.5 1421 c 128,-1,56
 965 1435 965 1435 930.5 1441.5 c 128,-1,57
 896 1448 896 1448 869 1448 c 0,58,59
 738 1448 738 1448 637.5 1419.5 c 128,-1,60
 537 1391 537 1391 468 1341.5 c 128,-1,61
 399 1292 399 1292 363.5 1226 c 128,-1,62
 328 1160 328 1160 328 1085 c 0,63,64
 328 1004 328 1004 358.5 918.5 c 128,-1,65
 389 833 389 833 451 750 c 1,66,67
 361 688 361 688 298.5 639 c 128,-1,68
 236 590 236 590 195 550 c 128,-1,69
 154 510 154 510 130.5 477.5 c 128,-1,70
 107 445 107 445 96 415 c 128,-1,71
 85 385 85 385 82.5 356.5 c 128,-1,72
 80 328 80 328 80 297 c 0,0,1
514 361 m 0,73,74
 514 406 514 406 525 437.5 c 128,-1,75
 536 469 536 469 554 491.5 c 128,-1,76
 572 514 572 514 594 529 c 128,-1,77
 616 544 616 544 638 556 c 1,78,-1
 876 325 l 1,79,80
 837 292 837 292 801.5 273.5 c 128,-1,81
 766 255 766 255 737 246 c 128,-1,82
 708 237 708 237 685 235 c 128,-1,83
 662 233 662 233 649 233 c 0,84,85
 608 233 608 233 582 245 c 128,-1,86
 556 257 556 257 541 275.5 c 128,-1,87
 526 294 526 294 520 316.5 c 128,-1,88
 514 339 514 339 514 361 c 0,73,74
791 1214 m 0,89,90
 831 1214 831 1214 854 1194 c 128,-1,91
 877 1174 877 1174 877 1140 c 0,92,93
 877 1102 877 1102 843 1052.5 c 128,-1,94
 809 1003 809 1003 732 951 c 1,95,96
 700 980 700 980 683.5 1018.5 c 128,-1,97
 667 1057 667 1057 667 1094 c 0,98,99
 667 1118 667 1118 674.5 1139.5 c 128,-1,100
 682 1161 682 1161 697 1177.5 c 128,-1,101
 712 1194 712 1194 735.5 1204 c 128,-1,102
 759 1214 759 1214 791 1214 c 0,89,90
EndSplineSet
EndChar

StartChar: l
Encoding: 296 108 40
Width: 622
Flags: MW
HStem: -58 139<152 518>
LayerCount: 2
Fore
SplineSet
189 846 m 0,0,1
 177 709 177 709 167 594 c 128,-1,2
 157 479 157 479 148.5 376 c 128,-1,3
 140 273 140 273 132.5 176.5 c 128,-1,4
 125 80 125 80 117 -21 c 1,5,-1
 117 -27 l 2,6,7
 117 -44 117 -44 127.5 -51 c 128,-1,8
 138 -58 138 -58 152 -58 c 4,9,10
 169 -58 169 -58 187 -52.5 c 128,-1,11
 205 -47 205 -47 216 -42 c 2,12,-1
 478 54 l 1,13,14
 504 61 504 61 511 66.5 c 128,-1,15
 518 72 518 72 518 81 c 6,16,-1
 518 98 l 1,17,-1
 518 104 l 1,18,-1
 648 1526 l 2,19,20
 648 1536 648 1536 637 1536 c 0,21,22
 632 1536 632 1536 628 1535 c 0,23,24
 534 1506 534 1506 440 1488.5 c 128,-1,25
 346 1471 346 1471 254 1454 c 0,26,27
 236 1450 236 1450 231.5 1437.5 c 128,-1,28
 227 1425 227 1425 225 1392 c 0,29,30
 216 1252 216 1252 208.5 1117 c 128,-1,31
 201 982 201 982 189 846 c 0,0,1
EndSplineSet
EndChar

StartChar: o
Encoding: 297 111 41
Width: 1313
Flags: W
HStem: -52 263<579.96 825.604> 844 292<594.178 833.594>
VStem: 100 385<316.321 717.585> 936 369<344.617 735.248>
LayerCount: 2
Fore
SplineSet
670 -52 m 0,0,1
 801 -52 801 -52 916.5 -9.5 c 128,-1,2
 1032 33 1032 33 1118.5 114 c 128,-1,3
 1205 195 1205 195 1255 312 c 128,-1,4
 1305 429 1305 429 1305 578 c 0,5,6
 1305 695 1305 695 1267 797 c 128,-1,7
 1229 899 1229 899 1145 974 c 128,-1,8
 1061 1049 1061 1049 927 1092.5 c 128,-1,9
 793 1136 793 1136 602 1136 c 0,10,11
 597 1136 597 1136 593 1132 c 128,-1,12
 589 1128 589 1128 589 1117 c 0,13,14
 589 1110 589 1110 591.5 1100.5 c 128,-1,15
 594 1091 594 1091 594 1080 c 0,16,17
 594 1074 594 1074 578 1073 c 1,18,19
 472 1055 472 1055 384 1003.5 c 128,-1,20
 296 952 296 952 233 875.5 c 128,-1,21
 170 799 170 799 135 702.5 c 128,-1,22
 100 606 100 606 100 499 c 256,23,24
 100 392 100 392 136 292.5 c 128,-1,25
 172 193 172 193 244 116.5 c 128,-1,26
 316 40 316 40 422.5 -6 c 128,-1,27
 529 -52 529 -52 670 -52 c 0,0,1
485 510 m 0,28,29
 485 539 485 539 489.5 575 c 128,-1,30
 494 611 494 611 504.5 648.5 c 128,-1,31
 515 686 515 686 531.5 721 c 128,-1,32
 548 756 548 756 572 783.5 c 128,-1,33
 596 811 596 811 627 827.5 c 128,-1,34
 658 844 658 844 698 844 c 0,35,36
 756 844 756 844 800.5 820.5 c 128,-1,37
 845 797 845 797 875 759 c 128,-1,38
 905 721 905 721 920.5 671 c 128,-1,39
 936 621 936 621 936 569 c 0,40,41
 936 538 936 538 932 500 c 128,-1,42
 928 462 928 462 918.5 422.5 c 128,-1,43
 909 383 909 383 892.5 346 c 128,-1,44
 876 309 876 309 851 279.5 c 128,-1,45
 826 250 826 250 791.5 231.5 c 128,-1,46
 757 213 757 213 711 211 c 1,47,48
 647 211 647 211 604 237.5 c 128,-1,49
 561 264 561 264 534.5 307 c 128,-1,50
 508 350 508 350 496.5 403 c 128,-1,51
 485 456 485 456 485 510 c 0,28,29
EndSplineSet
EndChar

StartChar: A
Encoding: 298 65 42
Width: 1386
Flags: W
LayerCount: 2
Fore
SplineSet
67 83 m 1,0,1
 116 51 116 51 182.5 17 c 128,-1,2
 249 -17 249 -17 345 -52 c 0,3,4
 347 -53 347 -53 352 -53 c 0,5,6
 360 -53 360 -53 367.5 -48 c 128,-1,7
 375 -43 375 -43 377 -35 c 1,8,9
 394 3 394 3 413 48 c 128,-1,10
 432 93 432 93 448 131 c 0,11,12
 466 176 466 176 485 220 c 1,13,14
 513 219 513 219 542 218 c 0,15,16
 567 217 567 217 597.5 216.5 c 128,-1,17
 628 216 628 216 657 216 c 0,18,19
 680 216 680 216 697 216.5 c 128,-1,20
 714 217 714 217 732 217.5 c 128,-1,21
 750 218 750 218 773.5 218.5 c 128,-1,22
 797 219 797 219 835 219 c 0,23,24
 847 219 847 219 861.5 218.5 c 128,-1,25
 876 218 876 218 888 216 c 128,-1,26
 900 214 900 214 909 210.5 c 128,-1,27
 918 207 918 207 920 202 c 0,28,29
 930 170 930 170 940 142.5 c 128,-1,30
 950 115 950 115 959 87.5 c 128,-1,31
 968 60 968 60 977.5 32 c 128,-1,32
 987 4 987 4 997 -28 c 0,33,34
 999 -36 999 -36 1005 -44.5 c 128,-1,35
 1011 -53 1011 -53 1025 -53 c 0,36,37
 1028 -53 1028 -53 1031.5 -53 c 128,-1,38
 1035 -53 1035 -53 1039 -51 c 0,39,40
 1054 -47 1054 -47 1077.5 -39.5 c 128,-1,41
 1101 -32 1101 -32 1129.5 -23 c 128,-1,42
 1158 -14 1158 -14 1189.5 -3.5 c 128,-1,43
 1221 7 1221 7 1251 17 c 0,44,45
 1322 40 1322 40 1404 67 c 0,46,47
 1423 73 1423 73 1423 79 c 0,48,49
 1423 83 1423 83 1418 90 c 128,-1,50
 1413 97 1413 97 1405 109.5 c 128,-1,51
 1397 122 1397 122 1387.5 141 c 128,-1,52
 1378 160 1378 160 1369 188 c 0,53,54
 1293 419 1293 419 1217 642 c 0,55,56
 1185 737 1185 737 1149.5 839.5 c 128,-1,57
 1114 942 1114 942 1078 1043 c 128,-1,58
 1042 1144 1042 1144 1006.5 1238.5 c 128,-1,59
 971 1333 971 1333 940 1412 c 1,60,61
 937 1427 937 1427 929 1434.5 c 128,-1,62
 921 1442 921 1442 911 1445.5 c 128,-1,63
 901 1449 901 1449 890.5 1449 c 128,-1,64
 880 1449 880 1449 872 1449 c 0,65,66
 852 1449 852 1449 818.5 1442 c 128,-1,67
 785 1435 785 1435 751 1426 c 128,-1,68
 717 1417 717 1417 690.5 1409 c 128,-1,69
 664 1401 664 1401 660 1400 c 0,70,71
 653 1398 653 1398 643 1394 c 128,-1,72
 633 1390 633 1390 622.5 1384 c 128,-1,73
 612 1378 612 1378 602.5 1370 c 128,-1,74
 593 1362 593 1362 588 1351 c 0,75,76
 566 1301 566 1301 540 1239.5 c 128,-1,77
 514 1178 514 1178 486.5 1111 c 128,-1,78
 459 1044 459 1044 431 974.5 c 128,-1,79
 403 905 403 905 377 841 c 0,80,81
 316 690 316 690 254 531 c 0,82,83
 254 530 254 530 239 530 c 128,-1,84
 224 530 224 530 200.5 529.5 c 128,-1,85
 177 529 177 529 149.5 528.5 c 128,-1,86
 122 528 122 528 98.5 527 c 128,-1,87
 75 526 75 526 59 524.5 c 128,-1,88
 43 523 43 523 43 521 c 0,89,90
 43 484 43 484 59 440 c 128,-1,91
 75 396 75 396 95 358 c 0,92,93
 118 313 118 313 147 268 c 1,94,95
 134 235 134 235 120 202 c 0,96,97
 108 174 108 174 94 141.5 c 128,-1,98
 80 109 80 109 67 83 c 1,0,1
741 940 m 1,99,100
 758 857 758 857 776 779 c 0,101,102
 783 745 783 745 791 709 c 128,-1,103
 799 673 799 673 807 638 c 128,-1,104
 815 603 815 603 822.5 570.5 c 128,-1,105
 830 538 830 538 836 511 c 1,106,-1
 596 511 l 1,107,108
 597 516 597 516 597 519.5 c 128,-1,109
 597 523 597 523 597 528 c 1,110,111
 599 535 599 535 606 557 c 128,-1,112
 613 579 613 579 623.5 609.5 c 128,-1,113
 634 640 634 640 647 676 c 128,-1,114
 660 712 660 712 673 749 c 0,115,116
 704 835 704 835 741 940 c 1,99,100
EndSplineSet
EndChar

StartChar: B
Encoding: 299 66 43
Width: 1431
Flags: W
HStem: -52 285<630.379 886.742> 1146 322<716.025 995.522>
VStem: 1031 391<972.272 1105.86> 1047 385<351.495 543.698>
LayerCount: 2
Fore
SplineSet
253 13 m 0,0,1
 294 4 294 4 354.5 -7.5 c 128,-1,2
 415 -19 415 -19 477.5 -28.5 c 128,-1,3
 540 -38 540 -38 597 -45 c 128,-1,4
 654 -52 654 -52 688 -52 c 0,5,6
 781 -52 781 -52 872.5 -31.5 c 128,-1,7
 964 -11 964 -11 1046.5 26.5 c 128,-1,8
 1129 64 1129 64 1199.5 117 c 128,-1,9
 1270 170 1270 170 1321.5 235.5 c 128,-1,10
 1373 301 1373 301 1402.5 377.5 c 128,-1,11
 1432 454 1432 454 1432 538 c 0,12,13
 1432 593 1432 593 1418 631.5 c 128,-1,14
 1404 670 1404 670 1377 701 c 128,-1,15
 1350 732 1350 732 1311.5 760.5 c 128,-1,16
 1273 789 1273 789 1225 824 c 1,17,18
 1259 848 1259 848 1294 878 c 128,-1,19
 1329 908 1329 908 1357.5 942 c 128,-1,20
 1386 976 1386 976 1404 1014 c 128,-1,21
 1422 1052 1422 1052 1422 1093 c 0,22,23
 1422 1188 1422 1188 1380.5 1258.5 c 128,-1,24
 1339 1329 1339 1329 1267.5 1375.5 c 128,-1,25
 1196 1422 1196 1422 1099.5 1445 c 128,-1,26
 1003 1468 1003 1468 894 1468 c 0,27,28
 816 1468 816 1468 733 1457.5 c 128,-1,29
 650 1447 650 1447 566.5 1426.5 c 128,-1,30
 483 1406 483 1406 401 1375.5 c 128,-1,31
 319 1345 319 1345 243 1304 c 1,32,33
 214 1232 214 1232 185 1164 c 128,-1,34
 156 1096 156 1096 129 1018 c 0,35,36
 126 1010 126 1010 126 1001 c 0,37,38
 126 989 126 989 131.5 979 c 128,-1,39
 137 969 137 969 150 969 c 0,40,41
 165 969 165 969 189 975 c 128,-1,42
 213 981 213 981 236.5 988.5 c 128,-1,43
 260 996 260 996 278.5 1002.5 c 128,-1,44
 297 1009 297 1009 301 1009 c 2,45,-1
 302 1009 l 1,46,47
 286 832 286 832 271 660 c 0,48,49
 265 587 265 587 258 507.5 c 128,-1,50
 251 428 251 428 244 349.5 c 128,-1,51
 237 271 237 271 231 197 c 128,-1,52
 225 123 225 123 220 60 c 0,53,54
 220 57 220 57 219.5 56 c 128,-1,55
 219 55 219 55 219 52 c 0,56,57
 219 39 219 39 226 28.5 c 128,-1,58
 233 18 233 18 253 13 c 0,0,1
714 1110 m 1,59,60
 817 1146 817 1146 893 1146 c 0,61,62
 960 1146 960 1146 995.5 1102.5 c 128,-1,63
 1031 1059 1031 1059 1031 977 c 0,64,65
 1031 959 1031 959 1023.5 942.5 c 128,-1,66
 1016 926 1016 926 1003 911.5 c 128,-1,67
 990 897 990 897 974 884.5 c 128,-1,68
 958 872 958 872 941 862 c 0,69,70
 901 838 901 838 851 820 c 1,71,72
 828 784 828 784 809 753 c 0,73,74
 792 726 792 726 776 700 c 128,-1,75
 760 674 760 674 754 663 c 0,76,77
 749 653 749 653 749 642 c 0,78,79
 749 630 749 630 753.5 622.5 c 128,-1,80
 758 615 758 615 771 613 c 256,81,82
 784 611 784 611 809.5 607.5 c 128,-1,83
 835 604 835 604 865.5 597.5 c 128,-1,84
 896 591 896 591 928 580.5 c 128,-1,85
 960 570 960 570 986.5 554.5 c 128,-1,86
 1013 539 1013 539 1030 518 c 128,-1,87
 1047 497 1047 497 1047 468 c 0,88,89
 1047 422 1047 422 1027 386.5 c 128,-1,90
 1007 351 1007 351 974 325 c 128,-1,91
 941 299 941 299 897.5 281.5 c 128,-1,92
 854 264 854 264 808 253 c 128,-1,93
 762 242 762 242 715.5 237.5 c 128,-1,94
 669 233 669 233 629 233 c 1,95,96
 636 314 636 314 643 417 c 128,-1,97
 650 520 650 520 659.5 635 c 128,-1,98
 669 750 669 750 682 871 c 128,-1,99
 695 992 695 992 714 1110 c 1,59,60
EndSplineSet
EndChar

StartChar: C
Encoding: 300 67 44
Width: 1294
Flags: W
HStem: -52 339<728.625 870 906 1120.57> 1126 342<771.224 1120.25>
VStem: 126 454<461.742 915.621>
LayerCount: 2
Fore
SplineSet
126 676 m 0,0,1
 126 515 126 515 178 381 c 128,-1,2
 230 247 230 247 320.5 151 c 128,-1,3
 411 55 411 55 534 1.5 c 128,-1,4
 657 -52 657 -52 798 -52 c 0,5,6
 850 -52 850 -52 906 -48.5 c 128,-1,7
 962 -45 962 -45 1017.5 -34.5 c 128,-1,8
 1073 -24 1073 -24 1125.5 -5.5 c 128,-1,9
 1178 13 1178 13 1224 42 c 0,10,11
 1225 42 1225 42 1225.5 57.5 c 128,-1,12
 1226 73 1226 73 1226.5 98 c 128,-1,13
 1227 123 1227 123 1227.5 154.5 c 128,-1,14
 1228 186 1228 186 1228 219 c 128,-1,15
 1228 252 1228 252 1228 283.5 c 128,-1,16
 1228 315 1228 315 1228 339 c 0,17,18
 1228 356 1228 356 1225.5 361.5 c 128,-1,19
 1223 367 1223 367 1216 367 c 0,20,21
 1210 367 1210 367 1206 366 c 1,22,23
 1164 343 1164 343 1127.5 328 c 128,-1,24
 1091 313 1091 313 1053 304 c 128,-1,25
 1015 295 1015 295 971 291 c 128,-1,26
 927 287 927 287 870 287 c 0,27,28
 798 287 798 287 743.5 320.5 c 128,-1,29
 689 354 689 354 652.5 410 c 128,-1,30
 616 466 616 466 598 540.5 c 128,-1,31
 580 615 580 615 580 697 c 0,32,33
 580 790 580 790 606 868.5 c 128,-1,34
 632 947 632 947 679 1004 c 128,-1,35
 726 1061 726 1061 793 1093.5 c 128,-1,36
 860 1126 860 1126 942 1126 c 0,37,38
 1004 1126 1004 1126 1056.5 1107.5 c 128,-1,39
 1109 1089 1109 1089 1151.5 1065.5 c 128,-1,40
 1194 1042 1194 1042 1226 1020.5 c 128,-1,41
 1258 999 1258 999 1279 993 c 0,42,43
 1292 990 1292 990 1301 990 c 0,44,45
 1317 990 1317 990 1321 997.5 c 128,-1,46
 1325 1005 1325 1005 1325 1011 c 0,47,48
 1325 1048 1325 1048 1322.5 1098.5 c 128,-1,49
 1320 1149 1320 1149 1316.5 1198 c 128,-1,50
 1313 1247 1313 1247 1310.5 1287 c 128,-1,51
 1308 1327 1308 1327 1308 1342 c 0,52,53
 1308 1349 1308 1349 1309 1349 c 1,54,55
 1272 1382 1272 1382 1214 1408 c 0,56,57
 1164 1431 1164 1431 1087 1449.5 c 128,-1,58
 1010 1468 1010 1468 900 1468 c 0,59,60
 789 1468 789 1468 688.5 1440 c 128,-1,61
 588 1412 588 1412 502 1360.5 c 128,-1,62
 416 1309 416 1309 346.5 1237 c 128,-1,63
 277 1165 277 1165 228 1077 c 128,-1,64
 179 989 179 989 152.5 887.5 c 128,-1,65
 126 786 126 786 126 676 c 0,0,1
EndSplineSet
EndChar

StartChar: a
Encoding: 301 97 45
Width: 1248
Flags: MW
HStem: -52 142<885 1191> -52 270<505 712.226> 853 263<593.504 795.301>
VStem: 104 397<286.938 738.496>
LayerCount: 2
Fore
SplineSet
1244 1133 m 1,0,1
 1166 1129 1166 1129 1094.5 1120.5 c 128,-1,2
 1023 1112 1023 1112 951 1102 c 1,3,4
 928 1100 928 1100 918 1096.5 c 128,-1,5
 908 1093 908 1093 904.5 1083 c 128,-1,6
 901 1073 901 1073 900 1055 c 128,-1,7
 899 1037 899 1037 893 1007 c 1,8,9
 833 1055 833 1055 766 1085.5 c 128,-1,10
 699 1116 699 1116 624 1116 c 0,11,12
 518 1116 518 1116 423.5 1069.5 c 128,-1,13
 329 1023 329 1023 258 938 c 128,-1,14
 187 853 187 853 145.5 735 c 128,-1,15
 104 617 104 617 104 474 c 0,16,17
 104 353 104 353 141.5 256 c 128,-1,18
 179 159 179 159 241 90.5 c 128,-1,19
 303 22 303 22 383 -15 c 128,-1,20
 463 -52 463 -52 547 -52 c 0,21,22
 618 -52 618 -52 691.5 -18 c 128,-1,23
 765 16 765 16 828 89 c 1,24,25
 833 68 833 68 839.5 43.5 c 128,-1,26
 846 19 846 19 853.5 -2.5 c 128,-1,27
 861 -24 861 -24 869 -38 c 128,-1,28
 877 -52 877 -52 885 -52 c 4,29,30
 890 -52 890 -52 892 -51 c 2,31,-1
 1161 64 l 2,32,33
 1191 77 1191 77 1191 90 c 4,34,35
 1191 95 1191 95 1183 101.5 c 128,-1,36
 1175 108 1175 108 1165.5 119 c 128,-1,37
 1156 130 1156 130 1148 146 c 128,-1,38
 1140 162 1140 162 1140 187 c 0,39,40
 1140 190 1140 190 1140 193.5 c 128,-1,41
 1140 197 1140 197 1141 201 c 2,42,-1
 1244 1133 l 1,0,1
800 282 m 1,43,44
 762 252 762 252 725 235 c 128,-1,45
 688 218 688 218 658 218 c 0,46,47
 584 218 584 218 542.5 291.5 c 128,-1,48
 501 365 501 365 501 523 c 0,49,50
 501 567 501 567 510.5 624 c 128,-1,51
 520 681 520 681 542.5 732 c 128,-1,52
 565 783 565 783 601.5 818 c 128,-1,53
 638 853 638 853 692 853 c 0,54,55
 724 853 724 853 754 841 c 128,-1,56
 784 829 784 829 808 815 c 0,57,58
 836 798 836 798 861 778 c 1,59,60
 860 747 860 747 857 714 c 0,61,62
 855 685 855 685 851.5 649 c 128,-1,63
 848 613 848 613 842 578 c 1,64,-1
 800 282 l 1,43,44
EndSplineSet
EndChar

StartChar: i
Encoding: 302 105 46
Width: 612
Flags: MW
HStem: -52 124<118 483> 1032 84<224 591>
LayerCount: 2
Fore
SplineSet
146 424 m 0,0,1
 143 391 143 391 138.5 344.5 c 128,-1,2
 134 298 134 298 129.5 246.5 c 128,-1,3
 125 195 125 195 121 144 c 128,-1,4
 117 93 117 93 114 52 c 128,-1,5
 111 11 111 11 109 -15 c 128,-1,6
 107 -41 107 -41 107 -42 c 0,7,8
 107 -52 107 -52 118 -52 c 0,9,10
 123 -52 123 -52 127 -51 c 0,11,12
 223 -18 223 -18 310.5 14 c 128,-1,13
 398 46 398 46 483 72 c 1,14,15
 501 76 501 76 505 88.5 c 128,-1,16
 509 101 509 101 512 134 c 2,17,-1
 602 1106 l 1,18,-1
 602 1108 l 2,19,20
 602 1116 602 1116 591 1116 c 4,21,22
 586 1116 586 1116 582 1115 c 0,23,24
 496 1086 496 1086 402.5 1067.5 c 128,-1,25
 309 1049 309 1049 224 1032 c 4,26,27
 206 1028 206 1028 201.5 1015.5 c 128,-1,28
 197 1003 197 1003 195 970 c 0,29,30
 185 830 185 830 172 695 c 128,-1,31
 159 560 159 560 146 424 c 0,0,1
221 1222 m 0,32,33
 221 1212 221 1212 232 1212 c 0,34,35
 237 1212 237 1212 241 1213 c 0,36,37
 337 1232 337 1232 424.5 1251 c 128,-1,38
 512 1270 512 1270 597 1286 c 0,39,40
 614 1289 614 1289 618.5 1302 c 128,-1,41
 623 1315 623 1315 626 1348 c 2,42,-1
 648 1622 l 1,43,44
 647 1623 647 1623 645 1624 c 0,45,46
 642 1625 642 1625 637 1632 c 1,47,48
 632 1632 632 1632 628 1631 c 0,49,50
 542 1602 542 1602 448.5 1583.5 c 128,-1,51
 355 1565 355 1565 270 1548 c 0,52,53
 252 1544 252 1544 247.5 1531.5 c 128,-1,54
 243 1519 243 1519 241 1486 c 0,55,56
 236 1421 236 1421 233.5 1391.5 c 128,-1,57
 231 1362 231 1362 230.5 1352 c 128,-1,58
 230 1342 230 1342 229.5 1341.5 c 128,-1,59
 229 1341 229 1341 228.5 1333.5 c 128,-1,60
 228 1326 228 1326 226.5 1302.5 c 128,-1,61
 225 1279 225 1279 221 1222 c 0,32,33
EndSplineSet
EndChar

StartChar: d
Encoding: 303 100 47
Width: 1329
Flags: W
HStem: -52 263<456 688.873> 844 272<607.096 816.123>
VStem: 104 395<268.13 711.129>
LayerCount: 2
Fore
SplineSet
856 341 m 1,0,1
 823 288 823 288 768 251 c 128,-1,2
 713 214 713 214 625 211 c 1,3,4
 589 211 589 211 565 237.5 c 128,-1,5
 541 264 541 264 526.5 307 c 128,-1,6
 512 350 512 350 505.5 403 c 128,-1,7
 499 456 499 456 499 510 c 0,8,9
 499 554 499 554 510.5 611.5 c 128,-1,10
 522 669 522 669 548 721 c 128,-1,11
 574 773 574 773 617 808.5 c 128,-1,12
 660 844 660 844 722 844 c 0,13,14
 785 844 785 844 827 806 c 128,-1,15
 869 768 869 768 892 709 c 1,16,17
 887 671 887 671 883.5 636 c 128,-1,18
 880 601 880 601 877 569 c 2,19,-1
 856 341 l 1,0,1
1355 1509 m 2,20,21
 1355 1511 1355 1511 1355.5 1517.5 c 128,-1,22
 1356 1524 1356 1524 1356 1526 c 0,23,24
 1356 1543 1356 1543 1344.5 1549 c 128,-1,25
 1333 1555 1333 1555 1320 1555 c 0,26,27
 1303 1555 1303 1555 1285 1548 c 128,-1,28
 1267 1541 1267 1541 1256 1539 c 2,29,-1
 975 1472 l 2,30,31
 948 1465 948 1465 941.5 1459.5 c 128,-1,32
 935 1454 935 1454 935 1445 c 0,33,34
 932 1397 932 1397 928.5 1339 c 128,-1,35
 925 1281 925 1281 921 1221.5 c 128,-1,36
 917 1162 917 1162 912.5 1104.5 c 128,-1,37
 908 1047 908 1047 905 998 c 1,38,39
 854 1050 854 1050 796.5 1083 c 128,-1,40
 739 1116 739 1116 676 1116 c 0,41,42
 559 1116 559 1116 455 1071.5 c 128,-1,43
 351 1027 351 1027 273 945.5 c 128,-1,44
 195 864 195 864 149.5 749.5 c 128,-1,45
 104 635 104 635 104 496 c 0,46,47
 104 389 104 389 130.5 290.5 c 128,-1,48
 157 192 157 192 208 115.5 c 128,-1,49
 259 39 259 39 333.5 -6.5 c 128,-1,50
 408 -52 408 -52 504 -52 c 0,51,52
 591 -52 591 -52 671.5 -16 c 128,-1,53
 752 20 752 20 826 80 c 1,54,55
 824 62 824 62 823 51 c 128,-1,56
 822 40 822 40 821 30.5 c 128,-1,57
 820 21 820 21 819.5 10 c 128,-1,58
 819 -1 819 -1 819 -19 c 0,59,60
 819 -38 819 -38 829.5 -45 c 128,-1,61
 840 -52 840 -52 854 -52 c 0,62,63
 871 -52 871 -52 889 -46 c 128,-1,64
 907 -40 907 -40 918 -36 c 2,65,-1
 1186 51 l 1,66,67
 1213 58 1213 58 1219.5 63.5 c 128,-1,68
 1226 69 1226 69 1226 78 c 0,69,70
 1226 81 1226 81 1225.5 84 c 128,-1,71
 1225 87 1225 87 1225 92 c 0,72,73
 1225 94 1225 94 1225.5 96.5 c 128,-1,74
 1226 99 1226 99 1226 101 c 2,75,-1
 1355 1509 l 2,20,21
EndSplineSet
EndChar

StartChar: p
Encoding: 304 112 48
Width: 1325
Flags: W
HStem: -52 262<608.433 824.823> 849 267<736.667 1002>
VStem: 938 381<370.798 786.173>
LayerCount: 2
Fore
SplineSet
570 713 m 1,0,1
 585 736 585 736 609 760 c 128,-1,2
 633 784 633 784 661.5 804 c 128,-1,3
 690 824 690 824 721.5 836.5 c 128,-1,4
 753 849 753 849 785 849 c 0,5,6
 824 849 824 849 852.5 829.5 c 128,-1,7
 881 810 881 810 900 775.5 c 128,-1,8
 919 741 919 741 928.5 694 c 128,-1,9
 938 647 938 647 938 592 c 0,10,11
 938 525 938 525 924 457 c 128,-1,12
 910 389 910 389 882.5 334 c 128,-1,13
 855 279 855 279 813.5 244.5 c 128,-1,14
 772 210 772 210 717 210 c 0,15,16
 654 210 654 210 609 248 c 128,-1,17
 564 286 564 286 541 345 c 1,18,19
 542 364 542 364 544.5 385.5 c 128,-1,20
 547 407 547 407 550 444.5 c 128,-1,21
 553 482 553 482 557 542 c 128,-1,22
 561 602 561 602 567 698 c 1,23,-1
 570 713 l 1,0,1
587 991 m 1,24,25
 595 1042 595 1042 599.5 1070.5 c 128,-1,26
 604 1099 604 1099 606.5 1113 c 128,-1,27
 609 1127 609 1127 609.5 1131 c 128,-1,28
 610 1135 610 1135 610 1137 c 0,29,30
 610 1142 610 1142 608.5 1144.5 c 128,-1,31
 607 1147 607 1147 599 1147 c 1,32,33
 508 1118 508 1118 411.5 1099.5 c 128,-1,34
 315 1081 315 1081 225 1063 c 0,35,36
 207 1059 207 1059 202.5 1046.5 c 128,-1,37
 198 1034 198 1034 195 1001 c 2,38,-1
 73 -459 l 1,39,-1
 73 -463 l 2,40,41
 73 -482 73 -482 83.5 -489 c 128,-1,42
 94 -496 94 -496 108 -496 c 0,43,44
 125 -496 125 -496 143 -489.5 c 128,-1,45
 161 -483 161 -483 172 -480 c 2,46,-1
 435 -413 l 2,47,48
 461 -406 461 -406 468.5 -400.5 c 128,-1,49
 476 -395 476 -395 476 -387 c 0,50,51
 476 -382 476 -382 475.5 -376.5 c 128,-1,52
 475 -371 475 -371 475 -363 c 0,53,54
 475 -358 475 -358 477.5 -326.5 c 128,-1,55
 480 -295 480 -295 484 -250 c 128,-1,56
 488 -205 488 -205 492.5 -153.5 c 128,-1,57
 497 -102 497 -102 501 -57 c 128,-1,58
 505 -12 505 -12 508 19.5 c 128,-1,59
 511 51 511 51 511 56 c 1,60,61
 571 8 571 8 639.5 -22 c 128,-1,62
 708 -52 708 -52 783 -52 c 0,63,64
 868 -52 868 -52 941 -23 c 128,-1,65
 1014 6 1014 6 1073.5 56.5 c 128,-1,66
 1133 107 1133 107 1179 175 c 128,-1,67
 1225 243 1225 243 1256 320.5 c 128,-1,68
 1287 398 1287 398 1303 481 c 128,-1,69
 1319 564 1319 564 1319 645 c 0,70,71
 1319 738 1319 738 1297.5 823 c 128,-1,72
 1276 908 1276 908 1231 973.5 c 128,-1,73
 1186 1039 1186 1039 1117.5 1077.5 c 128,-1,74
 1049 1116 1049 1116 955 1116 c 0,75,76
 856 1116 856 1116 763 1081.5 c 128,-1,77
 670 1047 670 1047 587 991 c 1,24,25
EndSplineSet
EndChar

StartChar: n
Encoding: 305 110 49
Width: 1322
Flags: MW
HStem: -52 111<142 1234> 851 265<787.176 1092.5>
VStem: 851 383<45.1572 423.406> 917 374<302.469 835.119>
LayerCount: 2
Fore
SplineSet
1193 32 m 2,0,1
 1219 40 1219 40 1226.5 45 c 128,-1,2
 1234 50 1234 50 1234 59 c 4,3,4
 1234 63 1234 63 1233.5 68.5 c 128,-1,5
 1233 74 1233 74 1233 82 c 0,6,7
 1233 129 1233 129 1234 164.5 c 128,-1,8
 1235 200 1235 200 1240 242 c 2,9,-1
 1286 672 l 2,10,11
 1289 699 1289 699 1290 724.5 c 128,-1,12
 1291 750 1291 750 1291 774 c 0,13,14
 1291 945 1291 945 1227 1030.5 c 128,-1,15
 1163 1116 1163 1116 1022 1116 c 0,16,17
 981 1116 981 1116 934 1111.5 c 128,-1,18
 887 1107 887 1107 833.5 1093.5 c 128,-1,19
 780 1080 780 1080 719.5 1055.5 c 128,-1,20
 659 1031 659 1031 590 991 c 1,21,22
 598 1042 598 1042 602.5 1070.5 c 128,-1,23
 607 1099 607 1099 609.5 1113 c 128,-1,24
 612 1127 612 1127 612.5 1131 c 128,-1,25
 613 1135 613 1135 613 1137 c 0,26,27
 613 1142 613 1142 611.5 1144.5 c 128,-1,28
 610 1147 610 1147 602 1147 c 1,29,30
 511 1118 511 1118 414.5 1099.5 c 128,-1,31
 318 1081 318 1081 228 1063 c 0,32,33
 210 1059 210 1059 205.5 1046.5 c 128,-1,34
 201 1034 201 1034 198 1001 c 2,35,-1
 107 -15 l 1,36,-1
 107 -21 l 2,37,38
 107 -38 107 -38 117.5 -45 c 128,-1,39
 128 -52 128 -52 142 -52 c 4,40,41
 159 -52 159 -52 177 -46 c 128,-1,42
 195 -40 195 -40 206 -36 c 2,43,-1
 471 55 l 1,44,45
 497 62 497 62 504.5 67.5 c 128,-1,46
 512 73 512 73 512 81 c 0,47,48
 512 86 512 86 511.5 91.5 c 128,-1,49
 511 97 511 97 511 105 c 0,50,51
 511 109 511 109 512.5 127 c 128,-1,52
 514 145 514 145 516.5 170 c 128,-1,53
 519 195 519 195 522 223 c 128,-1,54
 525 251 525 251 527.5 276 c 128,-1,55
 530 301 530 301 531.5 318.5 c 128,-1,56
 533 336 533 336 534 341 c 0,57,58
 535 357 535 357 538 380 c 128,-1,59
 541 403 541 403 544.5 439.5 c 128,-1,60
 548 476 548 476 553 528.5 c 128,-1,61
 558 581 558 581 564 655 c 0,62,63
 568 710 568 710 599 747.5 c 128,-1,64
 630 785 630 785 670 808 c 128,-1,65
 710 831 710 831 750.5 841 c 128,-1,66
 791 851 791 851 814 851 c 0,67,68
 845 851 845 851 865 841 c 128,-1,69
 885 831 885 831 896.5 812.5 c 128,-1,70
 908 794 908 794 912.5 768.5 c 128,-1,71
 917 743 917 743 917 713 c 0,72,73
 917 668 917 668 913 615 c 128,-1,74
 909 562 909 562 904 511 c 0,75,76
 896 428 896 428 891 372.5 c 128,-1,77
 886 317 886 317 882 276.5 c 128,-1,78
 878 236 878 236 874.5 205.5 c 128,-1,79
 871 175 871 175 868 144.5 c 128,-1,80
 865 114 865 114 861 76.5 c 128,-1,81
 857 39 857 39 851 -15 c 1,82,-1
 851 -21 l 2,83,84
 851 -38 851 -38 861.5 -45 c 128,-1,85
 872 -52 872 -52 886 -52 c 0,86,87
 903 -52 903 -52 921 -45.5 c 128,-1,88
 939 -39 939 -39 950 -36 c 2,89,-1
 1193 32 l 2,0,1
EndSplineSet
EndChar

StartChar: c
Encoding: 306 99 50
Width: 1053
Flags: W
HStem: -52 302<582.062 932.769> 815 301<616.468 995.924>
VStem: 100 384<347.251 679.252>
LayerCount: 2
Fore
SplineSet
100 488 m 0,0,1
 100 367 100 367 143 267.5 c 128,-1,2
 186 168 186 168 260.5 97 c 128,-1,3
 335 26 335 26 436 -13 c 128,-1,4
 537 -52 537 -52 654 -52 c 0,5,6
 696 -52 696 -52 741 -49 c 128,-1,7
 786 -46 786 -46 830.5 -37.5 c 128,-1,8
 875 -29 875 -29 917 -13.5 c 128,-1,9
 959 2 959 2 995 26 c 0,10,11
 996 26 996 26 997 55 c 128,-1,12
 998 84 998 84 998.5 125.5 c 128,-1,13
 999 167 999 167 999 212.5 c 128,-1,14
 999 258 999 258 999 290 c 0,15,16
 999 304 999 304 996.5 309 c 128,-1,17
 994 314 994 314 989 314 c 256,18,19
 984 314 984 314 981 313 c 0,20,21
 928 283 928 283 866.5 266.5 c 128,-1,22
 805 250 805 250 745 250 c 0,23,24
 693 250 693 250 646 264 c 128,-1,25
 599 278 599 278 563 308.5 c 128,-1,26
 527 339 527 339 505.5 387.5 c 128,-1,27
 484 436 484 436 484 505 c 0,28,29
 484 571 484 571 504.5 628 c 128,-1,30
 525 685 525 685 563 726.5 c 128,-1,31
 601 768 601 768 654 791.5 c 128,-1,32
 707 815 707 815 773 815 c 0,33,34
 826 815 826 815 869.5 806.5 c 128,-1,35
 913 798 913 798 946.5 788 c 128,-1,36
 980 778 980 778 1003 769.5 c 128,-1,37
 1026 761 1026 761 1038 761 c 0,38,39
 1051 761 1051 761 1054 767 c 128,-1,40
 1057 773 1057 773 1057 778 c 0,41,42
 1057 806 1057 806 1061.5 844.5 c 128,-1,43
 1066 883 1066 883 1071.5 919.5 c 128,-1,44
 1077 956 1077 956 1081.5 983.5 c 128,-1,45
 1086 1011 1086 1011 1086 1017 c 0,46,47
 1086 1018 1086 1018 1066.5 1033.5 c 128,-1,48
 1047 1049 1047 1049 1005 1067.5 c 128,-1,49
 963 1086 963 1086 897 1101 c 128,-1,50
 831 1116 831 1116 738 1116 c 0,51,52
 601 1116 601 1116 484.5 1067 c 128,-1,53
 368 1018 368 1018 282.5 933 c 128,-1,54
 197 848 197 848 148.5 733.5 c 128,-1,55
 100 619 100 619 100 488 c 0,0,1
EndSplineSet
EndChar

StartChar: m
Encoding: 307 109 51
Width: 1950
Flags: MW
HStem: -52 1149.5<142 412.5> 849 267<777.01 982 1388.14 1613> 989 108.5<412.5 597>
LayerCount: 2
Fore
SplineSet
1821 32 m 2,0,1
 1847 40 1847 40 1854.5 45 c 128,-1,2
 1862 50 1862 50 1862 59 c 0,3,4
 1862 63 1862 63 1861.5 68.5 c 128,-1,5
 1861 74 1861 74 1861 82 c 0,6,7
 1861 129 1861 129 1862 164.5 c 128,-1,8
 1863 200 1863 200 1868 242 c 2,9,-1
 1914 670 l 2,10,11
 1917 697 1917 697 1918 722.5 c 128,-1,12
 1919 748 1919 748 1919 772 c 0,13,14
 1919 866 1919 866 1895 931.5 c 128,-1,15
 1871 997 1871 997 1829.5 1038 c 128,-1,16
 1788 1079 1788 1079 1732 1097 c 128,-1,17
 1676 1115 1676 1115 1613 1115 c 0,18,19
 1563 1115 1563 1115 1510 1105 c 128,-1,20
 1457 1095 1457 1095 1404.5 1077 c 128,-1,21
 1352 1059 1352 1059 1301.5 1034 c 128,-1,22
 1251 1009 1251 1009 1206 980 c 1,23,24
 1168 1053 1168 1053 1109 1084.5 c 128,-1,25
 1050 1116 1050 1116 982 1116 c 0,26,27
 932 1116 932 1116 879.5 1103 c 128,-1,28
 827 1090 827 1090 777 1071 c 128,-1,29
 727 1052 727 1052 680.5 1030 c 128,-1,30
 634 1008 634 1008 597 989 c 1,31,32
 599 1009 599 1009 601.5 1034 c 128,-1,33
 604 1059 604 1059 606 1082 c 0,34,35
 608 1108 608 1108 610 1135 c 0,36,37
 610 1140 610 1140 608.5 1142.5 c 128,-1,38
 607 1145 607 1145 599 1145 c 1,39,40
 508 1116 508 1116 412.5 1097.5 c 128,-1,41
 317 1079 317 1079 227 1061 c 0,42,43
 209 1057 209 1057 204.5 1044.5 c 128,-1,44
 200 1032 200 1032 197 999 c 2,45,-1
 107 -15 l 1,46,-1
 107 -21 l 2,47,48
 107 -38 107 -38 117.5 -45 c 128,-1,49
 128 -52 128 -52 142 -52 c 0,50,51
 159 -52 159 -52 177 -46 c 128,-1,52
 195 -40 195 -40 206 -36 c 2,53,-1
 468 57 l 2,54,55
 485 63 485 63 494.5 68 c 128,-1,56
 504 73 504 73 509 79 c 128,-1,57
 514 85 514 85 515 92 c 128,-1,58
 516 99 516 99 516 109 c 2,59,-1
 516 127 l 2,60,61
 516 131 516 131 517.5 149.5 c 128,-1,62
 519 168 519 168 521.5 193.5 c 128,-1,63
 524 219 524 219 526.5 248.5 c 128,-1,64
 529 278 529 278 531.5 303.5 c 128,-1,65
 534 329 534 329 535.5 347.5 c 128,-1,66
 537 366 537 366 538 370 c 0,67,68
 539 386 539 386 540.5 404.5 c 128,-1,69
 542 423 542 423 545 453.5 c 128,-1,70
 548 484 548 484 553 531.5 c 128,-1,71
 558 579 558 579 566 653 c 1,72,73
 570 708 570 708 596.5 745.5 c 128,-1,74
 623 783 623 783 657.5 806 c 128,-1,75
 692 829 692 829 726.5 839 c 128,-1,76
 761 849 761 849 781 849 c 0,77,78
 809 849 809 849 827 835 c 128,-1,79
 845 821 845 821 855.5 796.5 c 128,-1,80
 866 772 866 772 870 737.5 c 128,-1,81
 874 703 874 703 874 661 c 0,82,83
 874 628 874 628 869 588.5 c 128,-1,84
 864 549 864 549 861 509 c 0,85,86
 854 435 854 435 849 389.5 c 128,-1,87
 844 344 844 344 841.5 316.5 c 128,-1,88
 839 289 839 289 837 274 c 128,-1,89
 835 259 835 259 833.5 246.5 c 128,-1,90
 832 234 832 234 830.5 219.5 c 128,-1,91
 829 205 829 205 826 177 c 128,-1,92
 823 149 823 149 818 103.5 c 128,-1,93
 813 58 813 58 806 -15 c 1,94,-1
 806 -21 l 2,95,96
 806 -38 806 -38 816.5 -45 c 128,-1,97
 827 -52 827 -52 841 -52 c 0,98,99
 858 -52 858 -52 876 -45.5 c 128,-1,100
 894 -39 894 -39 905 -36 c 2,101,-1
 1140 32 l 2,102,103
 1166 40 1166 40 1173.5 45 c 128,-1,104
 1181 50 1181 50 1181 59 c 0,105,106
 1181 63 1181 63 1180.5 68.5 c 128,-1,107
 1180 74 1180 74 1180 82 c 0,108,109
 1180 98 1180 98 1181.5 116 c 128,-1,110
 1183 134 1183 134 1185.5 161.5 c 128,-1,111
 1188 189 1188 189 1193 229 c 128,-1,112
 1198 269 1198 269 1205 329 c 128,-1,113
 1212 389 1212 389 1221.5 472.5 c 128,-1,114
 1231 556 1231 556 1243 670 c 1,115,-1
 1243 674 l 1,116,117
 1250 725 1250 725 1275 758.5 c 128,-1,118
 1300 792 1300 792 1331 812.5 c 128,-1,119
 1362 833 1362 833 1392.5 841 c 128,-1,120
 1423 849 1423 849 1442 849 c 0,121,122
 1473 849 1473 849 1493 835 c 128,-1,123
 1513 821 1513 821 1524.5 796.5 c 128,-1,124
 1536 772 1536 772 1540.5 737.5 c 128,-1,125
 1545 703 1545 703 1545 661 c 0,126,127
 1545 628 1545 628 1540 588.5 c 128,-1,128
 1535 549 1535 549 1532 509 c 0,129,130
 1525 435 1525 435 1520 389.5 c 128,-1,131
 1515 344 1515 344 1512 316.5 c 128,-1,132
 1509 289 1509 289 1507.5 274 c 128,-1,133
 1506 259 1506 259 1504.5 246.5 c 128,-1,134
 1503 234 1503 234 1501 219.5 c 128,-1,135
 1499 205 1499 205 1496 177 c 128,-1,136
 1493 149 1493 149 1488 103.5 c 128,-1,137
 1483 58 1483 58 1476 -15 c 1,138,-1
 1476 -21 l 2,139,140
 1476 -38 1476 -38 1486.5 -45 c 128,-1,141
 1497 -52 1497 -52 1511 -52 c 0,142,143
 1528 -52 1528 -52 1546 -45.5 c 128,-1,144
 1564 -39 1564 -39 1575 -36 c 2,145,-1
 1821 32 l 2,0,1
EndSplineSet
EndChar

StartChar: h
Encoding: 308 104 52
Width: 1328
Flags: MW
HStem: -52 111<155 1241> 851 265<775.781 1004>
VStem: 921 374<549.845 830.494> 921 320<188.569 633.656>
LayerCount: 2
Fore
SplineSet
120 -15 m 1,0,1
 120 -35 120 -35 130 -43.5 c 128,-1,2
 140 -52 140 -52 155 -52 c 4,3,4
 172 -52 172 -52 190 -46 c 128,-1,5
 208 -40 208 -40 219 -36 c 2,6,-1
 480 55 l 1,7,8
 506 62 506 62 513.5 67.5 c 128,-1,9
 521 73 521 73 521 81 c 0,10,11
 521 86 521 86 520.5 91.5 c 128,-1,12
 520 97 520 97 520 105 c 0,13,14
 520 109 520 109 521.5 129 c 128,-1,15
 523 149 523 149 526 176 c 128,-1,16
 529 203 529 203 532 233.5 c 128,-1,17
 535 264 535 264 537.5 291 c 128,-1,18
 540 318 540 318 542 337.5 c 128,-1,19
 544 357 544 357 545 362 c 0,20,21
 546 378 546 378 547.5 397 c 128,-1,22
 549 416 549 416 551.5 448 c 128,-1,23
 554 480 554 480 559 529 c 128,-1,24
 564 578 564 578 572 655 c 1,25,26
 576 710 576 710 606.5 747.5 c 128,-1,27
 637 785 637 785 676.5 808 c 128,-1,28
 716 831 716 831 756 841 c 128,-1,29
 796 851 796 851 818 851 c 0,30,31
 849 851 849 851 869 837 c 128,-1,32
 889 823 889 823 900.5 798.5 c 128,-1,33
 912 774 912 774 916.5 739.5 c 128,-1,34
 921 705 921 705 921 663 c 0,35,36
 921 630 921 630 916.5 590.5 c 128,-1,37
 912 551 912 551 908 511 c 0,38,39
 901 436 901 436 896.5 390 c 128,-1,40
 892 344 892 344 889.5 316 c 128,-1,41
 887 288 887 288 885.5 273.5 c 128,-1,42
 884 259 884 259 882.5 247.5 c 128,-1,43
 881 236 881 236 879.5 221.5 c 128,-1,44
 878 207 878 207 875 179.5 c 128,-1,45
 872 152 872 152 867.5 106 c 128,-1,46
 863 60 863 60 856 -15 c 1,47,48
 856 -37 856 -37 865 -44.5 c 128,-1,49
 874 -52 874 -52 891 -52 c 256,50,51
 908 -52 908 -52 926 -45.5 c 128,-1,52
 944 -39 944 -39 955 -36 c 2,53,-1
 1200 32 l 2,54,55
 1226 40 1226 40 1233.5 45 c 128,-1,56
 1241 50 1241 50 1241 59 c 4,57,58
 1241 63 1241 63 1240.5 68.5 c 128,-1,59
 1240 74 1240 74 1240 82 c 0,60,61
 1240 130 1240 130 1241 175.5 c 128,-1,62
 1242 221 1242 221 1247 263 c 2,63,-1
 1290 672 l 2,64,65
 1293 699 1293 699 1294 724.5 c 128,-1,66
 1295 750 1295 750 1295 774 c 0,67,68
 1295 869 1295 869 1272.5 934.5 c 128,-1,69
 1250 1000 1250 1000 1210.5 1040.5 c 128,-1,70
 1171 1081 1171 1081 1118 1098.5 c 128,-1,71
 1065 1116 1065 1116 1004 1116 c 0,72,73
 956 1116 956 1116 904.5 1106.5 c 128,-1,74
 853 1097 853 1097 801.5 1080 c 128,-1,75
 750 1063 750 1063 699 1040 c 128,-1,76
 648 1017 648 1017 601 991 c 1,77,78
 603 1001 603 1001 606 1030.5 c 128,-1,79
 609 1060 609 1060 613.5 1101 c 128,-1,80
 618 1142 618 1142 622.5 1191 c 128,-1,81
 627 1240 627 1240 631.5 1290 c 128,-1,82
 636 1340 636 1340 640 1387 c 128,-1,83
 644 1434 644 1434 647 1470.5 c 128,-1,84
 650 1507 650 1507 652 1530 c 128,-1,85
 654 1553 654 1553 654 1555 c 0,86,87
 654 1587 654 1587 619 1587 c 1,88,89
 602 1586 602 1586 584 1579.5 c 128,-1,90
 566 1573 566 1573 555 1571 c 2,91,-1
 274 1504 l 2,92,93
 255 1499 255 1499 246.5 1494.5 c 128,-1,94
 238 1490 238 1490 235 1484.5 c 128,-1,95
 232 1479 232 1479 233 1471.5 c 128,-1,96
 234 1464 234 1464 234 1454 c 2,97,-1
 120 -15 l 1,0,1
EndSplineSet
EndChar

StartChar: q
Encoding: 309 113 53
Width: 1303
Flags: W
HStem: -52 267<449.5 676.796> 854 262<588.337 773.71>
VStem: 103 374<270.019 698.507>
LayerCount: 2
Fore
SplineSet
849 703 m 1,0,1
 841 606 841 606 836 539 c 128,-1,2
 831 472 831 472 828 430 c 0,3,4
 824 381 824 381 822 350 c 1,5,6
 787 291 787 291 737 253 c 128,-1,7
 687 215 687 215 627 215 c 0,8,9
 587 215 587 215 558.5 234 c 128,-1,10
 530 253 530 253 512 285 c 128,-1,11
 494 317 494 317 485.5 359.5 c 128,-1,12
 477 402 477 402 477 450 c 0,13,14
 477 528 477 528 492.5 600.5 c 128,-1,15
 508 673 508 673 535 729.5 c 128,-1,16
 562 786 562 786 598 820 c 128,-1,17
 634 854 634 854 675 854 c 0,18,19
 705 854 705 854 732 841.5 c 128,-1,20
 759 829 759 829 782 809 c 128,-1,21
 805 789 805 789 822.5 765 c 128,-1,22
 840 741 840 741 850 718 c 1,23,-1
 849 703 l 1,0,1
1232 1114 m 0,24,25
 1183 1104 1183 1104 1135 1093.5 c 128,-1,26
 1087 1083 1087 1083 1047 1074 c 128,-1,27
 1007 1065 1007 1065 978 1058.5 c 128,-1,28
 949 1052 949 1052 938 1050 c 0,29,30
 920 1046 920 1046 910.5 1043 c 128,-1,31
 901 1040 901 1040 897 1034 c 128,-1,32
 893 1028 893 1028 892 1017.5 c 128,-1,33
 891 1007 891 1007 889 989 c 1,34,35
 828 1045 828 1045 755.5 1080.5 c 128,-1,36
 683 1116 683 1116 596 1116 c 0,37,38
 517 1116 517 1116 450 1089 c 128,-1,39
 383 1062 383 1062 328 1015 c 128,-1,40
 273 968 273 968 231 904 c 128,-1,41
 189 840 189 840 160.5 766.5 c 128,-1,42
 132 693 132 693 117.5 613.5 c 128,-1,43
 103 534 103 534 103 455 c 0,44,45
 103 356 103 356 126.5 264.5 c 128,-1,46
 150 173 150 173 199 102.5 c 128,-1,47
 248 32 248 32 323 -10 c 128,-1,48
 398 -52 398 -52 501 -52 c 0,49,50
 576 -52 576 -52 650.5 -19.5 c 128,-1,51
 725 13 725 13 796 61 c 1,52,53
 795 56 795 56 791.5 17 c 128,-1,54
 788 -22 788 -22 783.5 -77.5 c 128,-1,55
 779 -133 779 -133 773.5 -196.5 c 128,-1,56
 768 -260 768 -260 763.5 -315.5 c 128,-1,57
 759 -371 759 -371 755.5 -410 c 128,-1,58
 752 -449 752 -449 751 -454 c 0,59,60
 750 -456 750 -456 750 -458.5 c 128,-1,61
 750 -461 750 -461 750 -463 c 0,62,63
 750 -479 750 -479 761 -485 c 128,-1,64
 772 -491 772 -491 786 -491 c 0,65,66
 803 -491 803 -491 821 -484.5 c 128,-1,67
 839 -478 839 -478 850 -475 c 2,68,-1
 1115 -378 l 1,69,70
 1142 -371 1142 -371 1148.5 -365.5 c 128,-1,71
 1155 -360 1155 -360 1155 -351 c 0,72,73
 1155 -349 1155 -349 1154.5 -346 c 128,-1,74
 1154 -343 1154 -343 1154 -339 c 0,75,76
 1154 -332 1154 -332 1155 -328 c 2,77,-1
 1284 1058 l 2,78,79
 1285 1064 1285 1064 1285 1068.5 c 128,-1,80
 1285 1073 1285 1073 1285 1078 c 0,81,82
 1285 1117 1285 1117 1254 1117 c 0,83,84
 1244 1117 1244 1117 1232 1114 c 0,24,25
EndSplineSet
EndChar

StartChar: b
Encoding: 310 98 54
Width: 1319
Flags: W
HStem: -52 262<648.942 864.5> 849 267<727.718 962.5>
VStem: 935 374<368.85 793.216>
LayerCount: 2
Fore
SplineSet
575 714 m 1,0,1
 593 743 593 743 616 768 c 128,-1,2
 639 793 639 793 666 811 c 128,-1,3
 693 829 693 829 723 839 c 128,-1,4
 753 849 753 849 785 849 c 0,5,6
 825 849 825 849 853.5 830 c 128,-1,7
 882 811 882 811 900 779 c 128,-1,8
 918 747 918 747 926.5 704 c 128,-1,9
 935 661 935 661 935 613 c 0,10,11
 935 535 935 535 919 462.5 c 128,-1,12
 903 390 903 390 874.5 333.5 c 128,-1,13
 846 277 846 277 808 243.5 c 128,-1,14
 770 210 770 210 727 210 c 0,15,16
 695 210 695 210 666.5 221 c 128,-1,17
 638 232 638 232 613.5 248.5 c 128,-1,18
 589 265 589 265 570.5 285.5 c 128,-1,19
 552 306 552 306 542 326 c 1,20,-1
 575 714 l 1,0,1
170 -49 m 0,21,22
 218 -39 218 -39 264.5 -29 c 128,-1,23
 311 -19 311 -19 349.5 -10 c 128,-1,24
 388 -1 388 -1 415.5 5 c 128,-1,25
 443 11 443 11 454 14 c 0,26,27
 476 19 476 19 487 23.5 c 128,-1,28
 498 28 498 28 503 35.5 c 128,-1,29
 508 43 508 43 509.5 57 c 128,-1,30
 511 71 511 71 513 95 c 1,31,32
 579 30 579 30 656 -11 c 128,-1,33
 733 -52 733 -52 826 -52 c 0,34,35
 903 -52 903 -52 969 -25 c 128,-1,36
 1035 2 1035 2 1088.5 49 c 128,-1,37
 1142 96 1142 96 1183.5 160 c 128,-1,38
 1225 224 1225 224 1252.5 297 c 128,-1,39
 1280 370 1280 370 1294.5 449.5 c 128,-1,40
 1309 529 1309 529 1309 608 c 0,41,42
 1309 706 1309 706 1285.5 798 c 128,-1,43
 1262 890 1262 890 1213 960.5 c 128,-1,44
 1164 1031 1164 1031 1089 1073.5 c 128,-1,45
 1014 1116 1014 1116 911 1116 c 0,46,47
 834 1116 834 1116 755.5 1083.5 c 128,-1,48
 677 1051 677 1051 604 1003 c 1,49,50
 605 1008 605 1008 608.5 1047 c 128,-1,51
 612 1086 612 1086 617.5 1141.5 c 128,-1,52
 623 1197 623 1197 629 1260.5 c 128,-1,53
 635 1324 635 1324 640.5 1379.5 c 128,-1,54
 646 1435 646 1435 649.5 1474 c 128,-1,55
 653 1513 653 1513 654 1518 c 0,56,57
 654 1520 654 1520 654.5 1522 c 128,-1,58
 655 1524 655 1524 655 1526 c 0,59,60
 655 1543 655 1543 643.5 1549 c 128,-1,61
 632 1555 632 1555 619 1555 c 0,62,63
 602 1555 602 1555 584 1548 c 128,-1,64
 566 1541 566 1541 555 1539 c 2,65,-1
 274 1472 l 2,66,67
 247 1465 247 1465 240.5 1459.5 c 128,-1,68
 234 1454 234 1454 234 1445 c 0,69,70
 234 1443 234 1443 234.5 1440 c 128,-1,71
 235 1437 235 1437 235 1433 c 0,72,73
 235 1431 235 1431 234.5 1428 c 128,-1,74
 234 1425 234 1425 234 1422 c 2,75,-1
 118 7 l 2,76,77
 117 1 117 1 116.5 -4 c 128,-1,78
 116 -9 116 -9 116 -14 c 0,79,80
 116 -52 116 -52 148 -52 c 0,81,82
 156 -52 156 -52 170 -49 c 0,21,22
EndSplineSet
EndChar

StartChar: r
Encoding: 311 114 55
Width: 904
Flags: MW
HStem: -52 123.5<143 505.5> 813.5 298<774.777 834.625 836.906 940.863>
LayerCount: 2
Fore
SplineSet
1000 1124 m 1,0,1
 961 1124 961 1124 909 1111.5 c 128,-1,2
 857 1099 857 1099 801 1077.5 c 128,-1,3
 745 1056 745 1056 689.5 1026 c 128,-1,4
 634 996 634 996 588 960 c 1,5,6
 596 1011 596 1011 600.5 1039.5 c 128,-1,7
 605 1068 605 1068 607.5 1082 c 128,-1,8
 610 1096 610 1096 610.5 1100 c 128,-1,9
 611 1104 611 1104 611 1106 c 0,10,11
 611 1111 611 1111 609.5 1113.5 c 128,-1,12
 608 1116 608 1116 600 1116 c 1,13,14
 509 1087 509 1087 411.5 1068.5 c 128,-1,15
 314 1050 314 1050 224 1032 c 0,16,17
 206 1028 206 1028 201.5 1015.5 c 128,-1,18
 197 1003 197 1003 194 970 c 2,19,-1
 108 -15 l 1,20,-1
 108 -21 l 2,21,22
 108 -38 108 -38 118.5 -45 c 128,-1,23
 129 -52 129 -52 143 -52 c 4,24,25
 160 -52 160 -52 178 -46 c 128,-1,26
 196 -40 196 -40 207 -36 c 2,27,-1
 472 59 l 1,28,29
 498 66 498 66 505.5 71.5 c 132,-1,30
 513 77 513 77 513 85 c 0,31,32
 513 90 513 90 512.5 95.5 c 128,-1,33
 512 101 512 101 512 109 c 0,34,35
 512 113 512 113 513.5 131 c 128,-1,36
 515 149 515 149 517.5 173 c 128,-1,37
 520 197 520 197 523 225 c 128,-1,38
 526 253 526 253 528.5 277 c 128,-1,39
 531 301 531 301 533 319 c 128,-1,40
 535 337 535 337 535 341 c 0,41,42
 536 357 536 357 537.5 375.5 c 128,-1,43
 539 394 539 394 541.5 424.5 c 128,-1,44
 544 455 544 455 548 502.5 c 128,-1,45
 552 550 552 550 559 624 c 1,46,47
 567 685 567 685 595 723.5 c 128,-1,48
 623 762 623 762 662 784 c 128,-1,49
 701 806 701 806 746.5 813.5 c 128,-1,50
 792 821 792 821 836 821 c 0,51,52
 865 821 865 821 891 818.5 c 128,-1,53
 917 816 917 816 938 814 c 1,54,-1
 1000 1124 l 1,0,1
EndSplineSet
EndChar

StartChar: s
Encoding: 312 115 56
Width: 861
Flags: W
HStem: -52 251<207.476 471.558> 878 238<458.269 698.933>
VStem: 126 323<701.791 864.151> 478 360<213.728 343.278>
LayerCount: 2
Fore
SplineSet
138 3 m 1,0,1
 188 -25 188 -25 248 -38.5 c 128,-1,2
 308 -52 308 -52 372 -52 c 0,3,4
 456 -52 456 -52 539.5 -28.5 c 128,-1,5
 623 -5 623 -5 689 40.5 c 128,-1,6
 755 86 755 86 796.5 154.5 c 128,-1,7
 838 223 838 223 838 313 c 0,8,9
 838 345 838 345 831.5 377.5 c 128,-1,10
 825 410 825 410 807 443 c 128,-1,11
 789 476 789 476 757.5 509.5 c 128,-1,12
 726 543 726 543 675 578 c 2,13,-1
 489 704 l 1,14,15
 463 724 463 724 456 745 c 128,-1,16
 449 766 449 766 449 795 c 0,17,18
 449 820 449 820 459.5 836 c 128,-1,19
 470 852 470 852 487 861.5 c 128,-1,20
 504 871 504 871 525 874.5 c 128,-1,21
 546 878 546 878 567 878 c 0,22,23
 601 878 601 878 631 868 c 128,-1,24
 661 858 661 858 687.5 841 c 128,-1,25
 714 824 714 824 738 802.5 c 128,-1,26
 762 781 762 781 785 759 c 0,27,28
 789 754 789 754 797 754 c 256,29,30
 805 754 805 754 811 758.5 c 128,-1,31
 817 763 817 763 817 776 c 0,32,33
 813 843 813 843 811 904 c 128,-1,34
 809 965 809 965 804 1028 c 1,35,36
 749 1075 749 1075 685 1095.5 c 128,-1,37
 621 1116 621 1116 555 1116 c 0,38,39
 475 1116 475 1116 398 1088.5 c 128,-1,40
 321 1061 321 1061 260.5 1014 c 128,-1,41
 200 967 200 967 163 905 c 128,-1,42
 126 843 126 843 126 773 c 0,43,44
 126 727 126 727 130 686 c 128,-1,45
 134 645 134 645 148 607.5 c 128,-1,46
 162 570 162 570 188.5 535 c 128,-1,47
 215 500 215 500 260 466 c 0,48,49
 270 458 270 458 295.5 440 c 128,-1,50
 321 422 321 422 349.5 402 c 128,-1,51
 378 382 378 382 403 364.5 c 128,-1,52
 428 347 428 347 438 340 c 0,53,54
 456 328 456 328 467 309.5 c 128,-1,55
 478 291 478 291 478 269 c 0,56,57
 478 249 478 249 465.5 235.5 c 128,-1,58
 453 222 453 222 434 214 c 128,-1,59
 415 206 415 206 394 202.5 c 128,-1,60
 373 199 373 199 357 199 c 0,61,62
 297 199 297 199 245.5 223 c 128,-1,63
 194 247 194 247 154 285 c 0,64,65
 146 292 146 292 138 292 c 0,66,67
 124 292 124 292 124 279 c 0,68,69
 124 278 124 278 124.5 277.5 c 128,-1,70
 125 277 125 277 125 276 c 2,71,-1
 138 3 l 1,0,1
EndSplineSet
EndChar

StartChar: u
Encoding: 313 117 57
Width: 1280
Flags: MW
HStem: -52 264<352.5 617.66> -48 126.5<771.5 1169>
VStem: 116 385<248.099 795.243>
LayerCount: 2
Fore
SplineSet
1271 1106 m 2,0,1
 1271 1111 1271 1111 1269.5 1113.5 c 128,-1,2
 1268 1116 1268 1116 1260 1116 c 1,3,4
 1169 1087 1169 1087 1073.5 1068.5 c 128,-1,5
 978 1050 978 1050 888 1032 c 0,6,7
 870 1028 870 1028 865.5 1015.5 c 128,-1,8
 861 1003 861 1003 858 970 c 1,9,10
 856 921 856 921 854 888.5 c 128,-1,11
 852 856 852 856 849.5 827.5 c 128,-1,12
 847 799 847 799 844 768 c 128,-1,13
 841 737 841 737 837 691.5 c 128,-1,14
 833 646 833 646 827.5 580 c 128,-1,15
 822 514 822 514 815 414 c 0,16,17
 811 355 811 355 783.5 316.5 c 128,-1,18
 756 278 756 278 720 254.5 c 128,-1,19
 684 231 684 231 648 221.5 c 128,-1,20
 612 212 612 212 591 212 c 0,21,22
 538 212 538 212 519.5 247 c 128,-1,23
 501 282 501 282 501 338 c 0,24,25
 501 389 501 389 507 449 c 128,-1,26
 513 509 513 509 519 568 c 1,27,28
 529 650 529 650 535.5 712 c 128,-1,29
 542 774 542 774 547 821.5 c 128,-1,30
 552 869 552 869 555.5 905.5 c 128,-1,31
 559 942 559 942 562 973 c 128,-1,32
 565 1004 565 1004 568.5 1034 c 128,-1,33
 572 1064 572 1064 576 1098 c 1,34,-1
 576 1100 l 2,35,36
 576 1105 576 1105 572.5 1106.5 c 128,-1,37
 569 1108 569 1108 564 1108 c 0,38,39
 562 1108 562 1108 560 1107.5 c 128,-1,40
 558 1107 558 1107 556 1107 c 0,41,42
 508 1093 508 1093 465 1083 c 128,-1,43
 422 1073 422 1073 380.5 1064.5 c 128,-1,44
 339 1056 339 1056 296.5 1048.5 c 128,-1,45
 254 1041 254 1041 207 1032 c 0,46,47
 189 1028 189 1028 184.5 1015 c 128,-1,48
 180 1002 180 1002 177 970 c 0,49,50
 175 954 175 954 174 937.5 c 128,-1,51
 173 921 173 921 170.5 896 c 128,-1,52
 168 871 168 871 164.5 833.5 c 128,-1,53
 161 796 161 796 155.5 737 c 128,-1,54
 150 678 150 678 142 593.5 c 128,-1,55
 134 509 134 509 123 391 c 1,56,57
 118 359 118 359 117 328.5 c 128,-1,58
 116 298 116 298 116 269 c 0,59,60
 116 109 116 109 192.5 28.5 c 128,-1,61
 269 -52 269 -52 436 -52 c 0,62,63
 503 -52 503 -52 590 -18.5 c 128,-1,64
 677 15 677 15 788 88 c 1,65,66
 782 48 782 48 778.5 24 c 128,-1,67
 775 0 775 0 773 -13.5 c 128,-1,68
 771 -27 771 -27 770.5 -32 c 128,-1,69
 770 -37 770 -37 770 -39 c 0,70,71
 770 -44 770 -44 771.5 -48 c 132,-1,72
 773 -52 773 -52 781 -52 c 0,73,74
 786 -52 786 -52 790 -51 c 0,75,76
 876 -11 876 -11 969 13.5 c 128,-1,77
 1062 38 1062 38 1147 62 c 0,78,79
 1164 66 1164 66 1169 78.5 c 132,-1,80
 1174 91 1174 91 1177 124 c 2,81,-1
 1271 1106 l 2,0,1
EndSplineSet
EndChar

StartChar: t
Encoding: 314 116 58
Width: 934
Flags: W
HStem: -52 284<478.5 781.348>
VStem: 242 375<242.175 766.593>
LayerCount: 2
Fore
SplineSet
845 771 m 1,0,1
 868 773 868 773 876 780 c 128,-1,2
 884 787 884 787 890 802 c 0,3,4
 909 846 909 846 926 883 c 0,5,6
 933 899 933 899 940 915 c 128,-1,7
 947 931 947 931 953 945 c 128,-1,8
 959 959 959 959 963 969.5 c 128,-1,9
 967 980 967 980 969 986 c 0,10,11
 972 995 972 995 972 1000 c 0,12,13
 972 1009 972 1009 968.5 1014 c 128,-1,14
 965 1019 965 1019 960 1021 c 0,15,16
 955 1024 955 1024 949 1024 c 2,17,-1
 681 1024 l 1,18,19
 694 1147 694 1147 704.5 1245.5 c 128,-1,20
 715 1344 715 1344 720 1399 c 1,21,-1
 720 1401 l 2,22,23
 720 1406 720 1406 716.5 1407.5 c 128,-1,24
 713 1409 713 1409 708 1409 c 0,25,26
 705 1409 705 1409 704 1408.5 c 128,-1,27
 703 1408 703 1408 700 1408 c 0,28,29
 653 1394 653 1394 610 1384 c 128,-1,30
 567 1374 567 1374 524.5 1365.5 c 128,-1,31
 482 1357 482 1357 440 1349.5 c 128,-1,32
 398 1342 398 1342 353 1333 c 0,33,34
 344 1331 344 1331 338.5 1328.5 c 128,-1,35
 333 1326 333 1326 329.5 1317 c 128,-1,36
 326 1308 326 1308 323 1289.5 c 128,-1,37
 320 1271 320 1271 316.5 1237.5 c 128,-1,38
 313 1204 313 1204 307.5 1152 c 128,-1,39
 302 1100 302 1100 293 1024 c 1,40,-1
 222 1024 l 1,41,42
 219 1020 219 1020 207 1002 c 128,-1,43
 195 984 195 984 179 959.5 c 128,-1,44
 163 935 163 935 144.5 907 c 128,-1,45
 126 879 126 879 110.5 854.5 c 128,-1,46
 95 830 95 830 85 812.5 c 128,-1,47
 75 795 75 795 75 791 c 0,48,49
 75 777 75 777 99 772.5 c 128,-1,50
 123 768 123 768 177 768 c 2,51,-1
 282 768 l 1,52,53
 274 686 274 686 266.5 596 c 128,-1,54
 259 506 259 506 249 407 c 0,55,56
 246 374 246 374 244 343.5 c 128,-1,57
 242 313 242 313 242 284 c 0,58,59
 242 114 242 114 318.5 31 c 128,-1,60
 395 -52 395 -52 562 -52 c 0,61,62
 594 -52 594 -52 634.5 -44.5 c 128,-1,63
 675 -37 675 -37 719.5 -25 c 128,-1,64
 764 -13 764 -13 809.5 1.5 c 128,-1,65
 855 16 855 16 896 30 c 0,66,67
 920 38 920 38 930.5 44 c 128,-1,68
 941 50 941 50 941 64 c 0,69,70
 941 67 941 67 940.5 70.5 c 128,-1,71
 940 74 940 74 939 79 c 0,72,73
 923 137 923 137 916.5 175 c 128,-1,74
 910 213 910 213 906 235.5 c 128,-1,75
 902 258 902 258 898.5 267 c 128,-1,76
 895 276 895 276 885 276 c 0,77,78
 879 276 879 276 870.5 273.5 c 128,-1,79
 862 271 862 271 850 266 c 0,80,81
 812 252 812 252 774.5 242 c 128,-1,82
 737 232 737 232 704 232 c 0,83,84
 684 232 684 232 668 238.5 c 128,-1,85
 652 245 652 245 640.5 260 c 128,-1,86
 629 275 629 275 623 301 c 128,-1,87
 617 327 617 327 617 366 c 1,88,89
 620 457 620 457 632.5 562 c 128,-1,90
 645 667 645 667 659 771 c 1,91,-1
 845 771 l 1,0,1
EndSplineSet
EndChar

StartChar: f
Encoding: 315 102 59
Width: 910
Flags: MW
HStem: -52 121.5<267 627.5> 1358 275<735 1034.03>
LayerCount: 2
Fore
SplineSet
232 -15 m 1,0,1
 232 -36 232 -36 241 -44 c 128,-1,2
 250 -52 250 -52 267 -52 c 260,3,4
 284 -52 284 -52 302 -46 c 128,-1,5
 320 -40 320 -40 331 -36 c 2,6,-1
 594 57 l 1,7,8
 621 64 621 64 627.5 69.5 c 132,-1,9
 634 75 634 75 634 84 c 0,10,11
 634 86 634 86 633.5 89 c 128,-1,12
 633 92 633 92 633 96 c 0,13,14
 633 103 633 103 634 107 c 0,15,16
 638 145 638 145 645 214.5 c 128,-1,17
 652 284 652 284 661 373.5 c 128,-1,18
 670 463 670 463 680 565 c 128,-1,19
 690 667 690 667 701 771 c 1,20,-1
 874 771 l 1,21,22
 897 773 897 773 905 780 c 128,-1,23
 913 787 913 787 919 802 c 0,24,25
 938 846 938 846 955 883 c 0,26,27
 962 899 962 899 969 915 c 128,-1,28
 976 931 976 931 982 945 c 128,-1,29
 988 959 988 959 992 969.5 c 128,-1,30
 996 980 996 980 998 986 c 0,31,32
 1001 995 1001 995 1001 1000 c 0,33,34
 1001 1009 1001 1009 997.5 1014 c 128,-1,35
 994 1019 994 1019 989 1021 c 0,36,37
 984 1024 984 1024 978 1024 c 2,38,-1
 717 1024 l 1,39,40
 723 1075 723 1075 729.5 1127 c 128,-1,41
 736 1179 736 1179 747 1224 c 0,42,43
 756 1263 756 1263 769 1289 c 128,-1,44
 782 1315 782 1315 798.5 1330 c 128,-1,45
 815 1345 815 1345 834.5 1351.5 c 128,-1,46
 854 1358 854 1358 876 1358 c 0,47,48
 908 1358 908 1358 943.5 1347.5 c 128,-1,49
 979 1337 979 1337 1014 1324 c 0,50,51
 1024 1320 1024 1320 1031 1316.5 c 128,-1,52
 1038 1313 1038 1313 1044 1314 c 1,53,54
 1055 1314 1055 1314 1061 1322.5 c 128,-1,55
 1067 1331 1067 1331 1076 1352.5 c 128,-1,56
 1085 1374 1085 1374 1100.5 1412.5 c 128,-1,57
 1116 1451 1116 1451 1147 1511 c 0,58,59
 1154 1524 1154 1524 1154 1532 c 0,60,61
 1154 1542 1154 1542 1144.5 1547 c 128,-1,62
 1135 1552 1135 1552 1116 1560 c 0,63,64
 1028 1593 1028 1593 941.5 1613 c 128,-1,65
 855 1633 855 1633 775 1633 c 256,66,67
 695 1633 695 1633 625 1610 c 128,-1,68
 555 1587 555 1587 501 1534 c 128,-1,69
 447 1481 447 1481 410 1395 c 128,-1,70
 373 1309 373 1309 359 1183 c 1,71,-1
 339 1024 l 1,72,-1
 217 1024 l 1,73,74
 214 1020 214 1020 202 1002 c 128,-1,75
 190 984 190 984 174 959.5 c 128,-1,76
 158 935 158 935 139.5 907 c 128,-1,77
 121 879 121 879 105.5 854.5 c 128,-1,78
 90 830 90 830 80 812.5 c 128,-1,79
 70 795 70 795 70 791 c 0,80,81
 70 777 70 777 94 772.5 c 128,-1,82
 118 768 118 768 172 768 c 2,83,-1
 305 768 l 1,84,85
 296 675 296 675 287.5 584 c 128,-1,86
 279 493 279 493 271.5 409.5 c 128,-1,87
 264 326 264 326 257 253.5 c 128,-1,88
 250 181 250 181 245 125 c 128,-1,89
 240 69 240 69 236.5 32.5 c 128,-1,90
 233 -4 233 -4 232 -15 c 1,0,1
EndSplineSet
EndChar

StartChar: k
Encoding: 316 107 60
Width: 1258
Flags: MW
HStem: -52 115<148 1283.5>
VStem: 239 420<1085.2 1473.05>
LayerCount: 2
Fore
SplineSet
659 1518 m 0,0,1
 659 1520 659 1520 659.5 1522 c 128,-1,2
 660 1524 660 1524 660 1526 c 0,3,4
 660 1543 660 1543 648.5 1549 c 128,-1,5
 637 1555 637 1555 624 1555 c 0,6,7
 607 1555 607 1555 589 1548 c 128,-1,8
 571 1541 571 1541 560 1539 c 2,9,-1
 279 1472 l 2,10,11
 258 1467 258 1467 249 1461 c 128,-1,12
 240 1455 240 1455 238 1448.5 c 128,-1,13
 236 1442 236 1442 237.5 1435 c 128,-1,14
 239 1428 239 1428 239 1422 c 2,15,-1
 113 -15 l 1,16,-1
 113 -19 l 2,17,18
 113 -38 113 -38 123.5 -45 c 128,-1,19
 134 -52 134 -52 148 -52 c 4,20,21
 165 -52 165 -52 183 -46 c 128,-1,22
 201 -40 201 -40 212 -36 c 2,23,-1
 474 49 l 1,24,25
 503 57 503 57 510.5 62.5 c 128,-1,26
 518 68 518 68 518 79 c 0,27,28
 518 83 518 83 517.5 87.5 c 128,-1,29
 517 92 517 92 517 99 c 0,30,31
 517 103 517 103 518.5 121.5 c 128,-1,32
 520 140 520 140 522.5 165.5 c 128,-1,33
 525 191 525 191 528 220 c 128,-1,34
 531 249 531 249 534 274.5 c 128,-1,35
 537 300 537 300 539 318.5 c 128,-1,36
 541 337 541 337 541 341 c 0,37,38
 541 351 541 351 544 356.5 c 128,-1,39
 547 362 547 362 551.5 366 c 128,-1,40
 556 370 556 370 561 372.5 c 128,-1,41
 566 375 566 375 571 380 c 1,42,43
 586 360 586 360 611.5 326.5 c 128,-1,44
 637 293 637 293 668.5 251.5 c 128,-1,45
 700 210 700 210 734.5 165 c 128,-1,46
 769 120 769 120 802 77.5 c 128,-1,47
 835 35 835 35 863 -1 c 128,-1,48
 891 -37 891 -37 910 -59 c 0,49,50
 923 -75 923 -75 935.5 -81 c 128,-1,51
 948 -87 948 -87 959 -87 c 0,52,53
 974 -87 974 -87 1001 -78.5 c 128,-1,54
 1028 -70 1028 -70 1060 -56.5 c 128,-1,55
 1092 -43 1092 -43 1126 -26.5 c 128,-1,56
 1160 -10 1160 -10 1190 6 c 128,-1,57
 1220 22 1220 22 1242.5 35 c 128,-1,58
 1265 48 1265 48 1274 55 c 0,59,60
 1282 61 1282 61 1283.5 63 c 132,-1,61
 1285 65 1285 65 1285 69 c 256,62,63
 1285 73 1285 73 1281 76 c 128,-1,64
 1277 79 1277 79 1271 81 c 128,-1,65
 1265 83 1265 83 1259 85.5 c 128,-1,66
 1253 88 1253 88 1250 93 c 1,67,-1
 998 364 l 1,68,-1
 852 538 l 1,69,70
 887 575 887 575 916 605.5 c 128,-1,71
 945 636 945 636 965 659 c 0,72,73
 989 685 989 685 1008 706 c 2,74,-1
 1278 1009 l 2,75,76
 1299 1033 1299 1033 1299 1040 c 0,77,78
 1299 1049 1299 1049 1282 1049 c 0,79,80
 1279 1049 1279 1049 1275.5 1049 c 128,-1,81
 1272 1049 1272 1049 1269 1048 c 2,82,-1
 867 1020 l 1,83,84
 866 1018 866 1018 855.5 1006 c 128,-1,85
 845 994 845 994 829 975 c 128,-1,86
 813 956 813 956 793 932.5 c 128,-1,87
 773 909 773 909 752 884 c 0,88,89
 703 826 703 826 640 753 c 1,90,-1
 571 677 l 1,91,92
 575 713 575 713 581 769 c 128,-1,93
 587 825 587 825 594 891 c 128,-1,94
 601 957 601 957 608.5 1029 c 128,-1,95
 616 1101 616 1101 623 1171 c 0,96,97
 640 1335 640 1335 659 1518 c 0,0,1
EndSplineSet
EndChar

StartChar: v
Encoding: 317 118 61
Width: 1120
Flags: MW
HStem: -52 89<400 745> 1032 83<118 878>
LayerCount: 2
Fore
SplineSet
855 1106 m 0,0,1
 845 1081 845 1081 824 1026.5 c 128,-1,2
 803 972 803 972 776 903 c 128,-1,3
 749 834 749 834 720 758 c 128,-1,4
 691 682 691 682 665 615.5 c 128,-1,5
 639 549 639 549 619.5 500 c 128,-1,6
 600 451 600 451 594 434 c 1,7,-1
 462 1106 l 2,8,9
 460 1116 460 1116 448 1116 c 0,10,11
 443 1116 443 1116 439 1115 c 0,12,13
 364 1086 364 1086 280 1067.5 c 128,-1,14
 196 1049 196 1049 118 1032 c 4,15,16
 102 1028 102 1028 102 1014 c 0,17,18
 102 1001 102 1001 111 970 c 0,19,20
 135 884 135 884 161 787.5 c 128,-1,21
 187 691 187 691 212.5 593 c 128,-1,22
 238 495 238 495 263 400 c 128,-1,23
 288 305 288 305 311 221 c 128,-1,24
 334 137 334 137 353.5 69 c 128,-1,25
 373 1 373 1 388 -42 c 0,26,27
 389 -45 389 -45 392 -48.5 c 128,-1,28
 395 -52 395 -52 400 -52 c 2,29,-1
 407 -52 l 2,30,31
 408 -52 408 -52 409 -51.5 c 128,-1,32
 410 -51 410 -51 412 -51 c 0,33,34
 495 -22 495 -22 573.5 -2.5 c 128,-1,35
 652 17 652 17 728 32 c 0,36,37
 738 34 738 34 745 37 c 128,-1,38
 752 40 752 40 758 47 c 128,-1,39
 764 54 764 54 770 65 c 128,-1,40
 776 76 776 76 784 94 c 2,41,-1
 1196 970 l 2,42,43
 1208 997 1208 997 1208 1010 c 0,44,45
 1208 1027 1208 1027 1189 1032 c 0,46,47
 1111 1049 1111 1049 1032 1067.5 c 128,-1,48
 953 1086 953 1086 878 1115 c 4,49,50
 876 1115 876 1115 874 1115.5 c 128,-1,51
 872 1116 872 1116 870 1116 c 0,52,53
 859 1116 859 1116 855 1106 c 0,0,1
EndSplineSet
EndChar

StartChar: e
Encoding: 318 101 62
Width: 1142
Flags: W
HStem: -52 273<559.9 725 772.5 905.361> 850 266<589.257 815.271>
VStem: 837 300<700.235 823.055>
LayerCount: 2
Fore
SplineSet
716 1116 m 0,0,1
 580 1116 580 1116 467 1067 c 128,-1,2
 354 1018 354 1018 272.5 933 c 128,-1,3
 191 848 191 848 146 733.5 c 128,-1,4
 101 619 101 619 101 488 c 0,5,6
 101 363 101 363 148 263 c 128,-1,7
 195 163 195 163 273.5 93 c 128,-1,8
 352 23 352 23 453.5 -14.5 c 128,-1,9
 555 -52 555 -52 663 -52 c 0,10,11
 715 -52 715 -52 772.5 -41 c 128,-1,12
 830 -30 830 -30 885 -13.5 c 128,-1,13
 940 3 940 3 987.5 22.5 c 128,-1,14
 1035 42 1035 42 1068 60 c 0,15,16
 1074 64 1074 64 1079 69 c 128,-1,17
 1084 74 1084 74 1084 82 c 0,18,19
 1084 85 1084 85 1083 90 c 128,-1,20
 1082 95 1082 95 1079 100 c 1,21,22
 1080 150 1080 150 1080.5 191 c 128,-1,23
 1081 232 1081 232 1081 261 c 128,-1,24
 1081 290 1081 290 1081.5 306 c 128,-1,25
 1082 322 1082 322 1082 322 c 1,26,27
 1076 322 1076 322 1069.5 320.5 c 128,-1,28
 1063 319 1063 319 1054 317 c 1,29,30
 1020 300 1020 300 982 283 c 128,-1,31
 944 266 944 266 903 252 c 128,-1,32
 862 238 862 238 817 229.5 c 128,-1,33
 772 221 772 221 725 221 c 0,34,35
 682 221 682 221 641.5 230.5 c 128,-1,36
 601 240 601 240 568.5 260 c 128,-1,37
 536 280 536 280 515.5 311 c 128,-1,38
 495 342 495 342 491 385 c 1,39,40
 557 373 557 373 617 373 c 0,41,42
 733 373 733 373 828.5 404 c 128,-1,43
 924 435 924 435 992.5 485 c 128,-1,44
 1061 535 1061 535 1099 597.5 c 128,-1,45
 1137 660 1137 660 1137 722 c 0,46,47
 1137 792 1137 792 1107 862 c 128,-1,48
 1077 932 1077 932 1021.5 988.5 c 128,-1,49
 966 1045 966 1045 888.5 1080.5 c 128,-1,50
 811 1116 811 1116 716 1116 c 0,0,1
704 850 m 0,51,52
 723 850 723 850 746.5 843.5 c 128,-1,53
 770 837 770 837 790 825 c 128,-1,54
 810 813 810 813 823.5 797 c 128,-1,55
 837 781 837 781 837 763 c 0,56,57
 837 744 837 744 820 723.5 c 128,-1,58
 803 703 803 703 762 682.5 c 128,-1,59
 721 662 721 662 653 642 c 128,-1,60
 585 622 585 622 482 604 c 1,61,62
 495 659 495 659 516.5 704.5 c 128,-1,63
 538 750 538 750 566 782.5 c 128,-1,64
 594 815 594 815 628.5 832.5 c 128,-1,65
 663 850 663 850 704 850 c 0,51,52
EndSplineSet
EndChar

StartChar: x
Encoding: 319 120 63
Width: 1070
Flags: MW
HStem: -67 96<313 1037> 1020 96<124 840>
LayerCount: 2
Fore
SplineSet
700 -58 m 0,0,1
 703 -63 703 -63 706.5 -65.5 c 128,-1,2
 710 -68 710 -68 717 -68 c 0,3,4
 722 -68 722 -68 726 -67 c 0,5,6
 793 -38 793 -38 872 -19.5 c 128,-1,7
 951 -1 951 -1 1025 16 c 0,8,9
 1037 19 1037 19 1037 29 c 0,10,11
 1037 37 1037 37 1031 48 c 128,-1,12
 1025 59 1025 59 1015 78 c 2,13,-1
 775 531 l 1,14,15
 856 643 856 643 938.5 749.5 c 128,-1,16
 1021 856 1021 856 1107 970 c 0,17,18
 1124 992 1124 992 1132 1003.5 c 128,-1,19
 1140 1015 1140 1015 1140 1023 c 0,20,21
 1140 1029 1140 1029 1130 1032 c 0,22,23
 1060 1049 1060 1049 984.5 1067.5 c 128,-1,24
 909 1086 909 1086 848 1115 c 0,25,26
 845 1116 845 1116 840 1116 c 4,27,28
 828 1116 828 1116 821 1106 c 2,29,-1
 612 834 l 1,30,-1
 462 1106 l 2,31,32
 457 1116 457 1116 445 1116 c 0,33,34
 440 1116 440 1116 436 1115 c 0,35,36
 369 1086 369 1086 290 1067.5 c 128,-1,37
 211 1049 211 1049 137 1032 c 0,38,39
 124 1029 124 1029 124 1020 c 4,40,41
 124 1012 124 1012 130 1001 c 128,-1,42
 136 990 136 990 147 970 c 0,43,44
 209 856 209 856 267.5 749 c 128,-1,45
 326 642 326 642 386 531 c 1,46,-1
 55 78 l 2,47,48
 38 55 38 55 29.5 43.5 c 128,-1,49
 21 32 21 32 22 25 c 0,50,51
 22 19 22 19 32 16 c 0,52,53
 66 7 66 7 103 -1.5 c 128,-1,54
 140 -10 140 -10 176.5 -19.5 c 128,-1,55
 213 -29 213 -29 248 -40.5 c 128,-1,56
 283 -52 283 -52 313 -67 c 0,57,58
 316 -68 316 -68 321 -68 c 0,59,60
 332 -68 332 -68 340 -58 c 0,61,62
 341 -57 341 -57 360 -31 c 128,-1,63
 379 -5 379 -5 408 35 c 128,-1,64
 437 75 437 75 474 125 c 128,-1,65
 511 175 511 175 549 226 c 1,66,67
 576 175 576 175 603 125 c 128,-1,68
 630 75 630 75 651 35 c 128,-1,69
 672 -5 672 -5 685.5 -31 c 128,-1,70
 699 -57 699 -57 700 -58 c 0,0,1
EndSplineSet
EndChar

StartChar: w
Encoding: 320 119 64
Width: 1691
Flags: MW
HStem: -52 83.5<381 1388> 1014 101<113 1418>
LayerCount: 2
Fore
SplineSet
585 414 m 1,0,-1
 473 1106 l 2,1,2
 471 1116 471 1116 459 1116 c 0,3,4
 454 1116 454 1116 450 1115 c 0,5,6
 375 1086 375 1086 291 1067.5 c 128,-1,7
 207 1049 207 1049 129 1032 c 0,8,9
 113 1028 113 1028 113 1014 c 0,10,11
 113 1007 113 1007 114 996.5 c 128,-1,12
 115 986 115 986 122 970 c 1,13,14
 143 883 143 883 166 786.5 c 128,-1,15
 189 690 189 690 212 592 c 128,-1,16
 235 494 235 494 257.5 399.5 c 128,-1,17
 280 305 280 305 300 221.5 c 128,-1,18
 320 138 320 138 337.5 70 c 128,-1,19
 355 2 355 2 369 -42 c 0,20,21
 369 -45 369 -45 372.5 -48.5 c 128,-1,22
 376 -52 376 -52 381 -52 c 6,23,-1
 388 -52 l 2,24,25
 389 -52 389 -52 390 -51.5 c 128,-1,26
 391 -51 391 -51 393 -51 c 0,27,28
 476 -22 476 -22 554.5 -2.5 c 128,-1,29
 633 17 633 17 709 32 c 0,30,31
 719 34 719 34 727 37 c 128,-1,32
 735 40 735 40 742 46.5 c 128,-1,33
 749 53 749 53 754.5 64.5 c 128,-1,34
 760 76 760 76 765 94 c 2,35,-1
 892 541 l 1,36,37
 911 447 911 447 928.5 358 c 128,-1,38
 946 269 946 269 962.5 191 c 128,-1,39
 979 113 979 113 993 49 c 128,-1,40
 1007 -15 1007 -15 1018 -58 c 0,41,42
 1019 -61 1019 -61 1022 -64.5 c 128,-1,43
 1025 -68 1025 -68 1030 -68 c 2,44,-1
 1037 -68 l 2,45,46
 1038 -68 1038 -68 1039 -67.5 c 128,-1,47
 1040 -67 1040 -67 1042 -67 c 0,48,49
 1125 -38 1125 -38 1203.5 -19 c 128,-1,50
 1282 0 1282 0 1358 16 c 0,51,52
 1368 18 1368 18 1375 21.5 c 128,-1,53
 1382 25 1382 25 1388 31.5 c 132,-1,54
 1394 38 1394 38 1400 49.5 c 128,-1,55
 1406 61 1406 61 1414 78 c 1,56,-1
 1736 970 l 1,57,58
 1748 997 1748 997 1748 1010 c 0,59,60
 1748 1028 1748 1028 1729 1032 c 0,61,62
 1651 1049 1651 1049 1572 1067.5 c 128,-1,63
 1493 1086 1493 1086 1418 1115 c 1,64,65
 1415 1115 1415 1115 1414 1115.5 c 128,-1,66
 1413 1116 1413 1116 1410 1116 c 0,67,68
 1399 1116 1399 1116 1395 1106 c 1,69,-1
 1204 424 l 1,70,-1
 1102 1106 l 1,71,72
 1102 1116 1102 1116 1088 1116 c 1,73,74
 1010 1088 1010 1088 924.5 1069 c 128,-1,75
 839 1050 839 1050 759 1032 c 0,76,77
 745 1029 745 1029 742 1018 c 2,78,-1
 585 414 l 1,0,-1
EndSplineSet
EndChar

StartChar: y
Encoding: 321 121 65
Width: 1125
Flags: MW
HStem: 1032 83<130 860>
LayerCount: 2
Fore
SplineSet
766 39 m 1,0,-1
 1178 970 l 2,1,2
 1190 997 1190 997 1190 1010 c 0,3,4
 1190 1028 1190 1028 1171 1032 c 0,5,6
 1093 1049 1093 1049 1014 1067.5 c 128,-1,7
 935 1086 935 1086 860 1115 c 5,8,9
 857 1115 857 1115 856 1115.5 c 128,-1,10
 855 1116 855 1116 852 1116 c 0,11,12
 841 1116 841 1116 837 1106 c 0,13,14
 828 1081 828 1081 808.5 1026.5 c 128,-1,15
 789 972 789 972 764 903 c 128,-1,16
 739 834 739 834 712 758 c 128,-1,17
 685 682 685 682 661 615.5 c 128,-1,18
 637 549 637 549 619.5 500 c 128,-1,19
 602 451 602 451 596 434 c 1,20,-1
 474 1106 l 2,21,22
 472 1116 472 1116 460 1116 c 0,23,24
 455 1116 455 1116 451 1115 c 0,25,26
 376 1086 376 1086 292 1067.5 c 128,-1,27
 208 1049 208 1049 130 1032 c 4,28,29
 114 1028 114 1028 114 1014 c 0,30,31
 114 1007 114 1007 115 996.5 c 128,-1,32
 116 986 116 986 123 970 c 1,33,34
 145 886 145 886 168.5 793.5 c 128,-1,35
 192 701 192 701 215.5 606.5 c 128,-1,36
 239 512 239 512 262 419.5 c 128,-1,37
 285 327 285 327 306.5 244 c 128,-1,38
 328 161 328 161 347 90.5 c 128,-1,39
 366 20 366 20 381 -29 c 1,40,41
 330 -143 330 -143 301 -210 c 128,-1,42
 272 -277 272 -277 257.5 -313 c 128,-1,43
 243 -349 243 -349 240 -361 c 128,-1,44
 237 -373 237 -373 237 -375 c 0,45,46
 237 -386 237 -386 242.5 -390.5 c 128,-1,47
 248 -395 248 -395 258 -397 c 0,48,49
 295 -405 295 -405 328 -411.5 c 128,-1,50
 361 -418 361 -418 392.5 -425.5 c 128,-1,51
 424 -433 424 -433 456 -442 c 128,-1,52
 488 -451 488 -451 524 -464 c 0,53,54
 528 -465 528 -465 533 -465 c 0,55,56
 539 -465 539 -465 541.5 -462.5 c 128,-1,57
 544 -460 544 -460 546 -456 c 2,58,-1
 766 39 l 1,0,-1
EndSplineSet
EndChar

StartChar: z
Encoding: 322 122 66
Width: 992
Flags: MW
HStem: 0 55<255 855> 1068 12<259 949>
LayerCount: 2
Fore
SplineSet
610 0 m 2,0,1
 653 0 653 0 693.5 1.5 c 128,-1,2
 734 3 734 3 766.5 8.5 c 128,-1,3
 799 14 799 14 822.5 25 c 128,-1,4
 846 36 846 36 855 55 c 2,5,-1
 981 318 l 1,6,7
 983 318 983 318 983 320 c 128,-1,8
 983 322 983 322 983 324 c 0,9,10
 983 337 983 337 974.5 341 c 128,-1,11
 966 345 966 345 956 345 c 0,12,13
 897 345 897 345 837 342 c 128,-1,14
 777 339 777 339 715 339 c 0,15,16
 709 339 709 339 700.5 339 c 128,-1,17
 692 339 692 339 683.5 340 c 128,-1,18
 675 341 675 341 669.5 342 c 128,-1,19
 664 343 664 343 664 345 c 2,20,-1
 981 1037 l 2,21,22
 983 1041 983 1041 983 1044 c 0,23,24
 983 1054 983 1054 971.5 1061 c 128,-1,25
 960 1068 960 1068 949 1068 c 4,26,27
 774 1068 774 1068 604.5 1074 c 128,-1,28
 435 1080 435 1080 259 1080 c 4,29,30
 237 1080 237 1080 215 1072 c 128,-1,31
 193 1064 193 1064 185 1037 c 1,32,-1
 84 796 l 1,33,-1
 84 792 l 2,34,35
 84 784 84 784 89 777.5 c 128,-1,36
 94 771 94 771 104 771 c 0,37,38
 137 771 137 771 184.5 772 c 128,-1,39
 232 773 232 773 284.5 774.5 c 128,-1,40
 337 776 337 776 389 777.5 c 128,-1,41
 441 779 441 779 483 779 c 1,42,-1
 130 55 l 2,43,44
 130 53 130 53 129 51 c 128,-1,45
 128 49 128 49 128 48 c 0,46,47
 128 33 128 33 140.5 24 c 128,-1,48
 153 15 153 15 171.5 9.5 c 128,-1,49
 190 4 190 4 212.5 2 c 128,-1,50
 235 0 235 0 255 0 c 2,51,-1
 610 0 l 2,0,1
EndSplineSet
EndChar

StartChar: j
Encoding: 323 106 67
Width: 620
Flags: W
HStem: -329 284<-146.432 82.5187>
LayerCount: 2
Fore
SplineSet
224 1222 m 0,0,1
 224 1212 224 1212 235 1212 c 0,2,3
 240 1212 240 1212 244 1213 c 0,4,5
 340 1232 340 1232 427.5 1251 c 128,-1,6
 515 1270 515 1270 600 1286 c 0,7,8
 617 1289 617 1289 621.5 1302 c 128,-1,9
 626 1315 626 1315 629 1348 c 2,10,-1
 651 1622 l 1,11,12
 650 1623 650 1623 648 1624 c 0,13,14
 645 1625 645 1625 640 1632 c 1,15,16
 635 1632 635 1632 631 1631 c 0,17,18
 545 1602 545 1602 451.5 1583.5 c 128,-1,19
 358 1565 358 1565 273 1548 c 0,20,21
 255 1544 255 1544 250.5 1531.5 c 128,-1,22
 246 1519 246 1519 244 1486 c 0,23,24
 239 1421 239 1421 236.5 1391.5 c 128,-1,25
 234 1362 234 1362 233.5 1352 c 128,-1,26
 233 1342 233 1342 232.5 1341.5 c 128,-1,27
 232 1341 232 1341 231.5 1333.5 c 128,-1,28
 231 1326 231 1326 229.5 1302.5 c 128,-1,29
 228 1279 228 1279 224 1222 c 0,0,1
113 89 m 0,30,31
 108 50 108 50 96.5 24 c 128,-1,32
 85 -2 85 -2 69 -17.5 c 128,-1,33
 53 -33 53 -33 33.5 -39 c 128,-1,34
 14 -45 14 -45 -6 -45 c 0,35,36
 -39 -45 -39 -45 -74.5 -35 c 128,-1,37
 -110 -25 -110 -25 -144 -11 c 0,38,39
 -155 -7 -155 -7 -162.5 -4 c 128,-1,40
 -170 -1 -170 -1 -176 -1 c 0,41,42
 -186 -1 -186 -1 -192 -10 c 128,-1,43
 -198 -19 -198 -19 -207 -41.5 c 128,-1,44
 -216 -64 -216 -64 -231.5 -102 c 128,-1,45
 -247 -140 -247 -140 -277 -198 c 0,46,47
 -284 -211 -284 -211 -284 -219 c 0,48,49
 -284 -228 -284 -228 -263 -239.5 c 128,-1,50
 -242 -251 -242 -251 -209.5 -263 c 128,-1,51
 -177 -275 -177 -275 -136.5 -287 c 128,-1,52
 -96 -299 -96 -299 -57 -308.5 c 128,-1,53
 -18 -318 -18 -318 16 -323.5 c 128,-1,54
 50 -329 50 -329 69 -329 c 0,55,56
 272 -329 272 -329 378.5 -215.5 c 128,-1,57
 485 -102 485 -102 511 130 c 1,58,-1
 531 289 l 1,59,-1
 605 1106 l 1,60,-1
 605 1108 l 2,61,62
 605 1116 605 1116 594 1116 c 0,63,64
 589 1116 589 1116 585 1115 c 0,65,66
 499 1086 499 1086 405.5 1067.5 c 128,-1,67
 312 1049 312 1049 227 1032 c 0,68,69
 209 1028 209 1028 204.5 1015.5 c 128,-1,70
 200 1003 200 1003 198 970 c 0,71,72
 189 854 189 854 178.5 732 c 128,-1,73
 168 610 168 610 156.5 494 c 128,-1,74
 145 378 145 378 133.5 273.5 c 128,-1,75
 122 169 122 169 113 89 c 0,30,31
EndSplineSet
EndChar

StartChar: exclam
Encoding: 324 33 68
Width: 550
Flags: W
LayerCount: 2
Fore
SplineSet
534 1170 m 0,0,1
 541 1199 541 1199 549.5 1241.5 c 128,-1,2
 558 1284 558 1284 567 1331 c 128,-1,3
 576 1378 576 1378 584 1424 c 128,-1,4
 592 1470 592 1470 598.5 1507 c 128,-1,5
 605 1544 605 1544 609 1567.5 c 128,-1,6
 613 1591 613 1591 613 1592 c 0,7,8
 613 1602 613 1602 602 1602 c 0,9,10
 597 1602 597 1602 593 1601 c 0,11,12
 497 1576 497 1576 409.5 1551.5 c 128,-1,13
 322 1527 322 1527 237 1508 c 0,14,15
 228 1506 228 1506 223 1502 c 128,-1,16
 218 1498 218 1498 215 1491 c 128,-1,17
 212 1484 212 1484 210.5 1473 c 128,-1,18
 209 1462 209 1462 208 1446 c 1,19,-1
 218 458 l 2,20,21
 218 453 218 453 219.5 450.5 c 128,-1,22
 221 448 221 448 229 448 c 1,23,24
 271 459 271 459 309 467 c 128,-1,25
 347 475 347 475 386 482 c 0,26,27
 404 485 404 485 408.5 498 c 128,-1,28
 413 511 413 511 415 544 c 1,29,30
 441 702 441 702 471.5 858.5 c 128,-1,31
 502 1015 502 1015 534 1170 c 0,0,1
499 342 m 0,32,33
 499 352 499 352 488 352 c 0,34,35
 483 352 483 352 479 351 c 0,36,37
 383 332 383 332 295.5 312.5 c 128,-1,38
 208 293 208 293 123 278 c 0,39,40
 105 274 105 274 100.5 261 c 128,-1,41
 96 248 96 248 94 216 c 2,42,-1
 72 -58 l 2,43,44
 72 -59 72 -59 74 -60 c 256,45,46
 76 -61 76 -61 83 -68 c 1,47,48
 88 -68 88 -68 92 -67 c 0,49,50
 178 -38 178 -38 271.5 -19.5 c 128,-1,51
 365 -1 365 -1 450 16 c 0,52,53
 468 20 468 20 472.5 32.5 c 128,-1,54
 477 45 477 45 479 78 c 0,55,56
 484 143 484 143 486.5 172.5 c 128,-1,57
 489 202 489 202 489.5 212 c 128,-1,58
 490 222 490 222 490.5 222.5 c 128,-1,59
 491 223 491 223 491.5 230.5 c 128,-1,60
 492 238 492 238 493.5 261.5 c 128,-1,61
 495 285 495 285 499 342 c 0,32,33
EndSplineSet
EndChar

StartChar: bracketleft
Encoding: 325 91 69
Width: 804
Flags: W
LayerCount: 2
Fore
SplineSet
183 751 m 2,0,1
 177 669 177 669 171 579 c 128,-1,2
 165 489 165 489 158.5 402.5 c 128,-1,3
 152 316 152 316 146 237 c 128,-1,4
 140 158 140 158 135.5 96.5 c 128,-1,5
 131 35 131 35 128 -3 c 128,-1,6
 125 -41 125 -41 125 -46 c 0,7,8
 125 -57 125 -57 127.5 -67.5 c 128,-1,9
 130 -78 130 -78 141 -79 c 1,10,11
 178 -87 178 -87 222.5 -91.5 c 128,-1,12
 267 -96 267 -96 314 -99 c 128,-1,13
 361 -102 361 -102 409.5 -104 c 128,-1,14
 458 -106 458 -106 504 -109 c 0,15,16
 524 -111 524 -111 541 -112 c 128,-1,17
 558 -113 558 -113 573 -113 c 0,18,19
 598 -113 598 -113 617 -105.5 c 128,-1,20
 636 -98 636 -98 650 -72 c 1,21,22
 659 -51 659 -51 672.5 -16.5 c 128,-1,23
 686 18 686 18 698.5 51.5 c 128,-1,24
 711 85 711 85 720.5 110.5 c 128,-1,25
 730 136 730 136 731 138 c 0,26,27
 736 146 736 146 739.5 154 c 128,-1,28
 743 162 743 162 743 168 c 0,29,30
 743 179 743 179 731 179 c 2,31,-1
 538 177 l 1,32,-1
 572 592 l 1,33,34
 581 673 581 673 589.5 756 c 128,-1,35
 598 839 598 839 605 909 c 128,-1,36
 612 979 612 979 616.5 1027.5 c 128,-1,37
 621 1076 621 1076 623 1090 c 1,38,39
 649 1092 649 1092 673 1095 c 128,-1,40
 697 1098 697 1098 716 1100 c 0,41,42
 738 1103 738 1103 757 1105 c 1,43,44
 786 1106 786 1106 795.5 1115 c 128,-1,45
 805 1124 805 1124 811 1141 c 0,46,47
 835 1204 835 1204 855 1257 c 0,48,49
 863 1279 863 1279 871.5 1302 c 128,-1,50
 880 1325 880 1325 887 1344.5 c 128,-1,51
 894 1364 894 1364 899 1379.5 c 128,-1,52
 904 1395 904 1395 906 1403 c 0,53,54
 909 1413 909 1413 909 1421 c 0,55,56
 909 1432 909 1432 904.5 1438 c 128,-1,57
 900 1444 900 1444 895 1446.5 c 128,-1,58
 890 1449 890 1449 885.5 1449.5 c 128,-1,59
 881 1450 881 1450 880 1450 c 0,60,61
 867 1449 867 1449 833.5 1446 c 128,-1,62
 800 1443 800 1443 754.5 1439 c 128,-1,63
 709 1435 709 1435 655.5 1429.5 c 128,-1,64
 602 1424 602 1424 548 1419 c 0,65,66
 421 1407 421 1407 269 1392 c 0,67,68
 263 1391 263 1391 256 1389 c 128,-1,69
 249 1387 249 1387 243 1380 c 128,-1,70
 237 1373 237 1373 232 1359.5 c 128,-1,71
 227 1346 227 1346 226 1322 c 2,72,-1
 183 751 l 2,0,1
EndSplineSet
EndChar

StartChar: bracketright
Encoding: 326 93 70
Width: 807
Flags: W
HStem: 1147 276<195.987 312>
LayerCount: 2
Fore
SplineSet
736 573 m 2,0,1
 738 604 738 604 742 655.5 c 128,-1,2
 746 707 746 707 751 768 c 128,-1,3
 756 829 756 829 761.5 894 c 128,-1,4
 767 959 767 959 772 1018 c 128,-1,5
 777 1077 777 1077 781 1124.5 c 128,-1,6
 785 1172 785 1172 786 1197 c 1,7,8
 789 1225 789 1225 791.5 1257 c 128,-1,9
 794 1289 794 1289 795.5 1316.5 c 128,-1,10
 797 1344 797 1344 798 1364 c 128,-1,11
 799 1384 799 1384 799 1390 c 0,12,13
 799 1400 799 1400 797 1411.5 c 128,-1,14
 795 1423 795 1423 783 1423 c 2,15,-1
 312 1423 l 2,16,17
 292 1423 292 1423 273 1424.5 c 128,-1,18
 254 1426 254 1426 237 1426 c 0,19,20
 211 1426 211 1426 195.5 1417 c 128,-1,21
 180 1408 180 1408 180 1376 c 0,22,23
 180 1358 180 1358 179.5 1326.5 c 128,-1,24
 179 1295 179 1295 178.5 1264.5 c 128,-1,25
 178 1234 178 1234 177.5 1211 c 128,-1,26
 177 1188 177 1188 177 1186 c 0,27,28
 177 1179 177 1179 176.5 1173.5 c 128,-1,29
 176 1168 176 1168 176 1163 c 0,30,31
 176 1155 176 1155 179 1150 c 128,-1,32
 182 1145 182 1145 192 1145 c 2,33,-1
 385 1147 l 1,34,-1
 356 732 l 1,35,36
 351 678 351 678 346.5 622.5 c 128,-1,37
 342 567 342 567 338 514.5 c 128,-1,38
 334 462 334 462 330.5 415 c 128,-1,39
 327 368 327 368 324.5 331 c 128,-1,40
 322 294 322 294 320 268.5 c 128,-1,41
 318 243 318 243 317 234 c 1,42,43
 291 233 291 233 264 232.5 c 128,-1,44
 237 232 237 232 214 231 c 0,45,46
 188 230 188 230 162 229 c 0,47,48
 133 228 133 228 123.5 219 c 128,-1,49
 114 210 114 210 108 193 c 0,50,51
 89 138 89 138 73 90 c 0,52,53
 66 70 66 70 59.5 49.5 c 128,-1,54
 53 29 53 29 47.5 11.5 c 128,-1,55
 42 -6 42 -6 38 -19.5 c 128,-1,56
 34 -33 34 -33 33 -39 c 0,57,58
 30 -50 30 -50 30 -57 c 0,59,60
 30 -68 30 -68 34 -74 c 128,-1,61
 38 -80 38 -80 43.5 -82.5 c 128,-1,62
 49 -85 49 -85 53.5 -85.5 c 128,-1,63
 58 -86 58 -86 59 -86 c 0,64,65
 72 -86 72 -86 104 -85 c 128,-1,66
 136 -84 136 -84 180 -83 c 128,-1,67
 224 -82 224 -82 276 -80.5 c 128,-1,68
 328 -79 328 -79 380 -77 c 0,69,70
 502 -73 502 -73 650 -68 c 0,71,72
 656 -67 656 -67 662.5 -65 c 128,-1,73
 669 -63 669 -63 675 -56 c 128,-1,74
 681 -49 681 -49 686 -35.5 c 128,-1,75
 691 -22 691 -22 693 2 c 2,76,-1
 736 573 l 2,0,1
EndSplineSet
EndChar

StartChar: grave
Encoding: 327 96 71
Width: 561
Flags: W
LayerCount: 2
Fore
SplineSet
172 1427 m 0,0,1
 208 1363 208 1363 232 1317.5 c 128,-1,2
 256 1272 256 1272 273 1243.5 c 128,-1,3
 290 1215 290 1215 301 1201.5 c 128,-1,4
 312 1188 312 1188 321 1188 c 0,5,6
 327 1188 327 1188 332 1192 c 0,7,8
 356 1206 356 1206 375.5 1216.5 c 128,-1,9
 395 1227 395 1227 412.5 1236 c 128,-1,10
 430 1245 430 1245 448 1252.5 c 128,-1,11
 466 1260 466 1260 487 1269 c 1,12,13
 503 1278 503 1278 503 1295 c 1,14,15
 504 1303 504 1303 502 1312.5 c 128,-1,16
 500 1322 500 1322 497 1337 c 2,17,-1
 385 1922 l 2,18,19
 383 1930 383 1930 377 1930 c 0,20,21
 372 1930 372 1930 363 1925 c 1,22,23
 326 1899 326 1899 286 1874.5 c 128,-1,24
 246 1850 246 1850 205 1827.5 c 128,-1,25
 164 1805 164 1805 123 1784 c 128,-1,26
 82 1763 82 1763 45 1742 c 0,27,28
 35 1737 35 1737 30 1730.5 c 128,-1,29
 25 1724 25 1724 25 1713 c 0,30,31
 25 1698 25 1698 35 1674 c 1,32,33
 58 1632 58 1632 74 1604 c 128,-1,34
 90 1576 90 1576 104 1550.5 c 128,-1,35
 118 1525 118 1525 133.5 1497 c 128,-1,36
 149 1469 149 1469 172 1427 c 0,0,1
EndSplineSet
EndChar

StartChar: acute
Encoding: 329 180 73
Width: 635
Flags: W
VStem: 47 565
LayerCount: 2
Fore
SplineSet
376 1392 m 1,0,1
 412 1436 412 1436 436 1466 c 128,-1,2
 460 1496 460 1496 482.5 1523 c 128,-1,3
 505 1550 505 1550 530.5 1579.5 c 128,-1,4
 556 1609 556 1609 595 1654 c 1,5,6
 612 1678 612 1678 612 1695 c 256,7,8
 612 1712 612 1712 594 1722 c 0,9,10
 518 1762 518 1762 440 1800 c 128,-1,11
 362 1838 362 1838 285 1890 c 0,12,13
 280 1893 280 1893 275 1895.5 c 128,-1,14
 270 1898 270 1898 265 1898 c 0,15,16
 259 1898 259 1898 254 1893 c 128,-1,17
 249 1888 249 1888 244 1874 c 2,18,-1
 59 1337 l 2,19,20
 53 1320 53 1320 50.5 1309 c 128,-1,21
 48 1298 48 1298 47 1290 c 1,22,23
 47 1277 47 1277 61 1269 c 1,24,25
 80 1260 80 1260 95.5 1252.5 c 128,-1,26
 111 1245 111 1245 126 1236 c 128,-1,27
 141 1227 141 1227 158 1216.5 c 128,-1,28
 175 1206 175 1206 196 1192 c 1,29,30
 200 1188 200 1188 206 1188 c 0,31,32
 213 1188 213 1188 224 1197 c 128,-1,33
 235 1206 235 1206 254 1229 c 128,-1,34
 273 1252 273 1252 302.5 1291.5 c 128,-1,35
 332 1331 332 1331 376 1392 c 1,0,1
EndSplineSet
EndChar

StartChar: exclamdown
Encoding: 338 161 82
Width: 550
Flags: W
LayerCount: 2
Fore
SplineSet
150 364 m 0,0,1
 143 334 143 334 134.5 291.5 c 128,-1,2
 126 249 126 249 117 202.5 c 128,-1,3
 108 156 108 156 100 110 c 128,-1,4
 92 64 92 64 85.5 27 c 128,-1,5
 79 -10 79 -10 75 -33.5 c 128,-1,6
 71 -57 71 -57 71 -58 c 0,7,8
 71 -68 71 -68 82 -68 c 0,9,10
 87 -68 87 -68 91 -67 c 0,11,12
 187 -42 187 -42 274.5 -18 c 128,-1,13
 362 6 362 6 447 26 c 0,14,15
 465 30 465 30 469 42.5 c 128,-1,16
 473 55 473 55 476 88 c 1,17,-1
 466 1076 l 2,18,19
 466 1081 466 1081 464.5 1083.5 c 128,-1,20
 463 1086 463 1086 455 1086 c 1,21,22
 413 1075 413 1075 375 1067 c 128,-1,23
 337 1059 337 1059 298 1052 c 0,24,25
 280 1049 280 1049 275.5 1035.5 c 128,-1,26
 271 1022 271 1022 269 990 c 1,27,28
 243 832 243 832 212.5 675.5 c 128,-1,29
 182 519 182 519 150 364 c 0,0,1
185 1192 m 0,30,31
 185 1182 185 1182 196 1182 c 0,32,33
 201 1182 201 1182 205 1183 c 0,34,35
 301 1202 301 1202 388.5 1221 c 128,-1,36
 476 1240 476 1240 561 1256 c 0,37,38
 578 1259 578 1259 582.5 1272 c 128,-1,39
 587 1285 587 1285 590 1318 c 2,40,-1
 612 1592 l 1,41,42
 611 1593 611 1593 609 1594 c 0,43,44
 606 1595 606 1595 601 1602 c 1,45,46
 596 1602 596 1602 592 1601 c 0,47,48
 506 1572 506 1572 412.5 1553.5 c 128,-1,49
 319 1535 319 1535 234 1518 c 0,50,51
 216 1514 216 1514 211.5 1501.5 c 128,-1,52
 207 1489 207 1489 205 1456 c 0,53,54
 200 1391 200 1391 197.5 1361.5 c 128,-1,55
 195 1332 195 1332 194.5 1322 c 128,-1,56
 194 1312 194 1312 193.5 1311.5 c 128,-1,57
 193 1311 193 1311 192.5 1303.5 c 128,-1,58
 192 1296 192 1296 190.5 1272.5 c 128,-1,59
 189 1249 189 1249 185 1192 c 0,30,31
EndSplineSet
EndChar

StartChar: OE
Encoding: 339 338 83
Width: 2051
Flags: W
HStem: -51 307<728.798 987.395 1562.41 1614.5 1816.5 1899.45> 1155 293<744.197 1044.85>
VStem: 127 441<444.147 928.538>
LayerCount: 2
Fore
SplineSet
762 -51 m 0,0,1
 865 -51 865 -51 960 -17 c 128,-1,2
 1055 17 1055 17 1138 82 c 1,3,-1
 1127 24 l 2,4,5
 1125 18 1125 18 1125 15 c 0,6,7
 1125 6 1125 6 1130.5 -1 c 128,-1,8
 1136 -8 1136 -8 1143 -9 c 0,9,10
 1210 -17 1210 -17 1288 -24.5 c 128,-1,11
 1366 -32 1366 -32 1448.5 -38.5 c 128,-1,12
 1531 -45 1531 -45 1614.5 -49 c 128,-1,13
 1698 -53 1698 -53 1776 -53 c 0,14,15
 1798 -53 1798 -53 1816.5 -52 c 128,-1,16
 1835 -51 1835 -51 1850.5 -46 c 128,-1,17
 1866 -41 1866 -41 1879 -30.5 c 128,-1,18
 1892 -20 1892 -20 1902 -2 c 1,19,20
 1917 19 1917 19 1938.5 53.5 c 128,-1,21
 1960 88 1960 88 1981 121.5 c 128,-1,22
 2002 155 2002 155 2017 180.5 c 128,-1,23
 2032 206 2032 206 2033 208 c 1,24,-1
 2033 249 l 1,25,-1
 1560 249 l 1,26,-1
 1587 532 l 1,27,28
 1628 533 1628 533 1664 533.5 c 128,-1,29
 1700 534 1700 534 1726 535 c 0,30,31
 1757 536 1757 536 1783 536 c 0,32,33
 1812 536 1812 536 1821.5 544.5 c 128,-1,34
 1831 553 1831 553 1838 570 c 0,35,36
 1863 628 1863 628 1885 676 c 0,37,38
 1894 697 1894 697 1903 717.5 c 128,-1,39
 1912 738 1912 738 1920 756 c 128,-1,40
 1928 774 1928 774 1934 788 c 128,-1,41
 1940 802 1940 802 1942 809 c 0,42,43
 1945 819 1945 819 1945 827 c 0,44,45
 1945 838 1945 838 1940.5 843.5 c 128,-1,46
 1936 849 1936 849 1931 852 c 0,47,48
 1925 856 1925 856 1917 856 c 0,49,50
 1905 856 1905 856 1875.5 855 c 128,-1,51
 1846 854 1846 854 1806 852.5 c 128,-1,52
 1766 851 1766 851 1717.5 849 c 128,-1,53
 1669 847 1669 847 1618 845 c 1,54,-1
 1645 1090 l 1,55,56
 1708 1092 1708 1092 1766.5 1095 c 128,-1,57
 1825 1098 1825 1098 1870 1100 c 0,58,59
 1923 1103 1923 1103 1969 1105 c 0,60,61
 1998 1106 1998 1106 2007.5 1115 c 128,-1,62
 2017 1124 2017 1124 2023 1141 c 0,63,64
 2047 1204 2047 1204 2067 1257 c 0,65,66
 2075 1279 2075 1279 2083.5 1302 c 128,-1,67
 2092 1325 2092 1325 2099 1344.5 c 128,-1,68
 2106 1364 2106 1364 2111 1379.5 c 128,-1,69
 2116 1395 2116 1395 2118 1403 c 0,70,71
 2121 1413 2121 1413 2121 1421 c 0,72,73
 2121 1432 2121 1432 2116.5 1438 c 128,-1,74
 2112 1444 2112 1444 2107 1446.5 c 128,-1,75
 2102 1449 2102 1449 2097.5 1449.5 c 128,-1,76
 2093 1450 2093 1450 2092 1450 c 0,77,78
 2074 1449 2074 1449 2028 1446.5 c 128,-1,79
 1982 1444 1982 1444 1919 1440 c 128,-1,80
 1856 1436 1856 1436 1781 1431 c 128,-1,81
 1706 1426 1706 1426 1631 1421 c 0,82,83
 1454 1410 1454 1410 1241 1395 c 1,84,-1
 1238 1337 l 1,85,86
 1170 1389 1170 1389 1087 1418.5 c 128,-1,87
 1004 1448 1004 1448 909 1448 c 0,88,89
 803 1448 803 1448 704 1422.5 c 128,-1,90
 605 1397 605 1397 518 1349.5 c 128,-1,91
 431 1302 431 1302 359 1233 c 128,-1,92
 287 1164 287 1164 235.5 1077 c 128,-1,93
 184 990 184 990 155.5 886.5 c 128,-1,94
 127 783 127 783 127 665 c 0,95,96
 127 522 127 522 170.5 392 c 128,-1,97
 214 262 214 262 296 163.5 c 128,-1,98
 378 65 378 65 496 7 c 128,-1,99
 614 -51 614 -51 762 -51 c 0,0,1
568 682 m 0,100,101
 568 725 568 725 575 777 c 128,-1,102
 582 829 582 829 597 882 c 128,-1,103
 612 935 612 935 637 984 c 128,-1,104
 662 1033 662 1033 697.5 1071 c 128,-1,105
 733 1109 733 1109 780.5 1132 c 128,-1,106
 828 1155 828 1155 889 1155 c 0,107,108
 968 1155 968 1155 1027 1121.5 c 128,-1,109
 1086 1088 1086 1088 1125 1032.5 c 128,-1,110
 1164 977 1164 977 1183 905 c 128,-1,111
 1202 833 1202 833 1202 756 c 0,112,113
 1202 702 1202 702 1196.5 645.5 c 128,-1,114
 1191 589 1191 589 1177.5 535.5 c 128,-1,115
 1164 482 1164 482 1140.5 433.5 c 128,-1,116
 1117 385 1117 385 1082 347.5 c 128,-1,117
 1047 310 1047 310 999 285.5 c 128,-1,118
 951 261 951 261 887 256 c 1,119,120
 798 256 798 256 737 294 c 128,-1,121
 676 332 676 332 638.5 393 c 128,-1,122
 601 454 601 454 584.5 530 c 128,-1,123
 568 606 568 606 568 682 c 0,100,101
EndSplineSet
EndChar

StartChar: oe
Encoding: 340 339 84
Width: 1997
Flags: W
HStem: -91 282<1396.31 1540 1614 1738.72> -57 268<522.868 819.095 1541.53 1783.7> 431 234<1523.31 1718> 844 262<590.049 824.393 1551.81 1672.1> 850 278<1410.85 1664.6>
VStem: 102 385<315.938 716.369> 1719 284<665 795.648>
LayerCount: 2
Fore
SplineSet
582 -57 m 0,0,1
 676 -57 676 -57 745.5 -45.5 c 128,-1,2
 815 -34 815 -34 869.5 -11.5 c 128,-1,3
 924 11 924 11 970 44 c 128,-1,4
 1016 77 1016 77 1063 119 c 1,5,6
 1105 69 1105 69 1152.5 30 c 128,-1,7
 1200 -9 1200 -9 1255 -36 c 128,-1,8
 1310 -63 1310 -63 1372.5 -77 c 128,-1,9
 1435 -91 1435 -91 1508 -91 c 0,10,11
 1558 -91 1558 -91 1614 -80.5 c 128,-1,12
 1670 -70 1670 -70 1722.5 -52.5 c 128,-1,13
 1775 -35 1775 -35 1820 -11 c 128,-1,14
 1865 13 1865 13 1893 40 c 0,15,16
 1898 45 1898 45 1900 67.5 c 128,-1,17
 1902 90 1902 90 1902 121 c 0,18,19
 1902 145 1902 145 1901.5 177 c 128,-1,20
 1901 209 1901 209 1899.5 238 c 128,-1,21
 1898 267 1898 267 1894 287.5 c 128,-1,22
 1890 308 1890 308 1883 308 c 0,23,24
 1882 308 1882 308 1881 307.5 c 128,-1,25
 1880 307 1880 307 1879 307 c 0,26,27
 1844 287 1844 287 1805 266.5 c 128,-1,28
 1766 246 1766 246 1723.5 229.5 c 128,-1,29
 1681 213 1681 213 1635 202 c 128,-1,30
 1589 191 1589 191 1540 191 c 0,31,32
 1497 191 1497 191 1456.5 204 c 128,-1,33
 1416 217 1416 217 1384 244.5 c 128,-1,34
 1352 272 1352 272 1331 314 c 128,-1,35
 1310 356 1310 356 1306 415 c 1,36,37
 1406 421 1406 421 1508.5 424 c 128,-1,38
 1611 427 1611 427 1709 431 c 1,39,40
 1787 431 1787 431 1839.5 435 c 128,-1,41
 1892 439 1892 439 1923.5 449.5 c 128,-1,42
 1955 460 1955 460 1968.5 479 c 128,-1,43
 1982 498 1982 498 1982 528 c 1,44,45
 2003 601 2003 601 2003 674 c 0,46,47
 2003 773 2003 773 1966 856.5 c 128,-1,48
 1929 940 1929 940 1866 1000.5 c 128,-1,49
 1803 1061 1803 1061 1721 1094.5 c 128,-1,50
 1639 1128 1639 1128 1549 1128 c 0,51,52
 1421 1128 1421 1128 1311.5 1077 c 128,-1,53
 1202 1026 1202 1026 1117 938 c 1,54,55
 1047 1016 1047 1016 955 1061 c 128,-1,56
 863 1106 863 1106 754 1106 c 0,57,58
 622 1106 622 1106 503.5 1062.5 c 128,-1,59
 385 1019 385 1019 296 939 c 128,-1,60
 207 859 207 859 154.5 747 c 128,-1,61
 102 635 102 635 102 499 c 0,62,63
 102 392 102 392 133 291.5 c 128,-1,64
 164 191 164 191 224.5 113.5 c 128,-1,65
 285 36 285 36 375 -10.5 c 128,-1,66
 465 -57 465 -57 582 -57 c 0,0,1
487 510 m 0,67,68
 487 539 487 539 491.5 575 c 128,-1,69
 496 611 496 611 506.5 648.5 c 128,-1,70
 517 686 517 686 533.5 721 c 128,-1,71
 550 756 550 756 574 783.5 c 128,-1,72
 598 811 598 811 629 827.5 c 128,-1,73
 660 844 660 844 700 844 c 0,74,75
 753 844 753 844 794 820.5 c 128,-1,76
 835 797 835 797 862.5 759 c 128,-1,77
 890 721 890 721 904 671 c 128,-1,78
 918 621 918 621 918 569 c 0,79,80
 918 538 918 538 914.5 500 c 128,-1,81
 911 462 911 462 902 422.5 c 128,-1,82
 893 383 893 383 878.5 346 c 128,-1,83
 864 309 864 309 841 279.5 c 128,-1,84
 818 250 818 250 786.5 231.5 c 128,-1,85
 755 213 755 213 713 211 c 1,86,87
 649 211 649 211 606 237.5 c 128,-1,88
 563 264 563 264 536.5 307 c 128,-1,89
 510 350 510 350 498.5 403 c 128,-1,90
 487 456 487 456 487 510 c 0,67,68
1549 850 m 0,91,92
 1577 850 1577 850 1607.5 839.5 c 128,-1,93
 1638 829 1638 829 1662.5 808 c 128,-1,94
 1687 787 1687 787 1703 755 c 128,-1,95
 1719 723 1719 723 1719 681 c 0,96,97
 1719 677 1719 677 1718.5 673 c 128,-1,98
 1718 669 1718 669 1718 665 c 1,99,-1
 1297 634 l 1,100,101
 1313 683 1313 683 1337 722.5 c 128,-1,102
 1361 762 1361 762 1392.5 790.5 c 128,-1,103
 1424 819 1424 819 1463.5 834.5 c 128,-1,104
 1503 850 1503 850 1549 850 c 0,91,92
EndSplineSet
EndChar

StartChar: hyphen
Encoding: 341 45 85
Width: 958
Flags: W
HStem: 536 313<506.048 645 810 848.198>
LayerCount: 2
Fore
SplineSet
323 832 m 2,0,1
 308 831 308 831 285 811.5 c 128,-1,2
 262 792 262 792 237 763 c 128,-1,3
 212 734 212 734 186.5 699.5 c 128,-1,4
 161 665 161 665 141 634.5 c 128,-1,5
 121 604 121 604 108.5 581.5 c 128,-1,6
 96 559 96 559 96 554 c 0,7,8
 96 537 96 537 125.5 531.5 c 128,-1,9
 155 526 155 526 215 526 c 0,10,11
 235 526 235 526 271.5 526.5 c 128,-1,12
 308 527 308 527 353.5 527.5 c 128,-1,13
 399 528 399 528 450.5 529 c 128,-1,14
 502 530 502 530 553 531 c 0,15,16
 672 533 672 533 810 536 c 0,17,18
 839 536 839 536 848.5 544.5 c 128,-1,19
 858 553 858 553 865 570 c 0,20,21
 890 628 890 628 912 676 c 0,22,23
 921 697 921 697 930 717.5 c 128,-1,24
 939 738 939 738 947 756 c 128,-1,25
 955 774 955 774 961 788 c 128,-1,26
 967 802 967 802 969 809 c 0,27,28
 972 819 972 819 972 827 c 0,29,30
 972 838 972 838 967.5 843.5 c 128,-1,31
 963 849 963 849 958 852 c 0,32,33
 952 856 952 856 944 856 c 0,34,35
 932 856 932 856 902.5 855 c 128,-1,36
 873 854 873 854 833 852.5 c 128,-1,37
 793 851 793 851 744.5 849 c 128,-1,38
 696 847 696 847 645 845 c 2,39,-1
 323 832 l 2,0,1
EndSplineSet
EndChar

StartChar: period
Encoding: 342 46 86
Width: 573
Flags: W
LayerCount: 2
Fore
SplineSet
90 -38 m 1,0,-1
 90 -42 l 2,1,2
 90 -47 90 -47 92.5 -48 c 128,-1,3
 95 -49 95 -49 101 -49 c 0,4,5
 198 -49 198 -49 287.5 -48 c 128,-1,6
 377 -47 377 -47 462 -46 c 1,7,8
 481 -44 481 -44 484.5 -31.5 c 128,-1,9
 488 -19 488 -19 492 14 c 2,10,-1
 520 322 l 1,11,-1
 520 328 l 2,12,13
 520 342 520 342 514 347 c 128,-1,14
 508 352 508 352 499 352 c 0,15,16
 415 351 415 351 318.5 350.5 c 128,-1,17
 222 350 222 350 134 350 c 1,18,19
 116 347 116 347 111.5 334.5 c 128,-1,20
 107 322 107 322 105 289 c 0,21,22
 102 235 102 235 100.5 202.5 c 128,-1,23
 99 170 99 170 98 151.5 c 128,-1,24
 97 133 97 133 97 125 c 128,-1,25
 97 117 97 117 96.5 111.5 c 128,-1,26
 96 106 96 106 96 100 c 128,-1,27
 96 94 96 94 95.5 79 c 128,-1,28
 95 64 95 64 93.5 36.5 c 128,-1,29
 92 9 92 9 90 -38 c 1,0,-1
EndSplineSet
EndChar

StartChar: yen
Encoding: 343 165 87
Width: 1263
Flags: W
HStem: 218 206<269.018 340 858 1025.46> 517 206<317.018 388 974 1073.62>
LayerCount: 2
Fore
SplineSet
384 723 m 2,0,1
 369 722 369 722 352.5 710.5 c 128,-1,2
 336 699 336 699 320 681.5 c 128,-1,3
 304 664 304 664 290 642.5 c 128,-1,4
 276 621 276 621 265 601.5 c 128,-1,5
 254 582 254 582 247.5 565.5 c 128,-1,6
 241 549 241 549 241 541 c 0,7,8
 241 527 241 527 276.5 522 c 128,-1,9
 312 517 312 517 388 517 c 2,10,-1
 471 517 l 1,11,-1
 459 434 l 2,12,13
 458 433 458 433 458 432 c 256,14,15
 458 431 458 431 457.5 429.5 c 128,-1,16
 457 428 457 428 457 426 c 1,17,-1
 336 424 l 2,18,19
 321 423 321 423 304.5 411.5 c 128,-1,20
 288 400 288 400 272 382.5 c 128,-1,21
 256 365 256 365 242 343.5 c 128,-1,22
 228 322 228 322 217 302.5 c 128,-1,23
 206 283 206 283 199.5 266.5 c 128,-1,24
 193 250 193 250 193 242 c 0,25,26
 193 228 193 228 228.5 223 c 128,-1,27
 264 218 264 218 340 218 c 2,28,-1
 422 218 l 1,29,30
 412 155 412 155 404 93.5 c 128,-1,31
 396 32 396 32 393 -15 c 1,32,-1
 393 -19 l 2,33,34
 393 -36 393 -36 405 -43.5 c 128,-1,35
 417 -51 417 -51 434 -51 c 0,36,37
 450 -51 450 -51 467.5 -46 c 128,-1,38
 485 -41 485 -41 501 -33 c 1,39,-1
 765 36 l 1,40,41
 774 41 774 41 780 46 c 128,-1,42
 786 51 786 51 789.5 58.5 c 128,-1,43
 793 66 793 66 795 77 c 128,-1,44
 797 88 797 88 800 104 c 2,45,-1
 820 222 l 1,46,47
 860 222 860 222 894 222.5 c 128,-1,48
 928 223 928 223 953 223 c 0,49,50
 982 223 982 223 1006 224 c 0,51,52
 1022 224 1022 224 1031.5 225.5 c 128,-1,53
 1041 227 1041 227 1046 230 c 128,-1,54
 1051 233 1051 233 1052.5 237 c 128,-1,55
 1054 241 1054 241 1055 247 c 0,56,57
 1060 283 1060 283 1064 314 c 0,58,59
 1068 340 1068 340 1071 366 c 128,-1,60
 1074 392 1074 392 1074 405 c 256,61,62
 1074 418 1074 418 1066.5 425 c 128,-1,63
 1059 432 1059 432 1050 435.5 c 128,-1,64
 1041 439 1041 439 1033.5 439.5 c 128,-1,65
 1026 440 1026 440 1026 440 c 1,66,67
 1009 440 1009 440 964 439 c 128,-1,68
 919 438 919 438 858 436 c 1,69,-1
 872 521 l 1,70,71
 911 521 911 521 944 521.5 c 128,-1,72
 977 522 977 522 1002 522 c 0,73,74
 1030 522 1030 522 1054 523 c 0,75,76
 1070 523 1070 523 1079.5 524.5 c 128,-1,77
 1089 526 1089 526 1094 529 c 128,-1,78
 1099 532 1099 532 1100.5 536 c 128,-1,79
 1102 540 1102 540 1103 546 c 0,80,81
 1108 582 1108 582 1112 613 c 0,82,83
 1116 639 1116 639 1119 665 c 128,-1,84
 1122 691 1122 691 1122 704 c 256,85,86
 1122 717 1122 717 1114.5 724 c 128,-1,87
 1107 731 1107 731 1098 734.5 c 128,-1,88
 1089 738 1089 738 1081.5 738.5 c 128,-1,89
 1074 739 1074 739 1074 739 c 2,90,91
 1062 739 1062 739 1035.5 738.5 c 128,-1,92
 1009 738 1009 738 974 737 c 1,93,94
 1003 791 1003 791 1033 846 c 128,-1,95
 1063 901 1063 901 1088 946 c 0,96,97
 1117 999 1117 999 1144 1049 c 2,98,-1
 1329 1394 l 2,99,100
 1334 1404 1334 1404 1335 1412.5 c 128,-1,101
 1336 1421 1336 1421 1337 1426 c 1,102,103
 1337 1447 1337 1447 1314 1447 c 0,104,105
 1306 1447 1306 1447 1294 1444 c 2,106,-1
 951 1358 l 2,107,108
 949 1358 949 1358 939 1342 c 128,-1,109
 929 1326 929 1326 914 1300 c 128,-1,110
 899 1274 899 1274 881 1241 c 128,-1,111
 863 1208 863 1208 844 1174 c 0,112,113
 800 1093 800 1093 745 991 c 1,114,-1
 739 976 l 1,115,-1
 508 1424 l 1,116,117
 496 1436 496 1436 486.5 1440.5 c 128,-1,118
 477 1445 477 1445 469 1445 c 0,119,120
 458 1445 458 1445 445 1439 c 2,121,-1
 330 1393 l 2,122,123
 307 1384 307 1384 284.5 1374.5 c 128,-1,124
 262 1365 262 1365 242.5 1357 c 128,-1,125
 223 1349 223 1349 208.5 1342.5 c 128,-1,126
 194 1336 194 1336 187 1332 c 1,127,128
 181 1322 181 1322 179 1312.5 c 128,-1,129
 177 1303 177 1303 177 1295 c 0,130,131
 177 1282 177 1282 178 1278 c 256,132,133
 179 1274 179 1274 180 1271 c 0,134,135
 189 1253 189 1253 205.5 1218.5 c 128,-1,136
 222 1184 222 1184 243.5 1138 c 128,-1,137
 265 1092 265 1092 290 1039 c 128,-1,138
 315 986 315 986 340.5 931 c 128,-1,139
 366 876 366 876 391 823 c 128,-1,140
 416 770 416 770 437 724 c 1,141,-1
 384 723 l 2,0,1
EndSplineSet
EndChar

StartChar: colon
Encoding: 344 58 88
Width: 668
Flags: W
LayerCount: 2
Fore
SplineSet
179 727 m 1,0,-1
 179 723 l 2,1,2
 179 718 179 718 181.5 717 c 128,-1,3
 184 716 184 716 190 716 c 0,4,5
 287 716 287 716 376.5 717 c 128,-1,6
 466 718 466 718 551 719 c 1,7,8
 570 721 570 721 573.5 733.5 c 128,-1,9
 577 746 577 746 581 779 c 2,10,-1
 609 1087 l 1,11,-1
 609 1093 l 2,12,13
 609 1107 609 1107 603 1112 c 128,-1,14
 597 1117 597 1117 588 1117 c 0,15,16
 504 1116 504 1116 407.5 1115.5 c 128,-1,17
 311 1115 311 1115 223 1115 c 1,18,19
 205 1112 205 1112 200.5 1099.5 c 128,-1,20
 196 1087 196 1087 194 1054 c 0,21,22
 191 1000 191 1000 189.5 967.5 c 128,-1,23
 188 935 188 935 187 916.5 c 128,-1,24
 186 898 186 898 186 890 c 128,-1,25
 186 882 186 882 185.5 876.5 c 128,-1,26
 185 871 185 871 185 865 c 128,-1,27
 185 859 185 859 184.5 844 c 128,-1,28
 184 829 184 829 182.5 801.5 c 128,-1,29
 181 774 181 774 179 727 c 1,0,-1
159 -38 m 1,30,-1
 159 -42 l 2,31,32
 159 -47 159 -47 161.5 -48 c 128,-1,33
 164 -49 164 -49 170 -49 c 0,34,35
 267 -49 267 -49 356.5 -48 c 128,-1,36
 446 -47 446 -47 531 -46 c 1,37,38
 550 -44 550 -44 553.5 -31.5 c 128,-1,39
 557 -19 557 -19 561 14 c 2,40,-1
 589 322 l 1,41,-1
 589 328 l 2,42,43
 589 342 589 342 583 347 c 128,-1,44
 577 352 577 352 568 352 c 0,45,46
 484 351 484 351 387.5 350.5 c 128,-1,47
 291 350 291 350 203 350 c 1,48,49
 185 347 185 347 180.5 334.5 c 128,-1,50
 176 322 176 322 174 289 c 0,51,52
 171 235 171 235 169.5 202.5 c 128,-1,53
 168 170 168 170 167 151.5 c 128,-1,54
 166 133 166 133 166 125 c 128,-1,55
 166 117 166 117 165.5 111.5 c 128,-1,56
 165 106 165 106 165 100 c 128,-1,57
 165 94 165 94 164.5 79 c 128,-1,58
 164 64 164 64 162.5 36.5 c 128,-1,59
 161 9 161 9 159 -38 c 1,30,-1
EndSplineSet
EndChar

StartChar: dagger
Encoding: 345 8224 89
Width: 902
Flags: W
HStem: 918 214<224.304 327 327.006 350.5 876 903.5>
VStem: 355 244<107.126 699.469>
LayerCount: 2
Fore
SplineSet
690 918 m 1,0,1
 730 919 730 919 764 919.5 c 128,-1,2
 798 920 798 920 823 920 c 128,-1,3
 848 920 848 920 862 920.5 c 128,-1,4
 876 921 876 921 876 921 c 2,5,6
 892 921 892 921 901.5 922.5 c 128,-1,7
 911 924 911 924 916 927 c 128,-1,8
 921 930 921 930 922.5 934 c 128,-1,9
 924 938 924 938 925 944 c 0,10,11
 930 980 930 980 934 1011 c 0,12,13
 938 1037 938 1037 941 1063 c 128,-1,14
 944 1089 944 1089 944 1102 c 256,15,16
 944 1115 944 1115 936.5 1122 c 128,-1,17
 929 1129 929 1129 920 1132.5 c 128,-1,18
 911 1136 911 1136 903.5 1136.5 c 128,-1,19
 896 1137 896 1137 896 1137 c 1,20,21
 868 1137 868 1137 812.5 1134.5 c 128,-1,22
 757 1132 757 1132 658 1132 c 1,23,-1
 677 1436 l 2,24,25
 677 1445 677 1445 670 1445 c 0,26,27
 668 1445 668 1445 665 1444 c 0,28,29
 558 1437 558 1437 448 1432 c 1,30,31
 437 1428 437 1428 434.5 1417 c 128,-1,32
 432 1406 432 1406 430 1376 c 2,33,-1
 412 1127 l 1,34,35
 374 1126 374 1126 350.5 1125 c 128,-1,36
 327 1124 327 1124 327 1123 c 2,37,-1
 206 1121 l 1,38,39
 182 1119 182 1119 175.5 1112.5 c 128,-1,40
 169 1106 169 1106 161 1099 c 1,41,42
 156 1081 156 1081 151 1058.5 c 128,-1,43
 146 1036 146 1036 142.5 1013.5 c 128,-1,44
 139 991 139 991 136.5 971.5 c 128,-1,45
 134 952 134 952 134 941 c 0,46,47
 134 924 134 924 167.5 919 c 128,-1,48
 201 914 201 914 280 915 c 2,49,-1
 404 916 l 1,50,51
 401 867 401 867 397.5 807 c 128,-1,52
 394 747 394 747 390.5 685 c 128,-1,53
 387 623 387 623 384 564 c 128,-1,54
 381 505 381 505 378 459 c 0,55,56
 375 414 375 414 372 373.5 c 128,-1,57
 369 333 369 333 366 293 c 128,-1,58
 363 253 363 253 360 213 c 128,-1,59
 357 173 357 173 355 129 c 1,60,-1
 355 124 l 2,61,62
 355 108 355 108 361.5 102 c 128,-1,63
 368 96 368 96 376 96 c 0,64,65
 381 96 381 96 393 96.5 c 128,-1,66
 405 97 405 97 417.5 97.5 c 128,-1,67
 430 98 430 98 441 99 c 128,-1,68
 452 100 452 100 455 100 c 2,69,-1
 574 97 l 1,70,71
 590 103 590 103 594.5 107 c 128,-1,72
 599 111 599 111 599 119 c 0,73,74
 599 123 599 123 598.5 128.5 c 128,-1,75
 598 134 598 134 598 141 c 2,76,-1
 645 918 l 1,77,-1
 690 918 l 1,0,1
EndSplineSet
EndChar

StartChar: daggerdbl
Encoding: 346 8225 90
Width: 1008
Flags: W
HStem: 348 214<262.304 365 365.006 391.5 914 941.5> 920 214.5<296.914 403 403.006 426.5 952 979.5>
VStem: 431 244<127.126 343.657> 488 265<1206.62 1376.98>
LayerCount: 2
Fore
SplineSet
728 348 m 1,0,1
 768 349 768 349 802 349.5 c 128,-1,2
 836 350 836 350 861 350 c 128,-1,3
 886 350 886 350 900 350.5 c 128,-1,4
 914 351 914 351 914 351 c 2,5,6
 930 351 930 351 939.5 352.5 c 128,-1,7
 949 354 949 354 954 357 c 128,-1,8
 959 360 959 360 960.5 364 c 128,-1,9
 962 368 962 368 963 374 c 0,10,11
 968 410 968 410 972 441 c 0,12,13
 976 467 976 467 979 493 c 128,-1,14
 982 519 982 519 982 532 c 256,15,16
 982 545 982 545 974.5 552 c 128,-1,17
 967 559 967 559 958 562.5 c 128,-1,18
 949 566 949 566 941.5 566.5 c 128,-1,19
 934 567 934 567 934 567 c 1,20,21
 907 567 907 567 851 565.5 c 128,-1,22
 795 564 795 564 699 562 c 1,23,-1
 721 918 l 1,24,-1
 766 919 l 2,25,26
 806 920 806 920 840 920 c 128,-1,27
 874 920 874 920 899 920 c 128,-1,28
 924 920 924 920 938 920.5 c 128,-1,29
 952 921 952 921 952 921 c 2,30,31
 968 921 968 921 977.5 922.5 c 128,-1,32
 987 924 987 924 992 927 c 128,-1,33
 997 930 997 930 998.5 934 c 128,-1,34
 1000 938 1000 938 1001 944 c 0,35,36
 1006 980 1006 980 1010 1011 c 0,37,38
 1014 1037 1014 1037 1017 1063 c 128,-1,39
 1020 1089 1020 1089 1020 1102 c 256,40,41
 1020 1115 1020 1115 1012.5 1122 c 128,-1,42
 1005 1129 1005 1129 996 1132.5 c 128,-1,43
 987 1136 987 1136 979.5 1136.5 c 128,-1,44
 972 1137 972 1137 972 1137 c 1,45,46
 944 1137 944 1137 888.5 1134.5 c 128,-1,47
 833 1132 833 1132 734 1132 c 1,48,-1
 753 1436 l 2,49,50
 753 1445 753 1445 746 1445 c 0,51,52
 744 1445 744 1445 741 1444 c 0,53,54
 684 1418 684 1418 627.5 1403 c 128,-1,55
 571 1388 571 1388 514 1372 c 0,56,57
 503 1369 503 1369 500.5 1357 c 128,-1,58
 498 1345 498 1345 496 1316 c 2,59,-1
 488 1127 l 1,60,61
 450 1126 450 1126 426.5 1125 c 128,-1,62
 403 1124 403 1124 403 1123 c 2,63,-1
 282 1121 l 2,64,65
 267 1120 267 1120 250.5 1108.5 c 128,-1,66
 234 1097 234 1097 218 1079.5 c 128,-1,67
 202 1062 202 1062 188 1040.5 c 128,-1,68
 174 1019 174 1019 163 999.5 c 128,-1,69
 152 980 152 980 145.5 963.5 c 128,-1,70
 139 947 139 947 139 939 c 0,71,72
 139 925 139 925 174 919.5 c 128,-1,73
 209 914 209 914 286 915 c 2,74,-1
 480 916 l 1,75,76
 475 836 475 836 469 741 c 128,-1,77
 463 646 463 646 459 557 c 1,78,79
 418 556 418 556 391.5 555 c 128,-1,80
 365 554 365 554 365 553 c 2,81,-1
 244 551 l 2,82,83
 229 550 229 550 212.5 538.5 c 128,-1,84
 196 527 196 527 180 509.5 c 128,-1,85
 164 492 164 492 150 470.5 c 128,-1,86
 136 449 136 449 125 429.5 c 128,-1,87
 114 410 114 410 107.5 393.5 c 128,-1,88
 101 377 101 377 101 369 c 0,89,90
 101 355 101 355 136 349.5 c 128,-1,91
 171 344 171 344 248 345 c 2,92,-1
 448 346 l 1,93,94
 443 271 443 271 437 199 c 128,-1,95
 431 127 431 127 431 44 c 0,96,97
 431 28 431 28 437.5 22 c 128,-1,98
 444 16 444 16 452 16 c 0,99,100
 463 16 463 16 473.5 21.5 c 128,-1,101
 484 27 484 27 491 30 c 2,102,-1
 650 117 l 1,103,104
 666 123 666 123 670.5 127 c 128,-1,105
 675 131 675 131 675 139 c 0,106,107
 675 143 675 143 674.5 148.5 c 128,-1,108
 674 154 674 154 674 161 c 2,109,-1
 685 348 l 1,110,-1
 728 348 l 1,0,1
EndSplineSet
EndChar

StartChar: percent
Encoding: 347 37 91
Width: 2193
Flags: W
HStem: -52 211<1667.11 1864.46> 626 204<1678.18 1872.87> 711 211<456.107 653.461> 1389 204<467.179 661.872>
VStem: 152 256<969.905 1327.21> 714 251<986.79 1334.9> 1363 256<206.905 564.208> 1925 251<223.79 571.895>
LayerCount: 2
Fore
SplineSet
1057 864 m 0,0,1
 997 791 997 791 942.5 723.5 c 128,-1,2
 888 656 888 656 834.5 590.5 c 128,-1,3
 781 525 781 525 726.5 460 c 128,-1,4
 672 395 672 395 613 328 c 1,5,6
 613 316 613 316 614 308 c 128,-1,7
 615 300 615 300 623 295 c 1,8,9
 628 290 628 290 636.5 285 c 128,-1,10
 645 280 645 280 664.5 266.5 c 128,-1,11
 684 253 684 253 718 226.5 c 128,-1,12
 752 200 752 200 809 153 c 1,13,14
 820 151 820 151 826.5 149.5 c 128,-1,15
 833 148 833 148 838 148 c 0,16,17
 848 148 848 148 849 153 c 128,-1,18
 850 158 850 158 858 167 c 2,19,-1
 1646 1122 l 2,20,21
 1649 1125 1649 1125 1649 1129 c 0,22,23
 1649 1134 1649 1134 1643.5 1138.5 c 128,-1,24
 1638 1143 1638 1143 1632 1146 c 0,25,26
 1625 1150 1625 1150 1616 1153 c 1,27,28
 1568 1182 1568 1182 1521.5 1217 c 128,-1,29
 1475 1252 1475 1252 1426 1291 c 1,30,31
 1423 1292 1423 1292 1417 1292 c 0,32,33
 1407 1292 1407 1292 1401 1285 c 128,-1,34
 1395 1278 1395 1278 1383 1263 c 0,35,36
 1303 1163 1303 1163 1219.5 1062 c 128,-1,37
 1136 961 1136 961 1057 864 c 0,0,1
152 1127 m 0,38,39
 152 1032 152 1032 181 955 c 128,-1,40
 210 878 210 878 262.5 824 c 128,-1,41
 315 770 315 770 388 740.5 c 128,-1,42
 461 711 461 711 548 711 c 0,43,44
 641 711 641 711 718 742 c 128,-1,45
 795 773 795 773 850 831.5 c 128,-1,46
 905 890 905 890 935 974.5 c 128,-1,47
 965 1059 965 1059 965 1166 c 0,48,49
 965 1248 965 1248 942 1325 c 128,-1,50
 919 1402 919 1402 871 1461.5 c 128,-1,51
 823 1521 823 1521 749.5 1557 c 128,-1,52
 676 1593 676 1593 576 1593 c 0,53,54
 470 1593 470 1593 390.5 1557 c 128,-1,55
 311 1521 311 1521 258 1458.5 c 128,-1,56
 205 1396 205 1396 178.5 1311 c 128,-1,57
 152 1226 152 1226 152 1127 c 0,38,39
408 1147 m 0,58,59
 408 1189 408 1189 415.5 1232 c 128,-1,60
 423 1275 423 1275 442 1310 c 128,-1,61
 461 1345 461 1345 492 1367 c 128,-1,62
 523 1389 523 1389 571 1389 c 0,63,64
 611 1389 611 1389 638.5 1367.5 c 128,-1,65
 666 1346 666 1346 682.5 1313 c 128,-1,66
 699 1280 699 1280 706.5 1241.5 c 128,-1,67
 714 1203 714 1203 714 1169 c 0,68,69
 714 1128 714 1128 706.5 1084.5 c 128,-1,70
 699 1041 699 1041 680.5 1005 c 128,-1,71
 662 969 662 969 631 945.5 c 128,-1,72
 600 922 600 922 553 922 c 0,73,74
 509 922 509 922 481 942.5 c 128,-1,75
 453 963 453 963 436.5 995.5 c 128,-1,76
 420 1028 420 1028 414 1068 c 128,-1,77
 408 1108 408 1108 408 1147 c 0,58,59
1363 364 m 0,78,79
 1363 269 1363 269 1392 192 c 128,-1,80
 1421 115 1421 115 1473.5 61 c 128,-1,81
 1526 7 1526 7 1599 -22.5 c 128,-1,82
 1672 -52 1672 -52 1759 -52 c 0,83,84
 1852 -52 1852 -52 1929 -21 c 128,-1,85
 2006 10 2006 10 2061 68.5 c 128,-1,86
 2116 127 2116 127 2146 211.5 c 128,-1,87
 2176 296 2176 296 2176 403 c 0,88,89
 2176 485 2176 485 2153 562 c 128,-1,90
 2130 639 2130 639 2082 698.5 c 128,-1,91
 2034 758 2034 758 1960.5 794 c 128,-1,92
 1887 830 1887 830 1787 830 c 0,93,94
 1681 830 1681 830 1601.5 794 c 128,-1,95
 1522 758 1522 758 1469 695.5 c 128,-1,96
 1416 633 1416 633 1389.5 548 c 128,-1,97
 1363 463 1363 463 1363 364 c 0,78,79
1619 384 m 0,98,99
 1619 426 1619 426 1626.5 469 c 128,-1,100
 1634 512 1634 512 1653 547 c 128,-1,101
 1672 582 1672 582 1703 604 c 128,-1,102
 1734 626 1734 626 1782 626 c 0,103,104
 1822 626 1822 626 1849.5 604.5 c 128,-1,105
 1877 583 1877 583 1893.5 550 c 128,-1,106
 1910 517 1910 517 1917.5 478.5 c 128,-1,107
 1925 440 1925 440 1925 406 c 0,108,109
 1925 365 1925 365 1917.5 321.5 c 128,-1,110
 1910 278 1910 278 1891.5 242 c 128,-1,111
 1873 206 1873 206 1842 182.5 c 128,-1,112
 1811 159 1811 159 1764 159 c 0,113,114
 1720 159 1720 159 1692 179.5 c 128,-1,115
 1664 200 1664 200 1647.5 232.5 c 128,-1,116
 1631 265 1631 265 1625 305 c 128,-1,117
 1619 345 1619 345 1619 384 c 0,98,99
EndSplineSet
EndChar

StartChar: g
Encoding: 348 103 92
Width: 1295
Flags: W
HStem: -537 300<266.691 404 462 637.148> -52 262<448.5 683.865> 849 267<587.62 674 678 767.746>
VStem: 102 374<264.571 693.582>
LayerCount: 2
Fore
SplineSet
848 698 m 1,0,1
 840 601 840 601 835 534 c 128,-1,2
 830 467 830 467 827 425 c 0,3,4
 823 376 823 376 821 345 c 1,5,6
 786 286 786 286 736 248 c 128,-1,7
 686 210 686 210 626 210 c 0,8,9
 586 210 586 210 557.5 229 c 128,-1,10
 529 248 529 248 511 280 c 128,-1,11
 493 312 493 312 484.5 354.5 c 128,-1,12
 476 397 476 397 476 445 c 0,13,14
 476 523 476 523 491.5 595.5 c 128,-1,15
 507 668 507 668 534 724.5 c 128,-1,16
 561 781 561 781 597 815 c 128,-1,17
 633 849 633 849 674 849 c 0,18,19
 704 849 704 849 731 836.5 c 128,-1,20
 758 824 758 824 781 804 c 128,-1,21
 804 784 804 784 821.5 760 c 128,-1,22
 839 736 839 736 849 713 c 1,23,-1
 848 698 l 1,0,1
1283 1053 m 2,24,25
 1284 1058 1284 1058 1284 1062.5 c 128,-1,26
 1284 1067 1284 1067 1284 1072 c 0,27,28
 1284 1112 1284 1112 1253 1112 c 0,29,30
 1243 1112 1243 1112 1231 1109 c 0,31,32
 1182 1099 1182 1099 1134 1088.5 c 128,-1,33
 1086 1078 1086 1078 1046 1069 c 128,-1,34
 1006 1060 1006 1060 977 1053.5 c 128,-1,35
 948 1047 948 1047 937 1045 c 0,36,37
 919 1041 919 1041 909.5 1038 c 128,-1,38
 900 1035 900 1035 896 1029 c 128,-1,39
 892 1023 892 1023 891 1012.5 c 128,-1,40
 890 1002 890 1002 888 984 c 1,41,42
 858 1012 858 1012 824.5 1036 c 128,-1,43
 791 1060 791 1060 754.5 1078 c 128,-1,44
 718 1096 718 1096 678 1106 c 128,-1,45
 638 1116 638 1116 595 1116 c 0,46,47
 516 1116 516 1116 449 1088.5 c 128,-1,48
 382 1061 382 1061 327 1013 c 128,-1,49
 272 965 272 965 230 900.5 c 128,-1,50
 188 836 188 836 159.5 762 c 128,-1,51
 131 688 131 688 116.5 608.5 c 128,-1,52
 102 529 102 529 102 451 c 0,53,54
 102 352 102 352 125.5 261.5 c 128,-1,55
 149 171 149 171 198 101 c 128,-1,56
 247 31 247 31 322 -10.5 c 128,-1,57
 397 -52 397 -52 500 -52 c 0,58,59
 575 -52 575 -52 649.5 -22 c 128,-1,60
 724 8 724 8 795 56 c 1,61,62
 786 6 786 6 762 -45.5 c 128,-1,63
 738 -97 738 -97 699.5 -140 c 128,-1,64
 661 -183 661 -183 607 -210 c 128,-1,65
 553 -237 553 -237 483 -237 c 0,66,67
 438 -237 438 -237 404 -234 c 128,-1,68
 370 -231 370 -231 341.5 -223.5 c 128,-1,69
 313 -216 313 -216 287.5 -203.5 c 128,-1,70
 262 -191 262 -191 233 -172 c 0,71,72
 231 -171 231 -171 226 -171 c 256,73,74
 221 -171 221 -171 217 -176 c 128,-1,75
 213 -181 213 -181 209 -195 c 0,76,77
 201 -226 201 -226 189.5 -269 c 128,-1,78
 178 -312 178 -312 167.5 -352.5 c 128,-1,79
 157 -393 157 -393 149.5 -423 c 128,-1,80
 142 -453 142 -453 142 -458 c 2,81,-1
 142 -459 l 1,82,83
 172 -483 172 -483 210 -498.5 c 128,-1,84
 248 -514 248 -514 290 -522.5 c 128,-1,85
 332 -531 332 -531 376 -534 c 128,-1,86
 420 -537 420 -537 462 -537 c 0,87,88
 541 -537 541 -537 622 -516.5 c 128,-1,89
 703 -496 703 -496 779.5 -457 c 128,-1,90
 856 -418 856 -418 924.5 -361.5 c 128,-1,91
 993 -305 993 -305 1046.5 -233.5 c 128,-1,92
 1100 -162 1100 -162 1135 -75.5 c 128,-1,93
 1170 11 1170 11 1180 109 c 2,94,-1
 1283 1053 l 2,24,25
EndSplineSet
EndChar

StartChar: perthousand
Encoding: 349 8240 93
Width: 3120
Flags: W
HStem: -52 211<1667.11 1864.46 2594.11 2791.46> 626 204<1678.18 1872.87 2605.18 2799.87> 711 211<456.107 653.461> 1389 204<467.179 661.872>
VStem: 152 256<969.905 1327.21> 714 251<986.79 1334.9> 1363 256<206.905 564.208> 1925 251<223.79 571.895> 2290 256<206.905 564.208> 2852 251<223.79 571.895>
LayerCount: 2
Fore
SplineSet
1057 864 m 0,0,1
 997 791 997 791 942.5 723.5 c 128,-1,2
 888 656 888 656 834.5 590.5 c 128,-1,3
 781 525 781 525 726.5 460 c 128,-1,4
 672 395 672 395 613 328 c 1,5,6
 613 316 613 316 614 308 c 128,-1,7
 615 300 615 300 623 295 c 1,8,9
 628 290 628 290 636.5 285 c 128,-1,10
 645 280 645 280 664.5 266.5 c 128,-1,11
 684 253 684 253 718 226.5 c 128,-1,12
 752 200 752 200 809 153 c 1,13,14
 820 151 820 151 826.5 149.5 c 128,-1,15
 833 148 833 148 838 148 c 0,16,17
 848 148 848 148 849 153 c 128,-1,18
 850 158 850 158 858 167 c 2,19,-1
 1646 1122 l 2,20,21
 1649 1125 1649 1125 1649 1129 c 0,22,23
 1649 1134 1649 1134 1643.5 1138.5 c 128,-1,24
 1638 1143 1638 1143 1632 1146 c 0,25,26
 1625 1150 1625 1150 1616 1153 c 1,27,28
 1568 1182 1568 1182 1521.5 1217 c 128,-1,29
 1475 1252 1475 1252 1426 1291 c 1,30,31
 1423 1292 1423 1292 1417 1292 c 0,32,33
 1407 1292 1407 1292 1401 1285 c 128,-1,34
 1395 1278 1395 1278 1383 1263 c 0,35,36
 1303 1163 1303 1163 1219.5 1062 c 128,-1,37
 1136 961 1136 961 1057 864 c 0,0,1
152 1127 m 0,38,39
 152 1032 152 1032 181 955 c 128,-1,40
 210 878 210 878 262.5 824 c 128,-1,41
 315 770 315 770 388 740.5 c 128,-1,42
 461 711 461 711 548 711 c 0,43,44
 641 711 641 711 718 742 c 128,-1,45
 795 773 795 773 850 831.5 c 128,-1,46
 905 890 905 890 935 974.5 c 128,-1,47
 965 1059 965 1059 965 1166 c 0,48,49
 965 1248 965 1248 942 1325 c 128,-1,50
 919 1402 919 1402 871 1461.5 c 128,-1,51
 823 1521 823 1521 749.5 1557 c 128,-1,52
 676 1593 676 1593 576 1593 c 0,53,54
 470 1593 470 1593 390.5 1557 c 128,-1,55
 311 1521 311 1521 258 1458.5 c 128,-1,56
 205 1396 205 1396 178.5 1311 c 128,-1,57
 152 1226 152 1226 152 1127 c 0,38,39
408 1147 m 0,58,59
 408 1189 408 1189 415.5 1232 c 128,-1,60
 423 1275 423 1275 442 1310 c 128,-1,61
 461 1345 461 1345 492 1367 c 128,-1,62
 523 1389 523 1389 571 1389 c 0,63,64
 611 1389 611 1389 638.5 1367.5 c 128,-1,65
 666 1346 666 1346 682.5 1313 c 128,-1,66
 699 1280 699 1280 706.5 1241.5 c 128,-1,67
 714 1203 714 1203 714 1169 c 0,68,69
 714 1128 714 1128 706.5 1084.5 c 128,-1,70
 699 1041 699 1041 680.5 1005 c 128,-1,71
 662 969 662 969 631 945.5 c 128,-1,72
 600 922 600 922 553 922 c 0,73,74
 509 922 509 922 481 942.5 c 128,-1,75
 453 963 453 963 436.5 995.5 c 128,-1,76
 420 1028 420 1028 414 1068 c 128,-1,77
 408 1108 408 1108 408 1147 c 0,58,59
1363 364 m 0,78,79
 1363 269 1363 269 1392 192 c 128,-1,80
 1421 115 1421 115 1473.5 61 c 128,-1,81
 1526 7 1526 7 1599 -22.5 c 128,-1,82
 1672 -52 1672 -52 1759 -52 c 0,83,84
 1852 -52 1852 -52 1929 -21 c 128,-1,85
 2006 10 2006 10 2061 68.5 c 128,-1,86
 2116 127 2116 127 2146 211.5 c 128,-1,87
 2176 296 2176 296 2176 403 c 0,88,89
 2176 485 2176 485 2153 562 c 128,-1,90
 2130 639 2130 639 2082 698.5 c 128,-1,91
 2034 758 2034 758 1960.5 794 c 128,-1,92
 1887 830 1887 830 1787 830 c 0,93,94
 1681 830 1681 830 1601.5 794 c 128,-1,95
 1522 758 1522 758 1469 695.5 c 128,-1,96
 1416 633 1416 633 1389.5 548 c 128,-1,97
 1363 463 1363 463 1363 364 c 0,78,79
1619 384 m 0,98,99
 1619 426 1619 426 1626.5 469 c 128,-1,100
 1634 512 1634 512 1653 547 c 128,-1,101
 1672 582 1672 582 1703 604 c 128,-1,102
 1734 626 1734 626 1782 626 c 0,103,104
 1822 626 1822 626 1849.5 604.5 c 128,-1,105
 1877 583 1877 583 1893.5 550 c 128,-1,106
 1910 517 1910 517 1917.5 478.5 c 128,-1,107
 1925 440 1925 440 1925 406 c 0,108,109
 1925 365 1925 365 1917.5 321.5 c 128,-1,110
 1910 278 1910 278 1891.5 242 c 128,-1,111
 1873 206 1873 206 1842 182.5 c 128,-1,112
 1811 159 1811 159 1764 159 c 0,113,114
 1720 159 1720 159 1692 179.5 c 128,-1,115
 1664 200 1664 200 1647.5 232.5 c 128,-1,116
 1631 265 1631 265 1625 305 c 128,-1,117
 1619 345 1619 345 1619 384 c 0,98,99
2290 364 m 0,118,119
 2290 269 2290 269 2319 192 c 128,-1,120
 2348 115 2348 115 2400.5 61 c 128,-1,121
 2453 7 2453 7 2526 -22.5 c 128,-1,122
 2599 -52 2599 -52 2686 -52 c 0,123,124
 2779 -52 2779 -52 2856 -21 c 128,-1,125
 2933 10 2933 10 2988 68.5 c 128,-1,126
 3043 127 3043 127 3073 211.5 c 128,-1,127
 3103 296 3103 296 3103 403 c 0,128,129
 3103 485 3103 485 3080 562 c 128,-1,130
 3057 639 3057 639 3009 698.5 c 128,-1,131
 2961 758 2961 758 2887.5 794 c 128,-1,132
 2814 830 2814 830 2714 830 c 0,133,134
 2608 830 2608 830 2528.5 794 c 128,-1,135
 2449 758 2449 758 2396 695.5 c 128,-1,136
 2343 633 2343 633 2316.5 548 c 128,-1,137
 2290 463 2290 463 2290 364 c 0,118,119
2546 384 m 0,138,139
 2546 426 2546 426 2553.5 469 c 128,-1,140
 2561 512 2561 512 2580 547 c 128,-1,141
 2599 582 2599 582 2630 604 c 128,-1,142
 2661 626 2661 626 2709 626 c 0,143,144
 2749 626 2749 626 2776.5 604.5 c 128,-1,145
 2804 583 2804 583 2820.5 550 c 128,-1,146
 2837 517 2837 517 2844.5 478.5 c 128,-1,147
 2852 440 2852 440 2852 406 c 0,148,149
 2852 365 2852 365 2844.5 321.5 c 128,-1,150
 2837 278 2837 278 2818.5 242 c 128,-1,151
 2800 206 2800 206 2769 182.5 c 128,-1,152
 2738 159 2738 159 2691 159 c 0,153,154
 2647 159 2647 159 2619 179.5 c 128,-1,155
 2591 200 2591 200 2574.5 232.5 c 128,-1,156
 2558 265 2558 265 2552 305 c 128,-1,157
 2546 345 2546 345 2546 384 c 0,138,139
EndSplineSet
EndChar

StartChar: section
Encoding: 350 167 94
Width: 1061
Flags: W
HStem: -187 251<298.771 582.493> 1200 238<587.787 826.772>
VStem: 121 283<592.889 725.276> 259 324<1046.9 1191.96> 585 327<74.4492 196.767> 734 317<540.226 661.608>
LayerCount: 2
Fore
SplineSet
278 -136 m 1,0,1
 311 -154 311 -154 345.5 -164.5 c 128,-1,2
 380 -175 380 -175 416 -180 c 128,-1,3
 452 -185 452 -185 489 -186 c 128,-1,4
 526 -187 526 -187 564 -187 c 0,5,6
 630 -187 630 -187 692.5 -166 c 128,-1,7
 755 -145 755 -145 803.5 -106 c 128,-1,8
 852 -67 852 -67 882 -12 c 128,-1,9
 912 43 912 43 912 110 c 0,10,11
 912 152 912 152 899 199.5 c 128,-1,12
 886 247 886 247 854 294 c 1,13,14
 894 308 894 308 930 334 c 128,-1,15
 966 360 966 360 993 396 c 128,-1,16
 1020 432 1020 432 1035.5 477.5 c 128,-1,17
 1051 523 1051 523 1051 576 c 0,18,19
 1051 601 1051 601 1047.5 628.5 c 128,-1,20
 1044 656 1044 656 1030.5 687 c 128,-1,21
 1017 718 1017 718 991 754.5 c 128,-1,22
 965 791 965 791 919.5 834 c 128,-1,23
 874 877 874 877 806.5 926.5 c 128,-1,24
 739 976 739 976 644 1035 c 0,25,26
 583 1073 583 1073 583 1137 c 0,27,28
 583 1156 583 1156 592 1168 c 128,-1,29
 601 1180 601 1180 615 1187 c 128,-1,30
 629 1194 629 1194 647.5 1197 c 128,-1,31
 666 1200 666 1200 684 1200 c 0,32,33
 718 1200 718 1200 750.5 1190 c 128,-1,34
 783 1180 783 1180 813.5 1163 c 128,-1,35
 844 1146 844 1146 873 1124.5 c 128,-1,36
 902 1103 902 1103 930 1081 c 0,37,38
 935 1076 935 1076 943 1076 c 0,39,40
 959 1076 959 1076 959 1090 c 0,41,42
 959 1095 959 1095 958 1098 c 0,43,44
 938 1165 938 1165 921.5 1226 c 128,-1,45
 905 1287 905 1287 887 1350 c 0,46,47
 883 1362 883 1362 877 1369 c 128,-1,48
 871 1376 871 1376 860 1382 c 0,49,50
 831 1399 831 1399 797.5 1410 c 128,-1,51
 764 1421 764 1421 733 1427 c 128,-1,52
 702 1433 702 1433 676.5 1435.5 c 128,-1,53
 651 1438 651 1438 639 1438 c 0,54,55
 550 1438 550 1438 479.5 1417 c 128,-1,56
 409 1396 409 1396 360 1359 c 128,-1,57
 311 1322 311 1322 285 1272.5 c 128,-1,58
 259 1223 259 1223 259 1165 c 0,59,60
 259 1114 259 1114 276.5 1056.5 c 128,-1,61
 294 999 294 999 316 955 c 1,62,63
 222 924 222 924 171.5 847.5 c 128,-1,64
 121 771 121 771 121 669 c 0,65,66
 121 606 121 606 138 555 c 128,-1,67
 155 504 155 504 184.5 461 c 128,-1,68
 214 418 214 418 253.5 382.5 c 128,-1,69
 293 347 293 347 338.5 316 c 128,-1,70
 384 285 384 285 432.5 258 c 128,-1,71
 481 231 481 231 528 205 c 0,72,73
 552 191 552 191 568.5 169 c 128,-1,74
 585 147 585 147 585 122 c 0,75,76
 585 105 585 105 574 94 c 128,-1,77
 563 83 563 83 547.5 76.5 c 128,-1,78
 532 70 532 70 513.5 67 c 128,-1,79
 495 64 495 64 480 64 c 0,80,81
 411 64 411 64 347 88 c 128,-1,82
 283 112 283 112 228 150 c 0,83,84
 218 157 218 157 210 157 c 0,85,86
 198 157 198 157 198 147 c 0,87,88
 198 145 198 145 199.5 143.5 c 128,-1,89
 201 142 201 142 201 141 c 2,90,-1
 278 -136 l 1,0,1
673 673 m 1,91,-1
 699 655 l 1,92,93
 713 642 713 642 723.5 624.5 c 128,-1,94
 734 607 734 607 734 589 c 0,95,96
 734 572 734 572 723 560.5 c 128,-1,97
 712 549 712 549 696 542.5 c 128,-1,98
 680 536 680 536 661.5 533 c 128,-1,99
 643 530 643 530 628 530 c 0,100,101
 574 530 574 530 523.5 548.5 c 128,-1,102
 473 567 473 567 428 599 c 1,103,104
 417 613 417 613 410.5 633 c 128,-1,105
 404 653 404 653 404 672 c 0,106,107
 404 690 404 690 413 702 c 128,-1,108
 422 714 422 714 436 721 c 128,-1,109
 450 728 450 728 468.5 731 c 128,-1,110
 487 734 487 734 505 734 c 0,111,112
 537 734 537 734 566 725.5 c 128,-1,113
 595 717 595 717 624 703 c 1,114,-1
 673 673 l 1,91,-1
EndSplineSet
EndChar

